<svg width="31" height="27" viewBox="0 0 31 27" fill="none" xmlns="http://www.w3.org/2000/svg">
<mask id="path-1-outside-1_16_541" maskUnits="userSpaceOnUse" x="-0.547363" y="-0.547485" width="31" height="28" fill="black">
<rect fill="white" x="-0.547363" y="-0.547485" width="31" height="28"/>
<path fill-rule="evenodd" clip-rule="evenodd" d="M21.5797 1.77561C21.4356 1.41309 21.1938 1.09766 20.8811 0.864394C20.5684 0.631127 20.1972 0.489165 19.8086 0.454331C19.4259 0.43833 19.0462 0.52831 18.7114 0.714323C18.3766 0.900336 18.0996 1.17516 17.911 1.50854C17.7002 1.90211 18.3046 2.25352 18.5155 1.85994C18.6416 1.64124 18.8244 1.46056 19.0445 1.33689C19.2647 1.21322 19.514 1.15113 19.7665 1.15714C20.0095 1.18032 20.2422 1.26639 20.4419 1.40688C20.6415 1.54736 20.8011 1.73743 20.905 1.95835C20.9129 2.00694 20.9308 2.05334 20.9578 2.09454C20.9742 2.11964 20.9937 2.14247 21.0158 2.16251C20.3096 2.44865 19.632 2.8038 18.9933 3.22346C18.9882 3.22663 18.9833 3.22986 18.9786 3.23316C18.861 3.04457 18.7197 2.87108 18.5578 2.71709C18.2814 2.42625 17.9905 2.14946 17.6863 1.88778C17.1376 1.30899 16.4188 0.920047 15.6342 0.77736C15.2765 0.732834 14.9144 0.813496 14.6095 1.00567C14.3046 1.19785 14.0756 1.48969 13.9615 1.83157C13.9549 1.91562 13.9776 1.99936 14.0257 2.06859C14.0738 2.13783 14.1444 2.18829 14.2254 2.21146C14.3065 2.23462 14.3931 2.22904 14.4705 2.19567C14.5479 2.1623 14.6114 2.10319 14.6502 2.02835L14.6643 2.0424C14.8189 1.42393 15.606 1.40987 16.0699 1.62071C16.7548 1.97507 17.3692 2.45141 17.8831 3.02633C18.1511 3.24512 18.3631 3.52459 18.5016 3.84159C18.5719 4.15082 18.2767 4.48817 18.0799 4.69901C17.7185 5.07284 17.2626 5.33701 16.7646 5.46616C16.6158 4.80577 16.2615 4.20568 15.7481 3.75502C15.7434 3.73285 15.7366 3.71113 15.7277 3.69018C15.7092 3.6467 15.6822 3.6074 15.6482 3.57462C15.0066 2.71379 14.1046 2.08283 13.0759 1.77543C12.8293 1.70433 12.5679 1.70212 12.3201 1.76902C12.0723 1.83592 11.8476 1.96939 11.6703 2.15495C11.3511 2.50749 11.1114 2.92454 10.9675 3.37783C10.9461 3.46724 10.9606 3.56148 11.0079 3.64031C11.0552 3.71914 11.1315 3.7763 11.2205 3.79952C11.2639 3.81227 11.3094 3.81617 11.3543 3.81099C11.3992 3.80581 11.4426 3.79165 11.4819 3.76936C11.5213 3.74707 11.5557 3.7171 11.5833 3.68123C11.6108 3.64536 11.6308 3.60433 11.6422 3.56057H11.6141C11.7258 3.23204 11.8974 2.92704 12.1201 2.66098C12.2602 2.531 12.4385 2.44982 12.6285 2.42955C12.8185 2.40929 13.01 2.45102 13.1743 2.54852C13.9494 2.86755 14.6256 3.38642 15.1344 4.05193C15.1464 4.1102 15.1756 4.16808 15.2262 4.22105C15.447 4.45309 15.6491 4.70218 15.8306 4.96602C15.9635 5.1706 16.0558 5.39832 16.1029 5.63677C15.9718 5.77183 15.9655 6.01874 16.0841 6.15335C16.0579 6.24415 16.0201 6.33173 15.9712 6.4138C15.9267 6.50455 15.8616 6.58362 15.781 6.64465C15.7005 6.70567 15.6067 6.74696 15.5073 6.76521C15.4173 6.7915 15.3408 6.85139 15.2937 6.9325C15.2466 7.01361 15.2325 7.10972 15.2543 7.20094C15.2804 7.29041 15.341 7.36585 15.4227 7.41066C15.5044 7.45547 15.6006 7.46599 15.6901 7.43989C16.0273 7.34051 16.3221 7.13203 16.5281 6.84714C16.6725 6.6475 16.7676 6.41825 16.8077 6.17799C17.3338 6.06506 17.828 5.82889 18.2486 5.48615C18.7165 5.11676 19.2383 4.51006 19.2188 3.88339C19.2603 3.87591 19.3027 3.85813 19.3447 3.82789C20.3392 3.1876 21.431 2.71289 22.5776 2.42228C22.5953 2.41308 22.6122 2.40251 22.628 2.39069C22.6439 2.39289 22.66 2.39402 22.6763 2.39402H23.2807L23.604 2.47835H23.8429C23.9414 2.52617 24.0355 2.58261 24.124 2.64702L24.2505 2.73137H24.3208C24.4776 2.8616 24.6116 3.01691 24.7175 3.19095C23.9319 3.96828 23.1854 4.7846 22.4651 5.62719C22.4007 5.69288 22.3646 5.7812 22.3646 5.87318C22.3646 5.96516 22.4007 6.05346 22.4651 6.11914C22.5332 6.18443 22.6238 6.22089 22.7181 6.22089C22.8124 6.22089 22.9031 6.18443 22.9711 6.11914C23.6186 5.34712 24.3102 4.59717 25.0264 3.87905C25.7869 4.89048 26.185 6.13068 26.1531 7.39878C25.4631 8.11349 24.729 8.78458 23.9551 9.40811C23.9215 9.43966 23.8947 9.47776 23.8764 9.52007C23.8581 9.56238 23.8487 9.60797 23.8487 9.65408C23.8487 9.70018 23.8581 9.7458 23.8764 9.7881C23.8947 9.83041 23.9215 9.86851 23.9551 9.90006C24.0224 9.9613 24.1101 9.99525 24.2011 9.99525C24.2921 9.99525 24.3798 9.9613 24.4471 9.90006C25.2579 9.25048 26.0253 8.54881 26.7446 7.79953C27.1951 8.4938 27.5649 9.2374 27.8467 10.0159L17.791 18.2923C16.7788 18.0238 15.8303 17.5553 15.0015 16.914C14.9184 16.8706 14.8221 16.8595 14.7312 16.8828C14.6404 16.9062 14.5614 16.9624 14.5095 17.0405C14.4801 17.1013 14.4677 17.1684 14.4728 17.2349L8.6083 25.2831L1.28095 18.88C4.681 16.4751 7.91696 13.846 10.9673 11.0101C10.9941 10.9855 11.0157 10.9598 11.0325 10.9333C11.4654 10.9559 11.8982 10.867 12.2887 10.6733C12.4814 10.5673 12.6411 10.4101 12.7503 10.2192C12.8152 10.1056 12.8607 9.98274 12.8855 9.85556C13.0104 9.96021 13.1962 10.0103 13.3429 9.92817C14.0412 9.67682 14.6219 9.17619 14.9734 8.52255C15.0768 8.17483 15.0759 7.80444 14.971 7.45719C14.8661 7.10994 14.6617 6.80105 14.383 6.56875C13.2054 5.40364 11.8881 4.38859 10.4614 3.54669C10.3821 3.51087 10.2924 3.50571 10.2095 3.53224C10.1381 3.5551 10.0762 3.60008 10.0325 3.66022C10.0013 3.66504 9.97064 3.67408 9.94141 3.68729C9.49689 3.98601 9.16715 4.42697 9.00624 4.93779C8.89638 5.28655 8.86967 5.65373 8.92523 6.0106C8.85617 6.01584 8.78718 6.02388 8.71844 6.03475C8.51729 6.08994 8.33097 6.18922 8.17294 6.32537C8.01491 6.46152 7.88915 6.63111 7.8048 6.82189C7.73124 7.05469 7.70824 7.30052 7.73733 7.54293C7.76642 7.78533 7.84692 8.01872 7.97347 8.2275C8.25691 8.72569 8.58634 9.19628 8.95742 9.63311C9.30419 10.0686 9.70381 10.4592 10.1471 10.7959C7.13828 13.5691 3.9518 16.1432 0.607906 18.5021C0.474942 18.5992 0.43873 18.741 0.463391 18.8693C0.435472 18.9708 0.459288 19.0837 0.565849 19.1769L8.36698 25.9941C8.54173 26.1543 8.75797 26.0957 8.87893 25.961C8.95475 25.9433 9.02694 25.9003 9.08383 25.8255L14.9206 17.8016C15.7702 18.3694 16.7167 18.7786 17.7143 19.0084C17.7596 19.0204 17.8067 19.0233 17.8531 19.0171C17.8955 19.0114 17.9364 18.9982 17.974 18.978C18.0389 18.9715 18.1043 18.9459 18.1643 18.8959V18.8819L18.6044 18.5197C19.6919 20.9661 20.8982 23.3596 22.1844 25.7132C22.246 25.821 22.336 25.8697 22.43 25.8762C22.5459 25.9285 22.6862 25.923 22.8027 25.8115L29.8308 19.4581C30.1364 19.178 29.7614 18.7479 29.4374 18.8889L24.405 14.1027C24.3016 14.0038 24.1796 13.9869 24.0719 14.0197L28.4112 10.4482C28.4216 10.4395 28.4312 10.4306 28.4401 10.4216C28.4518 10.4142 28.463 10.4061 28.4738 10.3974C28.5119 10.3663 28.5431 10.3276 28.5654 10.2836C28.5876 10.2397 28.6004 10.1916 28.6029 10.1425C28.6053 10.0933 28.5974 10.0442 28.5797 9.99825C28.2427 9.00098 27.7697 8.05498 27.1741 7.18702C27.1538 7.14222 27.1244 7.10217 27.0877 7.06945C27.051 7.03673 27.0079 7.01207 26.961 6.99708C26.9541 6.99486 26.9471 6.99285 26.94 6.99107C26.9112 6.97188 26.8798 6.9571 26.8468 6.94714C26.7739 5.56005 26.2546 4.22764 25.3584 3.15316C25.362 3.14324 25.3652 3.13313 25.3679 3.12284C25.372 3.10751 25.3749 3.09201 25.3769 3.07645L25.3891 3.09682L25.379 3.0537C25.383 2.98583 25.3673 2.9177 25.3329 2.85787L25.379 3.0537C25.3785 3.0613 25.3778 3.06888 25.3769 3.07645C25.1012 2.62186 24.7055 2.25181 24.2332 2.00708C23.7538 1.7587 23.2145 1.6493 22.6763 1.69121C22.6114 1.69121 22.5483 1.70916 22.4938 1.74231C22.4571 1.73358 22.419 1.73053 22.3808 1.73352V1.7054C22.1178 1.77573 21.8577 1.85518 21.6008 1.94354C21.6018 1.93567 21.6024 1.92776 21.6028 1.91983C21.6053 1.87066 21.5974 1.82153 21.5797 1.77561ZM23.8357 14.214L19.1615 18.0611C20.2168 20.4307 21.3723 22.7544 22.6281 25.0321L28.8993 19.3504L23.899 14.5947C23.7751 14.4762 23.773 14.3308 23.8357 14.214ZM12.8601 9.38698C12.8948 9.35914 12.9382 9.33309 12.9915 9.30969C13.5678 9.05668 14.2847 8.63499 14.3971 8.07275C14.4973 7.57158 14.0168 7.13743 13.6325 6.79019C13.5857 6.74787 13.5403 6.70684 13.4975 6.66713C12.5174 5.76955 11.457 4.96406 10.3298 4.26075C10.3182 4.27184 10.3059 4.2822 10.2928 4.29171H10.2085L10.082 4.40414L9.96955 4.51659V4.58688C9.90837 4.67267 9.85202 4.76183 9.80084 4.85395C9.79524 4.90063 9.79524 4.94783 9.80084 4.99452V5.14914C9.80742 5.17686 9.80742 5.20574 9.80084 5.23347C9.79414 5.34113 9.79414 5.44909 9.80084 5.55675V5.65516C9.79427 5.68288 9.79427 5.71176 9.80084 5.73949C9.82079 5.84171 9.85387 5.94091 9.89925 6.03466L9.8572 6.11112C9.93484 6.13434 10.0115 6.16129 10.087 6.19192C10.5205 6.36777 10.8977 6.65847 11.1783 7.03274C11.5297 7.3982 11.853 7.79176 12.1622 8.18533C12.4966 8.51895 12.7367 8.93356 12.8601 9.38698ZM8.71844 6.85001C8.89411 6.74388 9.0631 6.69873 9.22468 6.6967L9.22921 6.69922C9.30924 6.74311 9.40238 6.75669 9.49161 6.73746L9.50258 6.73441C9.84608 6.83032 10.1498 7.09141 10.4052 7.31386C10.9802 7.86478 11.4982 8.47226 11.9513 9.12709C12.1762 9.42227 12.3449 9.73152 11.9513 9.99859C11.5894 10.2049 11.1656 10.2747 10.7566 10.1954C10.6809 10.1954 10.6179 10.2149 10.5676 10.2474C10.5485 10.2279 10.527 10.2104 10.5036 10.1954C9.91934 9.71412 9.40802 9.1507 8.98551 8.52269C8.66222 8.10101 8.04375 7.25763 8.71844 6.85001Z"/>
</mask>
<path fill-rule="evenodd" clip-rule="evenodd" d="M21.5797 1.77561C21.4356 1.41309 21.1938 1.09766 20.8811 0.864394C20.5684 0.631127 20.1972 0.489165 19.8086 0.454331C19.4259 0.43833 19.0462 0.52831 18.7114 0.714323C18.3766 0.900336 18.0996 1.17516 17.911 1.50854C17.7002 1.90211 18.3046 2.25352 18.5155 1.85994C18.6416 1.64124 18.8244 1.46056 19.0445 1.33689C19.2647 1.21322 19.514 1.15113 19.7665 1.15714C20.0095 1.18032 20.2422 1.26639 20.4419 1.40688C20.6415 1.54736 20.8011 1.73743 20.905 1.95835C20.9129 2.00694 20.9308 2.05334 20.9578 2.09454C20.9742 2.11964 20.9937 2.14247 21.0158 2.16251C20.3096 2.44865 19.632 2.8038 18.9933 3.22346C18.9882 3.22663 18.9833 3.22986 18.9786 3.23316C18.861 3.04457 18.7197 2.87108 18.5578 2.71709C18.2814 2.42625 17.9905 2.14946 17.6863 1.88778C17.1376 1.30899 16.4188 0.920047 15.6342 0.77736C15.2765 0.732834 14.9144 0.813496 14.6095 1.00567C14.3046 1.19785 14.0756 1.48969 13.9615 1.83157C13.9549 1.91562 13.9776 1.99936 14.0257 2.06859C14.0738 2.13783 14.1444 2.18829 14.2254 2.21146C14.3065 2.23462 14.3931 2.22904 14.4705 2.19567C14.5479 2.1623 14.6114 2.10319 14.6502 2.02835L14.6643 2.0424C14.8189 1.42393 15.606 1.40987 16.0699 1.62071C16.7548 1.97507 17.3692 2.45141 17.8831 3.02633C18.1511 3.24512 18.3631 3.52459 18.5016 3.84159C18.5719 4.15082 18.2767 4.48817 18.0799 4.69901C17.7185 5.07284 17.2626 5.33701 16.7646 5.46616C16.6158 4.80577 16.2615 4.20568 15.7481 3.75502C15.7434 3.73285 15.7366 3.71113 15.7277 3.69018C15.7092 3.6467 15.6822 3.6074 15.6482 3.57462C15.0066 2.71379 14.1046 2.08283 13.0759 1.77543C12.8293 1.70433 12.5679 1.70212 12.3201 1.76902C12.0723 1.83592 11.8476 1.96939 11.6703 2.15495C11.3511 2.50749 11.1114 2.92454 10.9675 3.37783C10.9461 3.46724 10.9606 3.56148 11.0079 3.64031C11.0552 3.71914 11.1315 3.7763 11.2205 3.79952C11.2639 3.81227 11.3094 3.81617 11.3543 3.81099C11.3992 3.80581 11.4426 3.79165 11.4819 3.76936C11.5213 3.74707 11.5557 3.7171 11.5833 3.68123C11.6108 3.64536 11.6308 3.60433 11.6422 3.56057H11.6141C11.7258 3.23204 11.8974 2.92704 12.1201 2.66098C12.2602 2.531 12.4385 2.44982 12.6285 2.42955C12.8185 2.40929 13.01 2.45102 13.1743 2.54852C13.9494 2.86755 14.6256 3.38642 15.1344 4.05193C15.1464 4.1102 15.1756 4.16808 15.2262 4.22105C15.447 4.45309 15.6491 4.70218 15.8306 4.96602C15.9635 5.1706 16.0558 5.39832 16.1029 5.63677C15.9718 5.77183 15.9655 6.01874 16.0841 6.15335C16.0579 6.24415 16.0201 6.33173 15.9712 6.4138C15.9267 6.50455 15.8616 6.58362 15.781 6.64465C15.7005 6.70567 15.6067 6.74696 15.5073 6.76521C15.4173 6.7915 15.3408 6.85139 15.2937 6.9325C15.2466 7.01361 15.2325 7.10972 15.2543 7.20094C15.2804 7.29041 15.341 7.36585 15.4227 7.41066C15.5044 7.45547 15.6006 7.46599 15.6901 7.43989C16.0273 7.34051 16.3221 7.13203 16.5281 6.84714C16.6725 6.6475 16.7676 6.41825 16.8077 6.17799C17.3338 6.06506 17.828 5.82889 18.2486 5.48615C18.7165 5.11676 19.2383 4.51006 19.2188 3.88339C19.2603 3.87591 19.3027 3.85813 19.3447 3.82789C20.3392 3.1876 21.431 2.71289 22.5776 2.42228C22.5953 2.41308 22.6122 2.40251 22.628 2.39069C22.6439 2.39289 22.66 2.39402 22.6763 2.39402H23.2807L23.604 2.47835H23.8429C23.9414 2.52617 24.0355 2.58261 24.124 2.64702L24.2505 2.73137H24.3208C24.4776 2.8616 24.6116 3.01691 24.7175 3.19095C23.9319 3.96828 23.1854 4.7846 22.4651 5.62719C22.4007 5.69288 22.3646 5.7812 22.3646 5.87318C22.3646 5.96516 22.4007 6.05346 22.4651 6.11914C22.5332 6.18443 22.6238 6.22089 22.7181 6.22089C22.8124 6.22089 22.9031 6.18443 22.9711 6.11914C23.6186 5.34712 24.3102 4.59717 25.0264 3.87905C25.7869 4.89048 26.185 6.13068 26.1531 7.39878C25.4631 8.11349 24.729 8.78458 23.9551 9.40811C23.9215 9.43966 23.8947 9.47776 23.8764 9.52007C23.8581 9.56238 23.8487 9.60797 23.8487 9.65408C23.8487 9.70018 23.8581 9.7458 23.8764 9.7881C23.8947 9.83041 23.9215 9.86851 23.9551 9.90006C24.0224 9.9613 24.1101 9.99525 24.2011 9.99525C24.2921 9.99525 24.3798 9.9613 24.4471 9.90006C25.2579 9.25048 26.0253 8.54881 26.7446 7.79953C27.1951 8.4938 27.5649 9.2374 27.8467 10.0159L17.791 18.2923C16.7788 18.0238 15.8303 17.5553 15.0015 16.914C14.9184 16.8706 14.8221 16.8595 14.7312 16.8828C14.6404 16.9062 14.5614 16.9624 14.5095 17.0405C14.4801 17.1013 14.4677 17.1684 14.4728 17.2349L8.6083 25.2831L1.28095 18.88C4.681 16.4751 7.91696 13.846 10.9673 11.0101C10.9941 10.9855 11.0157 10.9598 11.0325 10.9333C11.4654 10.9559 11.8982 10.867 12.2887 10.6733C12.4814 10.5673 12.6411 10.4101 12.7503 10.2192C12.8152 10.1056 12.8607 9.98274 12.8855 9.85556C13.0104 9.96021 13.1962 10.0103 13.3429 9.92817C14.0412 9.67682 14.6219 9.17619 14.9734 8.52255C15.0768 8.17483 15.0759 7.80444 14.971 7.45719C14.8661 7.10994 14.6617 6.80105 14.383 6.56875C13.2054 5.40364 11.8881 4.38859 10.4614 3.54669C10.3821 3.51087 10.2924 3.50571 10.2095 3.53224C10.1381 3.5551 10.0762 3.60008 10.0325 3.66022C10.0013 3.66504 9.97064 3.67408 9.94141 3.68729C9.49689 3.98601 9.16715 4.42697 9.00624 4.93779C8.89638 5.28655 8.86967 5.65373 8.92523 6.0106C8.85617 6.01584 8.78718 6.02388 8.71844 6.03475C8.51729 6.08994 8.33097 6.18922 8.17294 6.32537C8.01491 6.46152 7.88915 6.63111 7.8048 6.82189C7.73124 7.05469 7.70824 7.30052 7.73733 7.54293C7.76642 7.78533 7.84692 8.01872 7.97347 8.2275C8.25691 8.72569 8.58634 9.19628 8.95742 9.63311C9.30419 10.0686 9.70381 10.4592 10.1471 10.7959C7.13828 13.5691 3.9518 16.1432 0.607906 18.5021C0.474942 18.5992 0.43873 18.741 0.463391 18.8693C0.435472 18.9708 0.459288 19.0837 0.565849 19.1769L8.36698 25.9941C8.54173 26.1543 8.75797 26.0957 8.87893 25.961C8.95475 25.9433 9.02694 25.9003 9.08383 25.8255L14.9206 17.8016C15.7702 18.3694 16.7167 18.7786 17.7143 19.0084C17.7596 19.0204 17.8067 19.0233 17.8531 19.0171C17.8955 19.0114 17.9364 18.9982 17.974 18.978C18.0389 18.9715 18.1043 18.9459 18.1643 18.8959V18.8819L18.6044 18.5197C19.6919 20.9661 20.8982 23.3596 22.1844 25.7132C22.246 25.821 22.336 25.8697 22.43 25.8762C22.5459 25.9285 22.6862 25.923 22.8027 25.8115L29.8308 19.4581C30.1364 19.178 29.7614 18.7479 29.4374 18.8889L24.405 14.1027C24.3016 14.0038 24.1796 13.9869 24.0719 14.0197L28.4112 10.4482C28.4216 10.4395 28.4312 10.4306 28.4401 10.4216C28.4518 10.4142 28.463 10.4061 28.4738 10.3974C28.5119 10.3663 28.5431 10.3276 28.5654 10.2836C28.5876 10.2397 28.6004 10.1916 28.6029 10.1425C28.6053 10.0933 28.5974 10.0442 28.5797 9.99825C28.2427 9.00098 27.7697 8.05498 27.1741 7.18702C27.1538 7.14222 27.1244 7.10217 27.0877 7.06945C27.051 7.03673 27.0079 7.01207 26.961 6.99708C26.9541 6.99486 26.9471 6.99285 26.94 6.99107C26.9112 6.97188 26.8798 6.9571 26.8468 6.94714C26.7739 5.56005 26.2546 4.22764 25.3584 3.15316C25.362 3.14324 25.3652 3.13313 25.3679 3.12284C25.372 3.10751 25.3749 3.09201 25.3769 3.07645L25.3891 3.09682L25.379 3.0537C25.383 2.98583 25.3673 2.9177 25.3329 2.85787L25.379 3.0537C25.3785 3.0613 25.3778 3.06888 25.3769 3.07645C25.1012 2.62186 24.7055 2.25181 24.2332 2.00708C23.7538 1.7587 23.2145 1.6493 22.6763 1.69121C22.6114 1.69121 22.5483 1.70916 22.4938 1.74231C22.4571 1.73358 22.419 1.73053 22.3808 1.73352V1.7054C22.1178 1.77573 21.8577 1.85518 21.6008 1.94354C21.6018 1.93567 21.6024 1.92776 21.6028 1.91983C21.6053 1.87066 21.5974 1.82153 21.5797 1.77561ZM23.8357 14.214L19.1615 18.0611C20.2168 20.4307 21.3723 22.7544 22.6281 25.0321L28.8993 19.3504L23.899 14.5947C23.7751 14.4762 23.773 14.3308 23.8357 14.214ZM12.8601 9.38698C12.8948 9.35914 12.9382 9.33309 12.9915 9.30969C13.5678 9.05668 14.2847 8.63499 14.3971 8.07275C14.4973 7.57158 14.0168 7.13743 13.6325 6.79019C13.5857 6.74787 13.5403 6.70684 13.4975 6.66713C12.5174 5.76955 11.457 4.96406 10.3298 4.26075C10.3182 4.27184 10.3059 4.2822 10.2928 4.29171H10.2085L10.082 4.40414L9.96955 4.51659V4.58688C9.90837 4.67267 9.85202 4.76183 9.80084 4.85395C9.79524 4.90063 9.79524 4.94783 9.80084 4.99452V5.14914C9.80742 5.17686 9.80742 5.20574 9.80084 5.23347C9.79414 5.34113 9.79414 5.44909 9.80084 5.55675V5.65516C9.79427 5.68288 9.79427 5.71176 9.80084 5.73949C9.82079 5.84171 9.85387 5.94091 9.89925 6.03466L9.8572 6.11112C9.93484 6.13434 10.0115 6.16129 10.087 6.19192C10.5205 6.36777 10.8977 6.65847 11.1783 7.03274C11.5297 7.3982 11.853 7.79176 12.1622 8.18533C12.4966 8.51895 12.7367 8.93356 12.8601 9.38698ZM8.71844 6.85001C8.89411 6.74388 9.0631 6.69873 9.22468 6.6967L9.22921 6.69922C9.30924 6.74311 9.40238 6.75669 9.49161 6.73746L9.50258 6.73441C9.84608 6.83032 10.1498 7.09141 10.4052 7.31386C10.9802 7.86478 11.4982 8.47226 11.9513 9.12709C12.1762 9.42227 12.3449 9.73152 11.9513 9.99859C11.5894 10.2049 11.1656 10.2747 10.7566 10.1954C10.6809 10.1954 10.6179 10.2149 10.5676 10.2474C10.5485 10.2279 10.527 10.2104 10.5036 10.1954C9.91934 9.71412 9.40802 9.1507 8.98551 8.52269C8.66222 8.10101 8.04375 7.25763 8.71844 6.85001Z" fill="#604635"/>
<path d="M21.5797 1.77561L22.0018 1.61256L22.0002 1.60847L21.5797 1.77561ZM20.8811 0.864394L21.1517 0.501672V0.501672L20.8811 0.864394ZM19.8086 0.454331L19.849 0.00359768C19.8419 0.00295612 19.8347 0.0024851 19.8275 0.00218496L19.8086 0.454331ZM18.7114 0.714323L18.9312 1.10992V1.10992L18.7114 0.714323ZM17.911 1.50854L17.5171 1.28566L17.5121 1.29484L17.911 1.50854ZM18.5155 1.85994L18.1235 1.6338C18.1211 1.63791 18.1188 1.64206 18.1165 1.64624L18.5155 1.85994ZM19.0445 1.33689L18.8229 0.94235L18.8229 0.942351L19.0445 1.33689ZM19.7665 1.15714L19.8094 0.706642C19.7987 0.70562 19.788 0.704981 19.7772 0.704725L19.7665 1.15714ZM20.905 1.95835L21.3517 1.88608C21.345 1.84445 21.3325 1.80396 21.3145 1.7658L20.905 1.95835ZM20.9578 2.09454L21.3365 1.84688L21.3365 1.84688L20.9578 2.09454ZM21.0158 2.16251L21.1857 2.58194C21.33 2.52348 21.4341 2.39497 21.4613 2.24171C21.4886 2.08844 21.4351 1.93193 21.3198 1.82734L21.0158 2.16251ZM18.9933 3.22346L19.2344 3.6065L19.2417 3.60168L18.9933 3.22346ZM18.9786 3.23316L18.5946 3.47266C18.6601 3.57767 18.7658 3.65127 18.887 3.67633C19.0082 3.70139 19.1344 3.67571 19.2361 3.60528L18.9786 3.23316ZM18.5578 2.71709L18.2298 3.02886C18.235 3.03436 18.2404 3.03973 18.2459 3.04497L18.5578 2.71709ZM17.6863 1.88778L17.3579 2.19913C17.3685 2.21026 17.3796 2.22085 17.3912 2.23085L17.6863 1.88778ZM15.6342 0.77736L15.7151 0.33212C15.7068 0.330608 15.6985 0.329329 15.6901 0.328285L15.6342 0.77736ZM14.6095 1.00567L14.3682 0.622826V0.622826L14.6095 1.00567ZM13.9615 1.83157L13.5322 1.68826C13.5205 1.72325 13.5132 1.75952 13.5103 1.79629L13.9615 1.83157ZM14.0257 2.06859L13.6541 2.32681L13.6541 2.32681L14.0257 2.06859ZM14.2254 2.21146L14.1011 2.64658L14.1011 2.64658L14.2254 2.21146ZM14.4705 2.19567L14.6496 2.61125L14.6496 2.61125L14.4705 2.19567ZM14.6502 2.02835L14.97 1.70812C14.8679 1.60622 14.7234 1.55906 14.5809 1.58115C14.4384 1.60325 14.3149 1.69194 14.2485 1.81996L14.6502 2.02835ZM14.6643 2.0424L14.3445 2.36264C14.4599 2.47779 14.6282 2.52204 14.7852 2.47848C14.9423 2.43492 15.0638 2.31027 15.1033 2.15216L14.6643 2.0424ZM16.0699 1.62071L16.2779 1.21879C16.271 1.21526 16.2641 1.21191 16.2572 1.20874L16.0699 1.62071ZM17.8831 3.02633L17.5457 3.32791C17.5615 3.34554 17.5786 3.3619 17.5969 3.37686L17.8831 3.02633ZM18.5016 3.84159L18.9429 3.74129C18.9366 3.71355 18.9277 3.68646 18.9163 3.66039L18.5016 3.84159ZM18.0799 4.69901L18.4053 5.01362L18.4107 5.00779L18.0799 4.69901ZM16.7646 5.46616L16.3231 5.56566C16.3501 5.6852 16.4244 5.7887 16.529 5.85251C16.6336 5.91631 16.7596 5.93497 16.8782 5.9042L16.7646 5.46616ZM15.7481 3.75502L15.3054 3.8486C15.3256 3.94418 15.3761 4.03066 15.4496 4.09511L15.7481 3.75502ZM15.7277 3.69018L16.1442 3.51317L16.1442 3.51315L15.7277 3.69018ZM15.6482 3.57462L15.2853 3.84504C15.3 3.86481 15.3164 3.88334 15.3341 3.90045L15.6482 3.57462ZM13.0759 1.77543L13.2055 1.34182L13.2013 1.3406L13.0759 1.77543ZM12.3201 1.76902L12.4381 2.20592V2.20592L12.3201 1.76902ZM11.6703 2.15495L11.343 1.8422L11.3348 1.8512L11.6703 2.15495ZM10.9675 3.37783L10.5362 3.2409C10.5328 3.25137 10.5299 3.26196 10.5273 3.27264L10.9675 3.37783ZM11.0079 3.64031L11.396 3.40748L11.396 3.40748L11.0079 3.64031ZM11.2205 3.79952L11.3482 3.36515L11.3348 3.36165L11.2205 3.79952ZM11.3543 3.81099L11.4061 4.26055L11.4061 4.26055L11.3543 3.81099ZM11.4819 3.76936L11.705 4.16308L11.7051 4.16308L11.4819 3.76936ZM11.5833 3.68123L11.2242 3.40573L11.2242 3.40574L11.5833 3.68123ZM11.6422 3.56057L12.0802 3.67419C12.1154 3.53862 12.0858 3.39441 12.0001 3.28364C11.9144 3.17287 11.7822 3.10803 11.6422 3.10803V3.56057ZM11.6141 3.56057L11.1856 3.41488C11.1386 3.55306 11.1612 3.70541 11.2461 3.82407C11.3311 3.94272 11.4681 4.01311 11.6141 4.01311V3.56057ZM12.1201 2.66098L11.8123 2.32925C11.7984 2.34216 11.7853 2.35593 11.7731 2.37048L12.1201 2.66098ZM13.1743 2.54852L12.9434 2.93771C12.9622 2.94888 12.9818 2.95867 13.0021 2.967L13.1743 2.54852ZM15.1344 4.05193L15.5777 3.96082C15.564 3.89405 15.5353 3.83124 15.4939 3.77709L15.1344 4.05193ZM15.2262 4.22105L15.5541 3.90912L15.5532 3.90824L15.2262 4.22105ZM15.8306 4.96602L16.2102 4.71939L16.2034 4.70949L15.8306 4.96602ZM16.1029 5.63677L16.4276 5.95204C16.5311 5.84544 16.5757 5.6948 16.5469 5.54902L16.1029 5.63677ZM16.0841 6.15335L16.5189 6.27881C16.5618 6.13027 16.5258 5.97014 16.4236 5.85416L16.0841 6.15335ZM15.9712 6.4138L15.5824 6.18218C15.5761 6.19276 15.5702 6.20359 15.5648 6.21465L15.9712 6.4138ZM15.781 6.64465L15.5078 6.28393L15.5078 6.28393L15.781 6.64465ZM15.5073 6.76521L15.4256 6.3201C15.4104 6.3229 15.3953 6.32647 15.3805 6.33081L15.5073 6.76521ZM15.2937 6.9325L15.6851 7.15974L15.6851 7.15974L15.2937 6.9325ZM15.2543 7.20094L14.8142 7.30611C14.8159 7.31334 14.8178 7.32052 14.8199 7.32766L15.2543 7.20094ZM15.4227 7.41066L15.2051 7.80745L15.2051 7.80745L15.4227 7.41066ZM15.6901 7.43989L15.8168 7.87434L15.818 7.87398L15.6901 7.43989ZM16.5281 6.84714L16.1614 6.58194V6.58194L16.5281 6.84714ZM16.8077 6.17799L16.7127 5.73553C16.5312 5.7745 16.3919 5.92035 16.3613 6.10345L16.8077 6.17799ZM18.2486 5.48615L17.9681 5.13092L17.9627 5.13535L18.2486 5.48615ZM19.2188 3.88339L19.1385 3.43803C18.9178 3.47784 18.7595 3.6733 18.7665 3.89747L19.2188 3.88339ZM19.3447 3.82789L19.0997 3.44739C19.0931 3.45163 19.0866 3.45605 19.0802 3.46064L19.3447 3.82789ZM22.5776 2.42228L22.6888 2.86094C22.7225 2.8524 22.7551 2.84 22.786 2.82398L22.5776 2.42228ZM22.628 2.39069L22.6902 1.94244C22.5722 1.92607 22.4526 1.95686 22.3572 2.02813L22.628 2.39069ZM23.2807 2.39402L23.3949 1.95613C23.3576 1.9464 23.3193 1.94148 23.2807 1.94148V2.39402ZM23.604 2.47835L23.4897 2.91624C23.527 2.92597 23.5654 2.93089 23.604 2.93089V2.47835ZM23.8429 2.47835L24.0406 2.07125C23.979 2.04135 23.9114 2.02581 23.8429 2.02581V2.47835ZM24.124 2.64702L23.8578 3.01298C23.8628 3.0166 23.8679 3.02011 23.873 3.02353L24.124 2.64702ZM24.2505 2.73137L23.9995 3.10788C24.0738 3.15746 24.1612 3.18391 24.2505 3.18391V2.73137ZM24.3208 2.73137L24.61 2.38327C24.5288 2.31578 24.4265 2.27883 24.3208 2.27883V2.73137ZM24.7175 3.19095L25.0358 3.51262C25.1848 3.36523 25.213 3.13484 25.1041 2.9558L24.7175 3.19095ZM22.4651 5.62719L22.7883 5.94397C22.7955 5.93663 22.8024 5.92905 22.8091 5.92124L22.4651 5.62719ZM22.4651 6.11914L22.1418 6.43607L22.1518 6.4457L22.4651 6.11914ZM22.9711 6.11914L23.2844 6.4457C23.2962 6.4344 23.3074 6.42246 23.3179 6.40995L22.9711 6.11914ZM25.0264 3.87905L25.3881 3.60709C25.3093 3.50222 25.1888 3.43674 25.0579 3.42761C24.9271 3.41847 24.7987 3.46659 24.706 3.55948L25.0264 3.87905ZM26.1531 7.39878L26.4787 7.71312C26.5574 7.63157 26.6027 7.52345 26.6055 7.41014L26.1531 7.39878ZM23.9551 9.40811L23.6712 9.05572C23.6623 9.06287 23.6537 9.07034 23.6454 9.07813L23.9551 9.40811ZM23.8764 9.52007L24.2917 9.69986L24.2917 9.69985L23.8764 9.52007ZM23.8764 9.7881L24.2917 9.60833L24.2917 9.60831L23.8764 9.7881ZM23.9551 9.90006L23.6454 10.2301L23.6505 10.2347L23.9551 9.90006ZM24.4471 9.90006L24.1641 9.54689C24.1567 9.55282 24.1495 9.55899 24.1425 9.56537L24.4471 9.90006ZM26.7446 7.79953L27.1242 7.55318C27.0489 7.43727 26.9249 7.36208 26.7873 7.34902C26.6498 7.33596 26.5138 7.38646 26.4181 7.48615L26.7446 7.79953ZM27.8467 10.0159L28.1343 10.3653C28.2822 10.2436 28.3375 10.042 28.2723 9.86188L27.8467 10.0159ZM17.791 18.2923L17.6749 18.7297C17.8158 18.7671 17.966 18.7343 18.0785 18.6417L17.791 18.2923ZM15.0015 16.914L15.2785 16.5561C15.2573 16.5398 15.2348 16.5253 15.2111 16.5129L15.0015 16.914ZM14.7312 16.8828L14.8439 17.3211L14.8439 17.3211L14.7312 16.8828ZM14.5095 17.0405L14.1325 16.7903C14.1212 16.8073 14.1111 16.8251 14.1022 16.8435L14.5095 17.0405ZM14.4728 17.2349L14.8385 17.5014C14.902 17.4144 14.9323 17.3075 14.924 17.2002L14.4728 17.2349ZM8.6083 25.2831L8.31051 25.6239C8.40612 25.7074 8.53244 25.747 8.65863 25.7329C8.78481 25.7187 8.89926 25.6523 8.97404 25.5496L8.6083 25.2831ZM1.28095 18.88L1.01963 18.5105C0.906374 18.5906 0.836118 18.7182 0.829007 18.8568C0.821896 18.9953 0.878716 19.1295 0.98317 19.2207L1.28095 18.88ZM10.9673 11.0101L10.6615 10.6765L10.6591 10.6787L10.9673 11.0101ZM11.0325 10.9333L11.0561 10.4814C10.8933 10.4729 10.7385 10.5527 10.6509 10.6902L11.0325 10.9333ZM12.2887 10.6733L12.4898 11.0787C12.4955 11.0758 12.5012 11.0729 12.5068 11.0698L12.2887 10.6733ZM12.7503 10.2192L13.1432 10.4437L13.1432 10.4437L12.7503 10.2192ZM12.8855 9.85556L13.1762 9.50871C13.0535 9.40586 12.8855 9.37552 12.7346 9.42894C12.5836 9.48236 12.4721 9.61158 12.4414 9.76873L12.8855 9.85556ZM13.3429 9.92817L13.1896 9.50237C13.1662 9.5108 13.1435 9.52115 13.1218 9.53332L13.3429 9.92817ZM14.9734 8.52255L15.372 8.73688C15.3866 8.7097 15.3984 8.68109 15.4072 8.65151L14.9734 8.52255ZM14.971 7.45719L15.4042 7.3263L15.4042 7.3263L14.971 7.45719ZM14.383 6.56875L14.0648 6.89046C14.0739 6.89949 14.0834 6.90812 14.0933 6.91634L14.383 6.56875ZM10.4614 3.54669L10.6913 3.15695C10.6772 3.14862 10.6627 3.14106 10.6477 3.13431L10.4614 3.54669ZM10.2095 3.53224L10.0715 3.10125L10.0715 3.10125L10.2095 3.53224ZM10.0325 3.66022L10.1016 4.10746C10.2207 4.08905 10.3276 4.02388 10.3985 3.92638L10.0325 3.66022ZM9.94141 3.68729L9.75504 3.27491C9.73204 3.2853 9.70995 3.2976 9.689 3.31168L9.94141 3.68729ZM9.00624 4.93779L8.57461 4.80182H8.5746L9.00624 4.93779ZM8.92523 6.0106L8.9595 6.46184C9.08533 6.45228 9.20146 6.39061 9.27986 6.29172C9.35826 6.19282 9.3918 6.06568 9.37238 5.94099L8.92523 6.0106ZM8.71844 6.03475L8.6478 5.58776C8.63125 5.59037 8.61486 5.5939 8.5987 5.59834L8.71844 6.03475ZM7.8048 6.82189L7.39091 6.6389C7.38419 6.65411 7.37831 6.66967 7.3733 6.68553L7.8048 6.82189ZM7.73733 7.54293L8.18665 7.48901V7.48901L7.73733 7.54293ZM7.97347 8.2275L8.36696 8.00363L8.36047 7.99292L7.97347 8.2275ZM8.95742 9.63311L9.31144 9.35123C9.30846 9.34748 9.30542 9.34378 9.30232 9.34013L8.95742 9.63311ZM10.1471 10.7959L10.4538 11.1287C10.5523 11.0379 10.6055 10.9082 10.5991 10.7744C10.5928 10.6407 10.5275 10.5166 10.4208 10.4356L10.1471 10.7959ZM0.607906 18.5021L0.347013 18.1322L0.3409 18.1367L0.607906 18.5021ZM0.463391 18.8693L0.899727 18.9893C0.918146 18.9224 0.920906 18.8521 0.907791 18.7839L0.463391 18.8693ZM0.565849 19.1769L0.26785 19.5175L0.268066 19.5177L0.565849 19.1769ZM8.36698 25.9941L8.67286 25.6604L8.66477 25.6534L8.36698 25.9941ZM8.87893 25.961L8.77586 25.5204C8.68567 25.5415 8.60412 25.5898 8.54223 25.6587L8.87893 25.961ZM9.08383 25.8255L9.4442 26.0994L9.44979 26.0917L9.08383 25.8255ZM14.9206 17.8016L15.1721 17.4253C14.9701 17.2903 14.6976 17.3389 14.5547 17.5354L14.9206 17.8016ZM17.7143 19.0084L17.8304 18.571C17.8256 18.5697 17.8207 18.5685 17.8159 18.5674L17.7143 19.0084ZM17.8531 19.0171L17.9133 19.4656L17.9133 19.4656L17.8531 19.0171ZM17.974 18.978L17.9287 18.5278C17.8697 18.5337 17.8125 18.5512 17.7603 18.5792L17.974 18.978ZM18.1643 18.8959L18.454 19.2436C18.5572 19.1576 18.6168 19.0302 18.6168 18.8959H18.1643ZM18.1643 18.8819L17.8767 18.5325C17.7723 18.6184 17.7118 18.7466 17.7118 18.8819H18.1643ZM18.6044 18.5197L19.0179 18.3358C18.9605 18.2067 18.846 18.1117 18.7084 18.0792C18.5708 18.0467 18.426 18.0804 18.3168 18.1702L18.6044 18.5197ZM22.1844 25.7132L21.7873 25.9303L21.7915 25.9377L22.1844 25.7132ZM22.43 25.8762L22.6161 25.4637C22.5672 25.4416 22.5147 25.4284 22.4611 25.4247L22.43 25.8762ZM22.8027 25.8115L22.4991 25.4757L22.4899 25.4845L22.8027 25.8115ZM29.8308 19.4581L30.1343 19.7938L30.1366 19.7917L29.8308 19.4581ZM29.4374 18.8889L29.1255 19.2168C29.2572 19.3421 29.4512 19.3764 29.6179 19.3039L29.4374 18.8889ZM24.405 14.1027L24.0922 14.4297L24.0931 14.4306L24.405 14.1027ZM24.0719 14.0197L23.7843 13.6702C23.6176 13.8074 23.5711 14.0433 23.6731 14.2335C23.7751 14.4238 23.9973 14.5155 24.2038 14.4526L24.0719 14.0197ZM28.4112 10.4482L28.6988 10.7976L28.7023 10.7947L28.4112 10.4482ZM28.4401 10.4216L28.1978 10.0394C28.169 10.0577 28.1423 10.0791 28.1184 10.1034L28.4401 10.4216ZM28.4738 10.3974L28.1881 10.0464L28.1881 10.0464L28.4738 10.3974ZM28.5654 10.2836L28.1617 10.0791L28.1617 10.0792L28.5654 10.2836ZM28.6029 10.1425L29.0548 10.1651V10.1651L28.6029 10.1425ZM28.5797 9.99825L28.151 10.1431C28.153 10.1492 28.1552 10.1553 28.1576 10.1613L28.5797 9.99825ZM27.1741 7.18702L26.7617 7.3734C26.7727 7.39774 26.7858 7.42106 26.801 7.44308L27.1741 7.18702ZM27.0877 7.06945L27.3888 6.73165L27.3888 6.73165L27.0877 7.06945ZM26.961 6.99708L26.823 7.42807L26.823 7.42807L26.961 6.99708ZM26.94 6.99107L26.6892 7.36774C26.7319 7.39621 26.7792 7.41719 26.829 7.42978L26.94 6.99107ZM26.8468 6.94714L26.3948 6.97087C26.4049 7.16144 26.5333 7.32526 26.716 7.38038L26.8468 6.94714ZM25.3584 3.15316L24.9332 2.99831C24.878 3.14981 24.9076 3.31921 25.0109 3.44303L25.3584 3.15316ZM25.3679 3.12284L25.8054 3.23864L25.8054 3.23863L25.3679 3.12284ZM25.3891 3.09682L25.0012 3.32992C25.1161 3.52103 25.353 3.60002 25.5596 3.51605C25.7661 3.43208 25.8807 3.21018 25.8296 2.99315L25.3891 3.09682ZM25.3329 2.85787L25.7253 2.63246C25.6134 2.43766 25.3755 2.35444 25.1666 2.43699C24.9577 2.51954 24.8409 2.74287 24.8924 2.96154L25.3329 2.85787ZM24.2332 2.00708L24.025 2.40888V2.40888L24.2332 2.00708ZM22.6763 1.69121V2.14375C22.688 2.14375 22.6997 2.1433 22.7114 2.14239L22.6763 1.69121ZM22.4938 1.74231L22.3891 2.18258C22.505 2.21013 22.6271 2.19089 22.7288 2.12904L22.4938 1.74231ZM22.3808 1.73352H21.9283C21.9283 1.85967 21.9809 1.9801 22.0735 2.06575C22.1661 2.15141 22.2903 2.19452 22.4161 2.18468L22.3808 1.73352ZM22.3808 1.7054H22.8333C22.8333 1.56475 22.7679 1.43209 22.6564 1.34644C22.5448 1.26079 22.3997 1.23188 22.2639 1.26822L22.3808 1.7054ZM21.6008 1.94354L21.1514 1.89029C21.1331 2.04489 21.1956 2.19805 21.3167 2.29579C21.4379 2.39353 21.6008 2.42211 21.7481 2.37146L21.6008 1.94354ZM21.6028 1.91983L22.0548 1.94254L22.0548 1.9425L21.6028 1.91983ZM23.8357 14.214L24.2344 14.4281C24.3367 14.2377 24.29 14.0015 24.1229 13.8643C23.9558 13.7271 23.715 13.7273 23.5481 13.8646L23.8357 14.214ZM19.1615 18.0611L18.8739 17.7117C18.7168 17.841 18.6653 18.0593 18.7481 18.2452L19.1615 18.0611ZM22.6281 25.0321L22.2318 25.2506C22.2986 25.3717 22.4171 25.4557 22.5536 25.4784C22.69 25.5012 22.8294 25.4603 22.9319 25.3674L22.6281 25.0321ZM28.8993 19.3504L29.2031 19.6857C29.2964 19.6012 29.3503 19.4817 29.3518 19.3558C29.3533 19.23 29.3024 19.1092 29.2112 19.0224L28.8993 19.3504ZM23.899 14.5947L23.5862 14.9217L23.5871 14.9226L23.899 14.5947ZM12.8601 9.38698L12.4234 9.50584C12.4635 9.65308 12.5751 9.77021 12.7202 9.81737C12.8654 9.86453 13.0245 9.83538 13.1435 9.73982L12.8601 9.38698ZM12.9915 9.30969L13.1734 9.72406L13.1734 9.72406L12.9915 9.30969ZM14.3971 8.07275L14.8409 8.1615V8.1615L14.3971 8.07275ZM13.6325 6.79019L13.9359 6.4544L13.9359 6.4544L13.6325 6.79019ZM13.4975 6.66713L13.8054 6.33551L13.8031 6.3334L13.4975 6.66713ZM10.3298 4.26075L10.5693 3.8768C10.3934 3.76706 10.1654 3.79088 10.016 3.93462L10.3298 4.26075ZM10.2928 4.29171V4.74425C10.3885 4.74425 10.4816 4.71395 10.559 4.6577L10.2928 4.29171ZM10.2085 4.29171V3.83917C10.0977 3.83917 9.99069 3.87984 9.90785 3.95346L10.2085 4.29171ZM10.082 4.40414L9.78135 4.06589C9.77471 4.07179 9.76824 4.07789 9.76196 4.08418L10.082 4.40414ZM9.96955 4.51659L9.64953 4.19663C9.56468 4.28149 9.51701 4.39659 9.51701 4.51659H9.96955ZM9.96955 4.58688L10.338 4.84965C10.3927 4.77295 10.4221 4.68109 10.4221 4.58688H9.96955ZM9.80084 4.85395L9.40525 4.63417C9.37675 4.68546 9.3585 4.74181 9.35152 4.80008L9.80084 4.85395ZM9.80084 4.99452H10.2534C10.2534 4.97651 10.2523 4.95852 10.2502 4.94065L9.80084 4.99452ZM9.80084 5.14914H9.3483C9.3483 5.1843 9.3524 5.21935 9.36052 5.25357L9.80084 5.14914ZM9.80084 5.23347L9.36052 5.12903C9.35457 5.1541 9.35078 5.17963 9.34918 5.20534L9.80084 5.23347ZM9.80084 5.55675H10.2534C10.2534 5.54737 10.2531 5.53799 10.2525 5.52862L9.80084 5.55675ZM9.80084 5.65516L10.2412 5.75958C10.2493 5.72537 10.2534 5.69032 10.2534 5.65516H9.80084ZM9.80084 5.73949L10.245 5.65283C10.2438 5.64688 10.2426 5.64096 10.2412 5.63507L9.80084 5.73949ZM9.89925 6.03466L10.2958 6.25273C10.3664 6.12424 10.3705 5.96947 10.3066 5.83749L9.89925 6.03466ZM9.8572 6.11112L9.46066 5.89305C9.39477 6.01287 9.38659 6.15606 9.43841 6.28261C9.49023 6.40916 9.59649 6.50548 9.7275 6.54468L9.8572 6.11112ZM10.087 6.19192L10.2572 5.77258H10.2572L10.087 6.19192ZM11.1783 7.03274L10.8162 7.30416C10.8272 7.31896 10.8392 7.33307 10.8521 7.3464L11.1783 7.03274ZM12.1622 8.18533L11.8064 8.46492C11.8176 8.47923 11.8297 8.49284 11.8426 8.50569L12.1622 8.18533ZM8.71844 6.85001L8.95246 7.23734V7.23734L8.71844 6.85001ZM9.22468 6.6967L9.44497 6.30139C9.37594 6.26292 9.29803 6.2432 9.219 6.24419L9.22468 6.6967ZM9.22921 6.69922L9.00891 7.09454L9.01162 7.09602L9.22921 6.69922ZM9.49161 6.73746L9.58693 7.17985C9.59568 7.17797 9.60437 7.17582 9.613 7.17342L9.49161 6.73746ZM9.50258 6.73441L9.62428 6.29854C9.54477 6.27634 9.46071 6.27631 9.38118 6.29845L9.50258 6.73441ZM10.4052 7.31386L10.7183 6.98709C10.7131 6.98214 10.7078 6.97731 10.7024 6.97261L10.4052 7.31386ZM11.9513 9.12709L11.5792 9.38461C11.5831 9.39028 11.5872 9.39586 11.5914 9.40135L11.9513 9.12709ZM11.9513 9.99859L12.1754 10.3918C12.1857 10.3859 12.1957 10.3797 12.2054 10.3731L11.9513 9.99859ZM10.7566 10.1954L10.8427 9.7511C10.8144 9.7456 10.7855 9.74283 10.7566 9.74283V10.1954ZM10.5676 10.2474L10.2444 10.5642C10.3951 10.7179 10.6331 10.7443 10.8137 10.6272L10.5676 10.2474ZM10.5036 10.1954L10.2158 10.5447C10.2298 10.5562 10.2444 10.5668 10.2597 10.5766L10.5036 10.1954ZM8.98551 8.52269L9.36099 8.27008C9.35578 8.26234 9.35033 8.25476 9.34465 8.24735L8.98551 8.52269ZM21.5797 1.77561L22.0002 1.60847C21.8252 1.16815 21.5315 0.785013 21.1517 0.501672L20.8811 0.864394L20.6105 1.22712C20.8561 1.41031 21.046 1.65803 21.1591 1.94275L21.5797 1.77561ZM20.8811 0.864394L21.1517 0.501672C20.7719 0.218345 20.321 0.0459096 19.849 0.00359768L19.8086 0.454331L19.7682 0.905064C20.0734 0.932421 20.3649 1.04391 20.6105 1.22712L20.8811 0.864394ZM19.8086 0.454331L19.8275 0.00218496C19.3616 -0.0172975 18.8993 0.0922558 18.4916 0.318731L18.7114 0.714323L18.9312 1.10992C19.1932 0.964363 19.4903 0.893957 19.7897 0.906477L19.8086 0.454331ZM18.7114 0.714323L18.4916 0.318731C18.084 0.545213 17.7468 0.879829 17.5172 1.28572L17.911 1.50854L18.3049 1.73136C18.4525 1.47049 18.6692 1.25546 18.9312 1.10992L18.7114 0.714323ZM17.911 1.50854L17.5121 1.29484C17.2622 1.76135 17.524 2.19412 17.8277 2.37064C17.9818 2.46026 18.1814 2.51124 18.3894 2.47053C18.6112 2.4271 18.8002 2.28668 18.9144 2.07364L18.5155 1.85994L18.1165 1.64624C18.1185 1.64251 18.1277 1.62781 18.1483 1.61228C18.169 1.59672 18.1928 1.58675 18.2155 1.58231C18.2574 1.5741 18.2795 1.58643 18.2826 1.5882C18.2861 1.59026 18.3008 1.59942 18.3115 1.62818C18.3173 1.64408 18.3207 1.6636 18.3193 1.68423C18.3178 1.70514 18.312 1.71838 18.31 1.72224L17.911 1.50854ZM18.5155 1.85994L18.9074 2.08609C18.993 1.93781 19.1169 1.8153 19.2662 1.73143L19.0445 1.33689L18.8229 0.942351C18.5319 1.10583 18.2903 1.34467 18.1235 1.6338L18.5155 1.85994ZM19.0445 1.33689L19.2662 1.73144C19.4154 1.64758 19.5845 1.60547 19.7557 1.60955L19.7665 1.15714L19.7772 0.704725C19.4435 0.696777 19.1139 0.778868 18.8229 0.94235L19.0445 1.33689ZM19.7665 1.15714L19.7235 1.60763C19.8883 1.62335 20.0461 1.6817 20.1814 1.77697L20.4419 1.40688L20.7023 1.03679C20.4384 0.851079 20.1307 0.73729 19.8094 0.706642L19.7665 1.15714ZM20.4419 1.40688L20.1814 1.77697C20.3168 1.87224 20.4251 2.00112 20.4955 2.1509L20.905 1.95835L21.3145 1.7658C21.1772 1.47374 20.9662 1.22249 20.7023 1.03679L20.4419 1.40688ZM20.905 1.95835L20.4583 2.03062C20.4762 2.14166 20.5173 2.24783 20.579 2.3422L20.9578 2.09454L21.3365 1.84688C21.3444 1.85885 21.3495 1.87223 21.3517 1.88608L20.905 1.95835ZM20.9578 2.09454L20.579 2.3422C20.6165 2.3996 20.6612 2.45182 20.7117 2.49769L21.0158 2.16251L21.3198 1.82734C21.3262 1.83312 21.3318 1.83969 21.3365 1.84688L20.9578 2.09454ZM21.0158 2.16251L20.8459 1.74309C20.1122 2.04034 19.4084 2.40928 18.7448 2.84524L18.9933 3.22346L19.2417 3.60168C19.8557 3.19832 20.5069 2.85696 21.1857 2.58194L21.0158 2.16251ZM18.9933 3.22346L18.7522 2.84049C18.7413 2.84732 18.731 2.85419 18.7211 2.86104L18.9786 3.23316L19.2361 3.60528C19.2357 3.60554 19.2351 3.60594 19.2344 3.60643L18.9933 3.22346ZM18.9786 3.23316L19.3626 2.99366C19.2248 2.77277 19.0593 2.56958 18.8697 2.38921L18.5578 2.71709L18.2459 3.04497C18.3801 3.17259 18.4971 3.31637 18.5946 3.47266L18.9786 3.23316ZM18.5578 2.71709L18.8858 2.40533C18.599 2.1035 18.2971 1.81628 17.9815 1.54472L17.6863 1.88778L17.3912 2.23085C17.6839 2.48265 17.9638 2.74899 18.2298 3.02886L18.5578 2.71709ZM17.6863 1.88778L18.0148 1.57644C17.3999 0.927852 16.5944 0.492012 15.7151 0.33212L15.6342 0.77736L15.5532 1.2226C16.2433 1.34808 16.8754 1.69012 17.3579 2.19913L17.6863 1.88778ZM15.6342 0.77736L15.6901 0.328285C15.2287 0.270847 14.7616 0.374898 14.3682 0.622826L14.6095 1.00567L14.8508 1.38852C15.0673 1.25209 15.3243 1.19482 15.5783 1.22643L15.6342 0.77736ZM14.6095 1.00567L14.3682 0.622826C13.9748 0.870752 13.6795 1.24724 13.5322 1.68826L13.9615 1.83157L14.3907 1.97487C14.4718 1.73214 14.6343 1.52495 14.8508 1.38852L14.6095 1.00567ZM13.9615 1.83157L13.5103 1.79629C13.4956 1.9844 13.5464 2.17183 13.6541 2.32681L14.0257 2.06859L14.3973 1.81038C14.4088 1.82689 14.4142 1.84684 14.4126 1.86685L13.9615 1.83157ZM14.0257 2.06859L13.6541 2.32681C13.7617 2.48178 13.9197 2.59475 14.1011 2.64658L14.2254 2.21146L14.3497 1.77633C14.3691 1.78184 14.3859 1.79387 14.3973 1.81037L14.0257 2.06859ZM14.2254 2.21146L14.1011 2.64658C14.2825 2.69842 14.4763 2.68595 14.6496 2.61125L14.4705 2.19567L14.2914 1.78009C14.3098 1.77214 14.3304 1.77081 14.3497 1.77633L14.2254 2.21146ZM14.4705 2.19567L14.6496 2.61125C14.8229 2.53655 14.965 2.40423 15.0519 2.23675L14.6502 2.02835L14.2485 1.81996C14.2578 1.80215 14.2729 1.78805 14.2914 1.78009L14.4705 2.19567ZM14.6502 2.02835L14.3305 2.34859L14.3445 2.36264L14.6643 2.0424L14.984 1.72217L14.97 1.70812L14.6502 2.02835ZM14.6643 2.0424L15.1033 2.15216C15.1267 2.0586 15.1852 1.99505 15.3393 1.96443C15.5108 1.93035 15.7275 1.96216 15.8826 2.03269L16.0699 1.62071L16.2572 1.20874C15.9485 1.06842 15.5396 1.00185 15.1629 1.0767C14.7689 1.15502 14.3565 1.40773 14.2253 1.93265L14.6643 2.0424ZM16.0699 1.62071L15.8619 2.02264C16.4979 2.3517 17.0685 2.79403 17.5457 3.32791L17.8831 3.02633L18.2205 2.72474C17.6699 2.10879 17.0116 1.59844 16.2779 1.21879L16.0699 1.62071ZM17.8831 3.02633L17.5969 3.37686C17.8092 3.55021 17.9772 3.77162 18.0869 4.02278L18.5016 3.84159L18.9163 3.66039C18.749 3.27755 18.4929 2.94004 18.1693 2.6758L17.8831 3.02633ZM18.5016 3.84159L18.0603 3.94188C18.0568 3.92658 18.0707 3.96134 18.0028 4.07437C17.94 4.17912 17.8463 4.28604 17.7491 4.39023L18.0799 4.69901L18.4107 5.00779C18.5103 4.90114 18.6626 4.73397 18.779 4.54002C18.8903 4.35436 19.0166 4.06583 18.9429 3.74129L18.5016 3.84159ZM18.0799 4.69901L17.7546 4.38445C17.4513 4.6981 17.0688 4.91975 16.651 5.02811L16.7646 5.46616L16.8782 5.9042C17.4563 5.75427 17.9856 5.44758 18.4053 5.01357L18.0799 4.69901ZM16.7646 5.46616L17.2061 5.36665C17.0363 4.61342 16.6322 3.92896 16.0467 3.41492L15.7481 3.75502L15.4496 4.09511C15.8908 4.48239 16.1952 4.99811 16.3231 5.56566L16.7646 5.46616ZM15.7481 3.75502L16.1909 3.66144C16.1802 3.61073 16.1645 3.56107 16.1442 3.51317L15.7277 3.69018L15.3112 3.86718C15.3087 3.86119 15.3067 3.85497 15.3054 3.8486L15.7481 3.75502ZM15.7277 3.69018L16.1442 3.51315C16.1019 3.41378 16.0401 3.32384 15.9622 3.24878L15.6482 3.57462L15.3341 3.90045C15.3243 3.89095 15.3165 3.87963 15.3112 3.86721L15.7277 3.69018ZM15.6482 3.57462L16.011 3.30419C15.3113 2.3653 14.3274 1.67711 13.2055 1.34184L13.0759 1.77543L12.9463 2.20903C13.8817 2.48854 14.7019 3.06228 15.2853 3.84504L15.6482 3.57462ZM13.0759 1.77543L13.2013 1.3406C12.8753 1.24661 12.5297 1.24368 12.2022 1.33212L12.3201 1.76902L12.4381 2.20592C12.6061 2.16055 12.7833 2.16206 12.9505 2.21026L13.0759 1.77543ZM12.3201 1.76902L12.2022 1.33212C11.8746 1.42057 11.5775 1.59701 11.3431 1.84231L11.6703 2.15495L11.9975 2.4676C12.1177 2.34177 12.2701 2.25128 12.4381 2.20592L12.3201 1.76902ZM11.6703 2.15495L11.3348 1.8512C10.9721 2.25183 10.6997 2.72577 10.5362 3.2409L10.9675 3.37783L11.3988 3.51476C11.5231 3.1233 11.7301 2.76315 12.0057 2.45871L11.6703 2.15495ZM10.9675 3.37783L10.5273 3.27264C10.4785 3.47719 10.5117 3.69278 10.6199 3.87314L11.0079 3.64031L11.396 3.40748C11.4096 3.43018 11.4138 3.45729 11.4076 3.48302L10.9675 3.37783ZM11.0079 3.64031L10.6199 3.87314C10.7281 4.05348 10.9027 4.18425 11.1062 4.23738L11.2205 3.79952L11.3348 3.36165C11.3604 3.36834 11.3824 3.3848 11.396 3.40748L11.0079 3.64031ZM11.2205 3.79952L11.0929 4.23369C11.1944 4.26354 11.301 4.27268 11.4061 4.26055L11.3543 3.81099L11.3024 3.36143C11.3178 3.35966 11.3333 3.361 11.3481 3.36535L11.2205 3.79952ZM11.3543 3.81099L11.4061 4.26055C11.5113 4.24842 11.613 4.21525 11.705 4.16308L11.4819 3.76936L11.2588 3.37564C11.2722 3.36805 11.2871 3.36321 11.3024 3.36143L11.3543 3.81099ZM11.4819 3.76936L11.7051 4.16308C11.7971 4.1109 11.8778 4.04074 11.9423 3.95673L11.5833 3.68123L11.2242 3.40574C11.2337 3.39347 11.2454 3.38324 11.2588 3.37564L11.4819 3.76936ZM11.5833 3.68123L11.9423 3.95673C12.0068 3.87268 12.0536 3.77659 12.0802 3.67419L11.6422 3.56057L11.2041 3.44694C11.208 3.43207 11.2148 3.41804 11.2242 3.40573L11.5833 3.68123ZM11.6422 3.56057V3.10803H11.6141V3.56057V4.01311H11.6422V3.56057ZM11.6141 3.56057L12.0425 3.70625C12.1362 3.43063 12.2802 3.17472 12.4671 2.95148L12.1201 2.66098L11.7731 2.37048C11.5145 2.67936 11.3153 3.03346 11.1856 3.41488L11.6141 3.56057ZM12.1201 2.66098L12.4279 2.9927C12.4964 2.92914 12.5836 2.88945 12.6765 2.87954L12.6285 2.42955L12.5805 1.97956C12.2934 2.01019 12.0239 2.13287 11.8123 2.32925L12.1201 2.66098ZM12.6285 2.42955L12.6765 2.87954C12.7694 2.86963 12.863 2.89004 12.9434 2.93771L13.1743 2.54852L13.4052 2.15933C13.1569 2.012 12.8676 1.94894 12.5805 1.97956L12.6285 2.42955ZM13.1743 2.54852L13.0021 2.967C13.7031 3.25555 14.3147 3.72484 14.7749 4.32678L15.1344 4.05193L15.4939 3.77709C14.9366 3.048 14.1957 2.47956 13.3466 2.13005L13.1743 2.54852ZM15.1344 4.05193L14.6911 4.14305C14.7211 4.28871 14.7926 4.42244 14.8992 4.53386L15.2262 4.22105L15.5532 3.90824C15.5551 3.91013 15.5599 3.91578 15.5652 3.92566C15.5705 3.9356 15.575 3.94755 15.5777 3.96082L15.1344 4.05193ZM15.2262 4.22105L14.8984 4.53298C15.1027 4.74776 15.2898 4.97833 15.4578 5.22256L15.8306 4.96602L16.2034 4.70949C16.0084 4.42603 15.7913 4.15841 15.5541 3.90912L15.2262 4.22105ZM15.8306 4.96602L15.4511 5.21257C15.5526 5.36871 15.623 5.54252 15.659 5.72453L16.1029 5.63677L16.5469 5.54902C16.4886 5.25413 16.3745 4.97249 16.2101 4.71948L15.8306 4.96602ZM16.1029 5.63677L15.7783 5.3215C15.6207 5.4838 15.5537 5.69355 15.5476 5.88037C15.5415 6.06589 15.5939 6.28155 15.7446 6.45254L16.0841 6.15335L16.4236 5.85416C16.4406 5.8734 16.4474 5.88997 16.4499 5.89777C16.4523 5.90555 16.4522 5.90945 16.4522 5.91009C16.4521 5.9108 16.452 5.91365 16.4498 5.91933C16.4476 5.92516 16.4416 5.93766 16.4276 5.95204L16.1029 5.63677ZM16.0841 6.15335L15.6493 6.02789C15.6338 6.08169 15.6114 6.13356 15.5824 6.18218L15.9712 6.4138L16.36 6.64542C16.4288 6.52989 16.482 6.40662 16.5189 6.27881L16.0841 6.15335ZM15.9712 6.4138L15.5648 6.21465C15.5515 6.2419 15.5319 6.26563 15.5078 6.28393L15.781 6.64465L16.0543 7.00537C16.1913 6.90161 16.302 6.7672 16.3776 6.61296L15.9712 6.4138ZM15.781 6.64465L15.5078 6.28393C15.4836 6.30221 15.4555 6.31462 15.4256 6.3201L15.5073 6.76521L15.589 7.21031C15.7579 7.1793 15.9173 7.10914 16.0543 7.00536L15.781 6.64465ZM15.5073 6.76521L15.3805 6.33081C15.1789 6.38967 15.0078 6.52375 14.9024 6.70526L15.2937 6.9325L15.6851 7.15974C15.6739 7.17903 15.6557 7.19333 15.6342 7.1996L15.5073 6.76521ZM15.2937 6.9325L14.9024 6.70526C14.797 6.88677 14.7654 7.10188 14.8142 7.30611L15.2543 7.20094L15.6945 7.09578C15.6997 7.11756 15.6963 7.14045 15.6851 7.15974L15.2937 6.9325ZM15.2543 7.20094L14.8199 7.32766C14.8796 7.53243 15.0183 7.70497 15.2051 7.80745L15.4227 7.41066L15.6403 7.01387C15.6638 7.02672 15.6812 7.0484 15.6888 7.07423L15.2543 7.20094ZM15.4227 7.41066L15.2051 7.80745C15.3921 7.90997 15.6121 7.93404 15.8168 7.87433L15.6901 7.43989L15.5633 7.00546C15.5891 6.99794 15.6168 7.00098 15.6403 7.01387L15.4227 7.41066ZM15.6901 7.43989L15.818 7.87398C16.2513 7.74628 16.6301 7.47841 16.8948 7.11233L16.5281 6.84714L16.1614 6.58194C16.0141 6.78566 15.8033 6.93474 15.5621 7.00581L15.6901 7.43989ZM16.5281 6.84714L16.8948 7.11234C17.0803 6.8558 17.2025 6.56122 17.2541 6.25254L16.8077 6.17799L16.3613 6.10345C16.3327 6.27527 16.2647 6.4392 16.1614 6.58194L16.5281 6.84714ZM16.8077 6.17799L16.9027 6.62045C17.4984 6.49255 18.0582 6.2251 18.5345 5.83695L18.2486 5.48615L17.9627 5.13535C17.5979 5.43268 17.1691 5.63756 16.7127 5.73553L16.8077 6.17799ZM18.2486 5.48615L18.529 5.84134C18.7898 5.63544 19.0728 5.35843 19.2915 5.03451C19.5082 4.71367 19.6849 4.31188 19.6711 3.8693L19.2188 3.88339L18.7665 3.89747C18.7722 4.08157 18.6978 4.29646 18.5414 4.52798C18.3872 4.75643 18.1753 4.96747 17.9682 5.13096L18.2486 5.48615ZM19.2188 3.88339L19.2991 4.32874C19.4127 4.30826 19.5172 4.2613 19.6091 4.19514L19.3447 3.82789L19.0802 3.46064C19.0881 3.45496 19.1078 3.44356 19.1385 3.43803L19.2188 3.88339ZM19.3447 3.82789L19.5896 4.20839C20.543 3.5946 21.5897 3.13953 22.6888 2.86094L22.5776 2.42228L22.4664 1.98361C21.2724 2.28625 20.1354 2.7806 19.0997 3.44739L19.3447 3.82789ZM22.5776 2.42228L22.786 2.82398C22.8257 2.80338 22.8634 2.77969 22.8988 2.75325L22.628 2.39069L22.3572 2.02813C22.3609 2.02532 22.3649 2.02278 22.3692 2.02057L22.5776 2.42228ZM22.628 2.39069L22.5658 2.83893C22.6022 2.84399 22.6391 2.84656 22.6763 2.84656V2.39402V1.94148C22.6809 1.94148 22.6856 1.9418 22.6902 1.94244L22.628 2.39069ZM22.6763 2.39402V2.84656H23.2807V2.39402V1.94148H22.6763V2.39402ZM23.2807 2.39402L23.1665 2.8319L23.4897 2.91624L23.604 2.47835L23.7182 2.04047L23.3949 1.95613L23.2807 2.39402ZM23.8429 2.47835L23.6453 2.88545C23.7198 2.9216 23.7909 2.96427 23.8578 3.01298L24.124 2.64702L24.3902 2.28105C24.2801 2.20095 24.1631 2.13074 24.0406 2.07125L23.8429 2.47835ZM24.124 2.64702L23.873 3.02353L23.9995 3.10788L24.2505 2.73137L24.5016 2.35487L24.3751 2.27051L24.124 2.64702ZM24.2505 2.73137V3.18391H24.3208V2.73137V2.27883H24.2505V2.73137ZM24.3208 2.73137L24.0317 3.07947C24.1499 3.1777 24.251 3.29485 24.3308 3.4261L24.7175 3.19095L25.1041 2.9558C24.9723 2.73897 24.8053 2.5455 24.61 2.38327L24.3208 2.73137ZM24.7175 3.19095L24.3992 2.86928C23.603 3.65712 22.8479 4.48298 22.1211 5.33314L22.4651 5.62719L22.8091 5.92124C23.5229 5.08623 24.2609 4.27944 25.0358 3.51262L24.7175 3.19095ZM22.4651 5.62719L22.1419 5.31042C21.9946 5.46067 21.9121 5.66271 21.9121 5.87318H22.3646H22.8172C22.8172 5.89969 22.8068 5.92509 22.7883 5.94397L22.4651 5.62719ZM22.3646 5.87318H21.9121C21.9121 6.08368 21.9947 6.28569 22.1419 6.43592L22.4651 6.11914L22.7883 5.80237C22.8068 5.82123 22.8172 5.84664 22.8172 5.87318H22.3646ZM22.4651 6.11914L22.1518 6.4457C22.3041 6.59181 22.507 6.67343 22.7181 6.67343V6.22089V5.76835C22.7406 5.76835 22.7622 5.77706 22.7784 5.79259L22.4651 6.11914ZM22.7181 6.22089V6.67343C22.9292 6.67343 23.1321 6.59185 23.2844 6.4457L22.9711 6.11914L22.6578 5.79259C22.6741 5.77702 22.6957 5.76835 22.7181 5.76835V6.22089ZM22.9711 6.11914L23.3179 6.40995C23.9562 5.64882 24.6389 4.90844 25.3469 4.19861L25.0264 3.87905L24.706 3.55948C23.9815 4.28591 23.281 5.04543 22.6244 5.82834L22.9711 6.11914ZM25.0264 3.87905L24.6647 4.15101C25.364 5.08102 25.73 6.2214 25.7007 7.38743L26.1531 7.39878L26.6055 7.41014C26.6399 6.03995 26.2098 4.69994 25.3881 3.60709L25.0264 3.87905ZM26.1531 7.39878L25.8276 7.08445C25.1506 7.78562 24.4304 8.44401 23.6712 9.05572L23.9551 9.40811L24.2391 9.7605C25.0276 9.12516 25.7755 8.44136 26.4787 7.71312L26.1531 7.39878ZM23.9551 9.40811L23.6454 9.07813C23.5667 9.15203 23.504 9.24126 23.4611 9.34029L23.8764 9.52007L24.2917 9.69985C24.2855 9.71426 24.2763 9.72729 24.2648 9.73809L23.9551 9.40811ZM23.8764 9.52007L23.4611 9.34028C23.4182 9.43939 23.3961 9.54619 23.3961 9.65408H23.8487H24.3012C24.3012 9.66976 24.298 9.68536 24.2917 9.69986L23.8764 9.52007ZM23.8487 9.65408H23.3961C23.3961 9.76194 23.4182 9.86875 23.4611 9.9679L23.8764 9.7881L24.2917 9.60831C24.298 9.62284 24.3012 9.63842 24.3012 9.65408H23.8487ZM23.8764 9.7881L23.4611 9.96788C23.504 10.0669 23.5667 10.1561 23.6454 10.23L23.9551 9.90006L24.2648 9.57008C24.2763 9.58088 24.2855 9.59391 24.2917 9.60833L23.8764 9.7881ZM23.9551 9.90006L23.6505 10.2347C23.8011 10.3718 23.9975 10.4478 24.2011 10.4478V9.99525V9.54271C24.2228 9.54271 24.2437 9.55078 24.2597 9.56538L23.9551 9.90006ZM24.2011 9.99525V10.4478C24.4048 10.4478 24.6011 10.3718 24.7517 10.2348L24.4471 9.90006L24.1425 9.56537C24.1585 9.55082 24.1794 9.54271 24.2011 9.54271V9.99525ZM24.4471 9.90006L24.7301 10.2532C25.5562 9.59135 26.3381 8.87639 27.071 8.11292L26.7446 7.79953L26.4181 7.48615C25.7124 8.22123 24.9595 8.90962 24.1641 9.54689L24.4471 9.90006ZM26.7446 7.79953L26.3649 8.04588C26.7967 8.71124 27.1511 9.42386 27.4212 10.17L27.8467 10.0159L28.2723 9.86188C27.9787 9.05094 27.5935 8.27637 27.1242 7.55318L26.7446 7.79953ZM27.8467 10.0159L27.5592 9.6665L17.5034 17.9429L17.791 18.2923L18.0785 18.6417L28.1343 10.3653L27.8467 10.0159ZM17.791 18.2923L17.907 17.8549C16.9532 17.6019 16.0594 17.1604 15.2785 16.5561L15.0015 16.914L14.7246 17.2719C15.6011 17.9502 16.6044 18.4458 17.6749 18.7297L17.791 18.2923ZM15.0015 16.914L15.2111 16.5129C15.0288 16.4177 14.8177 16.3933 14.6185 16.4446L14.7312 16.8828L14.8439 17.3211C14.8265 17.3256 14.808 17.3235 14.7919 17.3151L15.0015 16.914ZM14.7312 16.8828L14.6185 16.4446C14.4194 16.4958 14.2462 16.6189 14.1325 16.7903L14.5095 17.0405L14.8866 17.2908C14.8766 17.3058 14.8614 17.3166 14.8439 17.3211L14.7312 16.8828ZM14.5095 17.0405L14.1022 16.8435C14.0377 16.9767 14.0104 17.1239 14.0216 17.2697L14.4728 17.2349L14.924 17.2002C14.925 17.2129 14.9226 17.2259 14.9169 17.2376L14.5095 17.0405ZM14.4728 17.2349L14.1071 16.9684L8.24255 25.0166L8.6083 25.2831L8.97404 25.5496L14.8385 17.5014L14.4728 17.2349ZM8.6083 25.2831L8.90608 24.9424L1.57874 18.5392L1.28095 18.88L0.98317 19.2207L8.31051 25.6239L8.6083 25.2831ZM1.28095 18.88L1.54228 19.2494C4.95875 16.8329 8.21035 14.1911 11.2754 11.3416L10.9673 11.0101L10.6591 10.6787C7.62357 13.5008 4.40324 16.1172 1.01963 18.5105L1.28095 18.88ZM10.9673 11.0101L11.2731 11.3437C11.3269 11.2944 11.3746 11.2386 11.4142 11.1765L11.0325 10.9333L10.6509 10.6902C10.6568 10.6809 10.6613 10.6767 10.6615 10.6766L10.9673 11.0101ZM11.0325 10.9333L11.0089 11.3853C11.5192 11.4119 12.0294 11.307 12.4898 11.0787L12.2887 10.6733L12.0876 10.2679C11.767 10.4269 11.4116 10.5 11.0561 10.4814L11.0325 10.9333ZM12.2887 10.6733L12.5068 11.0698C12.7725 10.9236 12.9927 10.707 13.1432 10.4437L12.7503 10.2192L12.3574 9.99463C12.2896 10.1133 12.1903 10.2109 12.0706 10.2767L12.2887 10.6733ZM12.7503 10.2192L13.1432 10.4437C13.2326 10.2871 13.2954 10.1177 13.3297 9.94238L12.8855 9.85556L12.4414 9.76873C12.4259 9.84775 12.3977 9.92409 12.3574 9.99464L12.7503 10.2192ZM12.8855 9.85556L12.5948 10.2024C12.8068 10.3801 13.1969 10.5286 13.564 10.323L13.3429 9.92817L13.1218 9.53332C13.1386 9.52388 13.1553 9.51919 13.1686 9.51745C13.1812 9.5158 13.1889 9.51702 13.1908 9.51738C13.1927 9.51773 13.191 9.51762 13.187 9.51564C13.1829 9.51367 13.179 9.5111 13.1762 9.50871L12.8855 9.85556ZM13.3429 9.92817L13.4962 10.354C14.2995 10.0648 14.9676 9.48886 15.372 8.73688L14.9734 8.52255L14.5748 8.30822C14.2762 8.86352 13.7829 9.28883 13.1896 9.50237L13.3429 9.92817ZM14.9734 8.52255L15.4072 8.65151C15.5358 8.21896 15.5347 7.75823 15.4042 7.3263L14.971 7.45719L14.5378 7.58808C14.6172 7.85066 14.6178 8.1307 14.5396 8.3936L14.9734 8.52255ZM14.971 7.45719L15.4042 7.3263C15.2737 6.89435 15.0194 6.51012 14.6728 6.22117L14.383 6.56875L14.0933 6.91634C14.3039 7.09198 14.4585 7.32552 14.5378 7.58809L14.971 7.45719ZM14.383 6.56875L14.7013 6.24705C13.4971 5.0557 12.1502 4.0178 10.6913 3.15695L10.4614 3.54669L10.2314 3.93644C11.626 4.75938 12.9136 5.75158 14.0648 6.89046L14.383 6.56875ZM10.4614 3.54669L10.6477 3.13431C10.4664 3.05236 10.2611 3.04055 10.0715 3.10125L10.2095 3.53224L10.3475 3.96323C10.3236 3.97087 10.2978 3.96938 10.275 3.95907L10.4614 3.54669ZM10.2095 3.53224L10.0715 3.10125C9.90816 3.15356 9.76655 3.25649 9.6665 3.39406L10.0325 3.66022L10.3985 3.92638C10.3859 3.94368 10.3681 3.95664 10.3475 3.96323L10.2095 3.53224ZM10.0325 3.66022L9.96341 3.21298C9.89202 3.22401 9.82189 3.24469 9.75504 3.27491L9.94141 3.68729L10.1278 4.09967C10.1194 4.10346 10.1106 4.10607 10.1016 4.10746L10.0325 3.66022ZM9.94141 3.68729L9.689 3.31168C9.15928 3.66765 8.76635 4.19312 8.57461 4.80182L9.00624 4.93779L9.43787 5.07375C9.56795 4.66081 9.83451 4.30436 10.1938 4.06289L9.94141 3.68729ZM9.00624 4.93779L8.5746 4.80182C8.44369 5.21742 8.41188 5.65496 8.47807 6.08021L8.92523 6.0106L9.37238 5.94099C9.32747 5.6525 9.34906 5.35568 9.43787 5.07375L9.00624 4.93779ZM8.92523 6.0106L8.89096 5.55935C8.80975 5.56552 8.72863 5.57498 8.6478 5.58776L8.71844 6.03475L8.78909 6.48174C8.84574 6.47279 8.90258 6.46616 8.9595 6.46184L8.92523 6.0106ZM8.71844 6.03475L8.5987 5.59834C8.33276 5.67131 8.08644 5.80256 7.87756 5.98252L8.17294 6.32537L8.46832 6.66822C8.57549 6.57588 8.70182 6.50858 8.83819 6.47116L8.71844 6.03475ZM8.17294 6.32537L7.87756 5.98252C7.66868 6.16248 7.50242 6.38668 7.39091 6.6389L7.8048 6.82189L8.2187 7.00488C8.27588 6.87555 8.36114 6.76055 8.46832 6.66822L8.17294 6.32537ZM7.8048 6.82189L7.3733 6.68553C7.28031 6.97977 7.25125 7.29048 7.28801 7.59684L7.73733 7.54293L8.18665 7.48901C8.16523 7.31056 8.18217 7.1296 8.23631 6.95825L7.8048 6.82189ZM7.73733 7.54293L7.28801 7.59684C7.32478 7.90321 7.42652 8.19819 7.58647 8.46208L7.97347 8.2275L8.36047 7.99292C8.26732 7.83925 8.20806 7.66745 8.18665 7.48901L7.73733 7.54293ZM7.97347 8.2275L7.58013 8.45129C7.87753 8.974 8.22318 9.46776 8.61252 9.9261L8.95742 9.63311L9.30232 9.34013C8.9495 8.92479 8.63629 8.47737 8.36681 8.00372L7.97347 8.2275ZM8.95742 9.63311L8.60339 9.915C8.97356 10.3799 9.40016 10.7969 9.87339 11.1563L10.1471 10.7959L10.4208 10.4356C10.0075 10.1216 9.63481 9.75735 9.31144 9.35123L8.95742 9.63311ZM10.1471 10.7959L9.84042 10.4632C6.84604 13.223 3.67488 15.7848 0.34705 18.1323L0.607906 18.5021L0.868762 18.8719C4.22873 16.5017 7.43052 13.9152 10.4538 11.1287L10.1471 10.7959ZM0.607906 18.5021L0.3409 18.1367C0.0476322 18.351 -0.0340608 18.6789 0.0189911 18.9548L0.463391 18.8693L0.907791 18.7839C0.908902 18.7896 0.910354 18.8047 0.903002 18.8254C0.899309 18.8358 0.894058 18.8456 0.887886 18.8538C0.881702 18.8621 0.876463 18.8663 0.874911 18.8674L0.607906 18.5021ZM0.463391 18.8693L0.0270558 18.7493C-0.0468889 19.0181 0.0306415 19.3099 0.26785 19.5175L0.565849 19.1769L0.863848 18.8363C0.867719 18.8397 0.88643 18.8588 0.89761 18.8961C0.908537 18.9324 0.906158 18.9659 0.899727 18.9893L0.463391 18.8693ZM0.565849 19.1769L0.268066 19.5177L8.0692 26.3349L8.36698 25.9941L8.66477 25.6534L0.863632 18.8362L0.565849 19.1769ZM8.36698 25.9941L8.06119 26.3277C8.24612 26.4972 8.47621 26.5653 8.69964 26.5372C8.91062 26.5106 9.09092 26.4023 9.21564 26.2634L8.87893 25.961L8.54223 25.6587C8.54599 25.6545 8.55768 25.6428 8.58661 25.6392C8.60293 25.6371 8.62224 25.6383 8.6414 25.6444C8.66086 25.6506 8.67116 25.6591 8.67278 25.6605L8.36698 25.9941ZM8.87893 25.961L8.98201 26.4017C9.15845 26.3604 9.32234 26.2596 9.44412 26.0993L9.08383 25.8255L8.72353 25.5517C8.72611 25.5483 8.7325 25.5413 8.74339 25.5343C8.7541 25.5274 8.76547 25.5228 8.77586 25.5204L8.87893 25.961ZM9.08383 25.8255L9.44979 26.0917L15.2866 18.0678L14.9206 17.8016L14.5547 17.5354L8.71787 25.5593L9.08383 25.8255ZM14.9206 17.8016L14.6692 18.1778C15.5643 18.7761 16.5616 19.2073 17.6128 19.4494L17.7143 19.0084L17.8159 18.5674C16.8718 18.35 15.9761 17.9627 15.1721 17.4253L14.9206 17.8016ZM17.7143 19.0084L17.5983 19.4458C17.7011 19.4731 17.8082 19.4797 17.9133 19.4656L17.8531 19.0171L17.7929 18.5686C17.8053 18.5669 17.818 18.5677 17.8304 18.571L17.7143 19.0084ZM17.8531 19.0171L17.9133 19.4656C18.0094 19.4527 18.1024 19.4227 18.1878 19.3769L17.974 18.978L17.7603 18.5792C17.7705 18.5737 17.7815 18.5701 17.7929 18.5686L17.8531 19.0171ZM17.974 18.978L18.0194 19.4283C18.1748 19.4126 18.3251 19.351 18.454 19.2436L18.1643 18.8959L17.8746 18.5483C17.8779 18.5455 17.8848 18.5407 17.8954 18.5362C17.9059 18.5318 17.9173 18.5289 17.9287 18.5278L17.974 18.978ZM18.1643 18.8959H18.6168V18.8819H18.1643H17.7118V18.8959H18.1643ZM18.1643 18.8819L18.4519 19.2313L18.892 18.8691L18.6044 18.5197L18.3168 18.1702L17.8767 18.5325L18.1643 18.8819ZM18.6044 18.5197L18.1909 18.7035C19.2843 21.1632 20.4963 23.5679 21.7873 25.9302L22.1844 25.7132L22.5816 25.4962C21.3001 23.1513 20.0995 20.769 19.0179 18.3358L18.6044 18.5197ZM22.1844 25.7132L21.7915 25.9377C21.9273 26.1753 22.1521 26.3106 22.3988 26.3277L22.43 25.8762L22.4611 25.4247C22.4832 25.4263 22.5105 25.4335 22.5366 25.45C22.5629 25.4666 22.5748 25.4842 22.5774 25.4887L22.1844 25.7132ZM22.43 25.8762L22.2439 26.2887C22.5051 26.4066 22.8484 26.394 23.1155 26.1385L22.8027 25.8115L22.4899 25.4845C22.4976 25.4771 22.5204 25.4616 22.5547 25.4569C22.5855 25.4527 22.607 25.4596 22.6161 25.4637L22.43 25.8762ZM22.8027 25.8115L23.1062 26.1472L30.1343 19.7938L29.8308 19.4581L29.5273 19.1224L22.4992 25.4758L22.8027 25.8115ZM29.8308 19.4581L30.1366 19.7917C30.2951 19.6465 30.3886 19.4555 30.3961 19.2473C30.4032 19.048 30.3303 18.8715 30.2289 18.7397C30.0374 18.4906 29.6523 18.3019 29.2568 18.4739L29.4374 18.8889L29.6179 19.3039C29.587 19.3173 29.5559 19.315 29.5377 19.309C29.5236 19.3044 29.5165 19.2981 29.5114 19.2914C29.5062 19.2846 29.49 19.2593 29.4916 19.2151C29.4924 19.1924 29.4979 19.1704 29.5068 19.1518C29.5156 19.1335 29.5245 19.125 29.525 19.1245L29.8308 19.4581ZM29.4374 18.8889L29.7492 18.561L24.7169 13.7748L24.405 14.1027L24.0931 14.4306L29.1255 19.2168L29.4374 18.8889ZM24.405 14.1027L24.7178 13.7757C24.4875 13.5554 24.1923 13.5099 23.94 13.5868L24.0719 14.0197L24.2038 14.4526C24.191 14.4564 24.1694 14.4596 24.143 14.4538C24.1147 14.4476 24.0975 14.4347 24.0922 14.4297L24.405 14.1027ZM24.0719 14.0197L24.3595 14.3691L28.6988 10.7976L28.4112 10.4482L28.1236 10.0988L23.7843 13.6702L24.0719 14.0197ZM28.4112 10.4482L28.7023 10.7947C28.7229 10.7774 28.7428 10.7591 28.7618 10.7399L28.4401 10.4216L28.1184 10.1034C28.1196 10.1022 28.1202 10.1016 28.1202 10.1017L28.4112 10.4482ZM28.4401 10.4216L28.6824 10.8038C28.7091 10.7869 28.7348 10.7684 28.7594 10.7484L28.4738 10.3974L28.1881 10.0464C28.1912 10.0439 28.1944 10.0416 28.1978 10.0394L28.4401 10.4216ZM28.4738 10.3974L28.7594 10.7484C28.8469 10.6772 28.9183 10.5884 28.9691 10.4881L28.5654 10.2836L28.1617 10.0792C28.168 10.0667 28.177 10.0555 28.1881 10.0464L28.4738 10.3974ZM28.5654 10.2836L28.9691 10.4881C29.0199 10.3877 29.0492 10.2777 29.0548 10.1651L28.6029 10.1425L28.1509 10.1198C28.1516 10.1056 28.1553 10.0917 28.1617 10.0791L28.5654 10.2836ZM28.6029 10.1425L29.0548 10.1651C29.0605 10.0526 29.0424 9.94024 29.0019 9.8352L28.5797 9.99825L28.1576 10.1613C28.1525 10.1481 28.1502 10.134 28.1509 10.1198L28.6029 10.1425ZM28.5797 9.99825L29.0084 9.85338C28.6581 8.81666 28.1664 7.83325 27.5472 6.93096L27.1741 7.18702L26.801 7.44308C27.373 8.27671 27.8273 9.18529 28.151 10.1431L28.5797 9.99825ZM27.1741 7.18702L27.5865 7.00065C27.5401 6.89807 27.4727 6.80645 27.3888 6.73165L27.0877 7.06945L26.7866 7.40724C26.7761 7.39788 26.7676 7.38637 26.7617 7.3734L27.1741 7.18702ZM27.0877 7.06945L27.3888 6.73165C27.3049 6.65683 27.2062 6.60041 27.099 6.56609L26.961 6.99708L26.823 7.42807C26.8095 7.42374 26.7971 7.41662 26.7866 7.40725L27.0877 7.06945ZM26.961 6.99708L27.099 6.56609C27.0831 6.561 27.0671 6.55642 27.051 6.55235L26.94 6.99107L26.829 7.42978C26.827 7.42928 26.825 7.42871 26.823 7.42807L26.961 6.99708ZM26.94 6.99107L27.1908 6.61439C27.1249 6.57049 27.053 6.53667 26.9775 6.51389L26.8468 6.94714L26.716 7.38038C26.7065 7.37752 26.6975 7.37327 26.6892 7.36774L26.94 6.99107ZM26.8468 6.94714L27.2987 6.9234C27.2207 5.43901 26.665 4.01314 25.7059 2.86329L25.3584 3.15316L25.0109 3.44303C25.8442 4.44213 26.3271 5.68109 26.3948 6.97087L26.8468 6.94714ZM25.3584 3.15316L25.7836 3.30801C25.7919 3.2853 25.7991 3.26216 25.8054 3.23864L25.3679 3.12284L24.9304 3.00705C24.9312 3.0041 24.9321 3.00118 24.9332 2.99831L25.3584 3.15316ZM25.3679 3.12284L25.8054 3.23863C25.8146 3.20358 25.8215 3.16812 25.8259 3.1325L25.3769 3.07645L24.9278 3.02041C24.9284 3.01591 24.9293 3.01144 24.9304 3.00705L25.3679 3.12284ZM25.3769 3.07645L24.989 3.30955L25.0012 3.32992L25.3891 3.09682L25.777 2.86373L25.7648 2.84336L25.3769 3.07645ZM25.3891 3.09682L25.8296 2.99315L25.8195 2.95003L25.379 3.0537L24.9385 3.15738L24.9486 3.2005L25.3891 3.09682ZM25.379 3.0537L25.8307 3.08045C25.8399 2.9252 25.8039 2.76933 25.7253 2.63246L25.3329 2.85787L24.9405 3.08329C24.9306 3.06606 24.9261 3.04646 24.9272 3.02696L25.379 3.0537ZM25.3329 2.85787L24.8924 2.96154L24.9385 3.15737L25.379 3.0537L25.8195 2.95003L25.7734 2.7542L25.3329 2.85787ZM25.379 3.0537L24.9272 3.027C24.9274 3.02474 24.9276 3.02253 24.9278 3.02036L25.3769 3.07645L25.8259 3.13255C25.8281 3.11524 25.8297 3.09785 25.8307 3.08041L25.379 3.0537ZM25.3769 3.07645L25.7638 2.84178C25.445 2.31613 24.9875 1.88825 24.4414 1.60527L24.2332 2.00708L24.025 2.40888C24.4235 2.61537 24.7573 2.9276 24.99 3.31113L25.3769 3.07645ZM24.2332 2.00708L24.4414 1.60527C23.8871 1.31807 23.2635 1.19157 22.6411 1.24004L22.6763 1.69121L22.7114 2.14239C23.1655 2.10702 23.6205 2.19933 24.025 2.40888L24.2332 2.00708ZM22.6763 1.69121V1.23867C22.5278 1.23867 22.3835 1.27976 22.2588 1.35559L22.4938 1.74231L22.7288 2.12904C22.7132 2.13856 22.695 2.14375 22.6763 2.14375V1.69121ZM22.4938 1.74231L22.5985 1.30204C22.5163 1.2825 22.431 1.27567 22.3455 1.28235L22.3808 1.73352L22.4161 2.18468C22.407 2.18539 22.3979 2.18466 22.3891 2.18258L22.4938 1.74231ZM22.3808 1.73352H22.8333V1.7054H22.3808H21.9283V1.73352H22.3808ZM22.3808 1.7054L22.2639 1.26822C21.9907 1.34129 21.7205 1.42382 21.4536 1.51561L21.6008 1.94354L21.7481 2.37146C21.9949 2.28654 22.245 2.21018 22.4977 2.14257L22.3808 1.7054ZM21.6008 1.94354L22.0502 1.99679C22.0524 1.97876 22.0539 1.96066 22.0548 1.94254L21.6028 1.91983L21.1509 1.89711C21.151 1.89486 21.1512 1.89258 21.1514 1.89029L21.6008 1.94354ZM21.6028 1.91983L22.0548 1.9425C22.0605 1.82999 22.0424 1.71759 22.0018 1.61256L21.5797 1.77561L21.1575 1.93866C21.1524 1.92547 21.1502 1.91133 21.1509 1.89715L21.6028 1.91983ZM23.8357 14.214L23.5481 13.8646L18.8739 17.7117L19.1615 18.0611L19.4491 18.4105L24.1233 14.5635L23.8357 14.214ZM19.1615 18.0611L18.7481 18.2452C19.8086 20.6265 20.9699 22.9617 22.2318 25.2506L22.6281 25.0321L23.0244 24.8136C21.7748 22.5471 20.625 20.2349 19.5749 17.877L19.1615 18.0611ZM22.6281 25.0321L22.9319 25.3674L29.2031 19.6857L28.8993 19.3504L28.5954 19.015L22.3242 24.6967L22.6281 25.0321ZM28.8993 19.3504L29.2112 19.0224L24.2109 14.2667L23.899 14.5947L23.5871 14.9226L28.5874 19.6783L28.8993 19.3504ZM23.899 14.5947L24.2118 14.2676C24.2193 14.2748 24.2408 14.3025 24.2465 14.3479C24.2515 14.3885 24.2406 14.4167 24.2344 14.4281L23.8357 14.214L23.437 14C23.2904 14.2729 23.2973 14.6453 23.5862 14.9217L23.899 14.5947ZM12.8601 9.38698L13.1435 9.73982C13.142 9.74101 13.1499 9.7344 13.1734 9.72406L12.9915 9.30969L12.8096 8.89532C12.7265 8.93178 12.6475 8.97727 12.5767 9.03415L12.8601 9.38698ZM12.9915 9.30969L13.1734 9.72406C13.4784 9.59017 13.8398 9.40378 14.1469 9.16376C14.4454 8.93052 14.7533 8.59937 14.8409 8.1615L14.3971 8.07275L13.9534 7.984C13.9285 8.10836 13.8218 8.26918 13.5896 8.45061C13.3661 8.62524 13.0809 8.77621 12.8096 8.89533L12.9915 9.30969ZM14.3971 8.07275L14.8409 8.1615C14.9263 7.73411 14.7534 7.37076 14.5628 7.10805C14.3744 6.84819 14.1205 6.62122 13.9359 6.4544L13.6325 6.79019L13.3291 7.12597C13.5288 7.30639 13.7074 7.47012 13.8302 7.63944C13.9509 7.80591 13.9681 7.91022 13.9534 7.984L14.3971 8.07275ZM13.6325 6.79019L13.9359 6.4544C13.8886 6.41165 13.8455 6.37274 13.8054 6.33552L13.4975 6.66713L13.1896 6.99875C13.235 7.04093 13.2828 7.08408 13.3291 7.12597L13.6325 6.79019ZM13.4975 6.66713L13.8031 6.3334C12.8026 5.41709 11.7201 4.5948 10.5693 3.8768L10.3298 4.26075L10.0902 4.64469C11.194 5.33333 12.2322 6.12201 13.1919 7.00086L13.4975 6.66713ZM10.3298 4.26075L10.016 3.93462C10.0193 3.93143 10.0229 3.92845 10.0267 3.92572L10.2928 4.29171L10.559 4.6577C10.5889 4.63595 10.6171 4.61226 10.6435 4.58687L10.3298 4.26075ZM10.2928 4.29171V3.83917H10.2085V4.29171V4.74425H10.2928V4.29171ZM10.2085 4.29171L9.90785 3.95346L9.78135 4.06589L10.082 4.40414L10.3826 4.74239L10.5091 4.62996L10.2085 4.29171ZM10.082 4.40414L9.76196 4.08418L9.64953 4.19663L9.96955 4.51659L10.2896 4.83656L10.402 4.72411L10.082 4.40414ZM9.96955 4.51659H9.51701V4.58688H9.96955H10.4221V4.51659H9.96955ZM9.96955 4.58688L9.60112 4.32411C9.53013 4.42364 9.46471 4.52716 9.40525 4.63417L9.80084 4.85395L10.1964 5.07373C10.2393 4.99651 10.2866 4.92169 10.338 4.84965L9.96955 4.58688ZM9.80084 4.85395L9.35152 4.80008C9.34163 4.88255 9.34163 4.96592 9.35152 5.04839L9.80084 4.99452L10.2502 4.94065C10.2489 4.92975 10.2489 4.91872 10.2502 4.90782L9.80084 4.85395ZM9.80084 4.99452H9.3483V5.14914H9.80084H10.2534V4.99452H9.80084ZM9.80084 5.14914L9.36052 5.25357C9.35081 5.21263 9.35081 5.16998 9.36052 5.12903L9.80084 5.23347L10.2412 5.3379C10.264 5.24151 10.264 5.1411 10.2412 5.0447L9.80084 5.14914ZM9.80084 5.23347L9.34918 5.20534C9.3413 5.33173 9.3413 5.45849 9.34918 5.58488L9.80084 5.55675L10.2525 5.52862C10.247 5.4397 10.247 5.35052 10.2525 5.2616L9.80084 5.23347ZM9.80084 5.55675H9.3483V5.65516H9.80084H10.2534V5.55675H9.80084ZM9.80084 5.65516L9.36051 5.55073C9.33766 5.64713 9.33766 5.74752 9.36051 5.84391L9.80084 5.73949L10.2412 5.63507C10.2509 5.676 10.2509 5.71864 10.2412 5.75958L9.80084 5.65516ZM9.80084 5.73949L9.35668 5.82615C9.3841 5.96668 9.42957 6.10302 9.49192 6.23183L9.89925 6.03466L10.3066 5.83749C10.2782 5.7788 10.2575 5.71674 10.245 5.65283L9.80084 5.73949ZM9.89925 6.03466L9.50271 5.81659L9.46066 5.89305L9.8572 6.11112L10.2537 6.32919L10.2958 6.25273L9.89925 6.03466ZM9.8572 6.11112L9.7275 6.54468C9.79148 6.56381 9.85469 6.58602 9.91691 6.61126L10.087 6.19192L10.2572 5.77258C10.1684 5.73656 10.0782 5.70487 9.9869 5.67756L9.8572 6.11112ZM10.087 6.19192L9.9169 6.61126C10.2741 6.75617 10.585 6.99573 10.8162 7.30416L11.1783 7.03274L11.5404 6.76133C11.2105 6.32121 10.7669 5.97936 10.2572 5.77258L10.087 6.19192ZM11.1783 7.03274L10.8521 7.3464C11.188 7.69576 11.5005 8.07561 11.8064 8.46492L12.1622 8.18533L12.5181 7.90575C12.2055 7.50792 11.8714 7.10065 11.5045 6.71908L11.1783 7.03274ZM12.1622 8.18533L11.8426 8.50569C12.1209 8.78336 12.3207 9.12845 12.4234 9.50584L12.8601 9.38698L13.2967 9.26813C13.1526 8.73867 12.8723 8.25454 12.4818 7.86498L12.1622 8.18533ZM8.71844 6.85001L8.95246 7.23734C9.06343 7.1703 9.15417 7.15016 9.23037 7.1492L9.22468 6.6967L9.219 6.24419C8.97203 6.2473 8.72479 6.31745 8.48443 6.46267L8.71844 6.85001ZM9.22468 6.6967L9.00439 7.092L9.00892 7.09453L9.22921 6.69922L9.4495 6.30392L9.44497 6.30139L9.22468 6.6967ZM9.22921 6.69922L9.01162 7.09602C9.18705 7.19222 9.39128 7.22201 9.58693 7.17985L9.49161 6.73746L9.39629 6.29507C9.41348 6.29137 9.43143 6.294 9.44681 6.30243L9.22921 6.69922ZM9.49161 6.73746L9.613 7.17342L9.62397 7.17036L9.50258 6.73441L9.38118 6.29845L9.37021 6.30151L9.49161 6.73746ZM9.50258 6.73441L9.38087 7.17028C9.60887 7.23394 9.83674 7.41888 10.108 7.65511L10.4052 7.31386L10.7024 6.97261C10.4628 6.76394 10.0833 6.42671 9.62428 6.29854L9.50258 6.73441ZM10.4052 7.31386L10.0921 7.64063C10.6452 8.1705 11.1434 8.75478 11.5792 9.38461L11.9513 9.12709L12.3235 8.86958C11.853 8.18974 11.3153 7.55906 10.7183 6.98709L10.4052 7.31386ZM11.9513 9.12709L11.5914 9.40135C11.6426 9.4686 11.68 9.52298 11.7055 9.56921C11.7179 9.5915 11.7255 9.60855 11.7302 9.6209C11.7348 9.63317 11.7354 9.63834 11.7353 9.63738C11.7342 9.62982 11.7348 9.60753 11.7452 9.58689C11.7529 9.57172 11.751 9.58761 11.6972 9.62412L11.9513 9.99859L12.2054 10.3731C12.3484 10.276 12.4731 10.1531 12.5528 9.99563C12.6353 9.83266 12.6534 9.66454 12.6313 9.50938C12.5917 9.23241 12.421 8.99687 12.3113 8.85283L11.9513 9.12709ZM11.9513 9.99859L11.7273 9.60541C11.4593 9.75813 11.1455 9.80981 10.8427 9.7511L10.7566 10.1954L10.6705 10.6396C11.1856 10.7395 11.7195 10.6516 12.1754 10.3918L11.9513 9.99859ZM10.7566 10.1954V9.74283C10.6003 9.74283 10.4506 9.78408 10.3216 9.86765L10.5676 10.2474L10.8137 10.6272C10.8007 10.6357 10.7877 10.6413 10.7763 10.6445C10.765 10.6477 10.7579 10.6479 10.7566 10.6479V10.1954ZM10.5676 10.2474L10.8909 9.9307C10.8479 9.88688 10.7999 9.84772 10.7475 9.81419L10.5036 10.1954L10.2597 10.5766C10.2541 10.573 10.249 10.5689 10.2444 10.5642L10.5676 10.2474ZM10.5036 10.1954L10.7913 9.84608C10.2408 9.39265 9.75908 8.86179 9.36099 8.27008L8.98551 8.52269L8.61004 8.7753C9.05696 9.4396 9.59784 10.0356 10.2158 10.5447L10.5036 10.1954ZM8.98551 8.52269L9.34465 8.24735C9.17795 8.02991 8.98791 7.76751 8.90461 7.53084C8.86436 7.41647 8.86533 7.35142 8.87179 7.32242C8.87414 7.31185 8.87879 7.28186 8.95246 7.23734L8.71844 6.85001L8.48443 6.46267C8.22076 6.62197 8.0497 6.85026 7.98836 7.12565C7.93113 7.3826 7.98042 7.63118 8.05086 7.83132C8.18895 8.22366 8.46979 8.59379 8.62637 8.79803L8.98551 8.52269ZM23.604 2.47835V2.93089H23.8429V2.47835V2.02581H23.604V2.47835Z" fill="#604635" mask="url(#path-1-outside-1_16_541)"/>
</svg>
