<svg width="33" height="34" viewBox="0 0 33 34" fill="none" xmlns="http://www.w3.org/2000/svg">
<path d="M17.7031 0.791016C17.8801 0.748393 18.0849 0.786441 18.2334 0.922852C18.3534 1.00392 18.4543 1.12675 18.4902 1.27734C18.5243 1.42008 18.4958 1.57 18.4004 1.69824L17.2607 32.2803V32.2852C17.25 32.4568 17.173 32.5946 17.0615 32.6904C16.9792 32.8097 16.8551 32.9096 16.7031 32.9424C16.5204 32.9818 16.3324 32.9188 16.1973 32.75V32.749C13.6119 29.5728 10.8722 26.526 7.99121 23.6162C7.9779 23.6328 7.96632 23.6508 7.95117 23.666C7.84568 23.7715 7.70381 23.8332 7.55469 23.8389C7.5436 23.8393 7.53251 23.8391 7.52148 23.8379L2.85449 23.3174V23.3164C2.7126 23.3041 2.57938 23.2434 2.47852 23.1426C2.43143 23.0955 2.39328 23.0412 2.36426 22.9824C2.30634 22.8933 2.27344 22.7878 2.27344 22.6709V22.6621L2.69531 12.2607L2.69629 12.2559C2.70716 12.0819 2.78486 11.9431 2.89746 11.8477C2.92318 11.8017 2.95331 11.7576 2.99121 11.7197C3.09941 11.6116 3.24639 11.5509 3.39941 11.5508H6.33789C6.43204 11.5489 6.51746 11.5682 6.5918 11.6035C6.67693 11.5492 6.77361 11.5195 6.86914 11.5117C10.0932 7.80831 13.5797 4.34196 17.3008 1.13867C17.3751 0.94898 17.5337 0.831954 17.7031 0.791016ZM17.25 2.71582C13.8504 5.70208 10.6561 8.9149 7.68945 12.333L7.68848 12.334C7.62479 12.4067 7.5505 12.4573 7.47168 12.4883C7.32796 15.5217 7.31706 18.5065 7.43848 21.5039C7.48461 21.5225 7.52894 21.5459 7.56934 21.5762C7.57739 21.5822 7.5856 21.5886 7.59277 21.5957C10.6019 24.554 13.4591 27.6623 16.1582 30.9053L17.25 2.71582ZM23.9434 7.66797L24.0674 7.69922L24.0771 7.70215L24.4766 7.87305C26.4568 8.7629 28.1422 10.2055 29.3281 12.0312C30.593 13.9787 31.2282 16.2681 31.1475 18.5889V18.5908C31.0569 20.7176 30.321 22.7662 29.0381 24.4648C27.7551 26.1635 25.9858 27.4318 23.9648 28.1006L23.9629 28.1016C23.7926 28.1564 23.6279 28.133 23.4961 28.0469C23.3703 27.9647 23.2916 27.8366 23.2568 27.707C23.2221 27.5772 23.2265 27.4282 23.2891 27.2939C23.3531 27.1566 23.4728 27.0479 23.6396 26.9971V26.9961C25.4293 26.3998 26.9968 25.2762 28.1357 23.7725C29.2747 22.2685 29.9316 20.4548 30.0205 18.5703C30.096 16.495 29.5349 14.4463 28.4121 12.6992C27.294 10.9597 25.6722 9.60236 23.7637 8.80762C23.748 8.80539 23.7317 8.80429 23.7168 8.79883C23.3702 8.67141 23.2829 8.3267 23.3545 8.07227C23.3907 7.94344 23.4708 7.81617 23.5996 7.7373C23.701 7.67527 23.8198 7.65101 23.9434 7.66797ZM3.44629 22.2246L6.33008 22.5459C6.19014 19.2328 6.18539 15.979 6.31152 12.7061H3.83301L3.44629 22.2246ZM22.8711 14.5615C23.0257 14.5183 23.188 14.5545 23.3281 14.6621C23.834 15.0496 24.2353 15.5572 24.4961 16.1387C24.7569 16.7202 24.8694 17.3576 24.8223 17.9932L24.8213 18C24.7552 18.6187 24.5419 19.2132 24.1992 19.7324C23.8565 20.2516 23.3944 20.6814 22.8516 20.9854L22.8506 20.9834C22.7002 21.0713 22.5389 21.0755 22.4004 21.0234C22.2662 20.9729 22.1578 20.8734 22.0879 20.7607C22.0182 20.6482 21.9761 20.5038 22 20.3545C22.0253 20.1966 22.1212 20.0585 22.2803 19.9707H22.2812C22.6613 19.7645 22.9861 19.469 23.2275 19.1104C23.468 18.7531 23.6193 18.3428 23.668 17.915C23.7014 17.4723 23.6257 17.0277 23.4473 16.6211C23.2685 16.2139 22.9918 15.8573 22.6426 15.582C22.6155 15.5607 22.5955 15.5338 22.5811 15.5049C22.4137 15.2886 22.4369 15.009 22.5479 14.8203C22.615 14.7063 22.7248 14.6024 22.8711 14.5615Z" fill="#604635" stroke="#604635" stroke-width="0.452541" stroke-linejoin="round"/>
<path d="M29.6477 0C20.3328 10.4287 2.5 31.9592 2.5 31.9592L3.30114 33C12.1189 21.8555 30.5 0.978813 30.5 0.978813L29.6477 0Z" fill="#D94423"/>
<path d="M0 3.35232C10.4287 12.6672 31.9592 30.5 31.9592 30.5L33 29.6989C21.8555 20.8811 0.978813 2.5 0.978813 2.5L0 3.35232Z" fill="#D94423"/>
</svg>
