<svg width="28" height="29" viewBox="0 0 28 29" fill="none" xmlns="http://www.w3.org/2000/svg">
<path d="M26.3726 0.225952C26.5256 0.226062 26.6725 0.287631 26.7808 0.395874C26.8103 0.425453 26.8347 0.458859 26.8569 0.49353C26.989 0.590907 27.0767 0.747551 27.0767 0.944702V0.951538C26.808 9.474 26.704 17.992 26.7651 26.5052C26.9438 26.6394 26.9893 26.8811 26.9663 27.0521C26.9359 27.2778 26.772 27.5486 26.4429 27.5638L26.4438 27.5658C18.1381 28.6692 9.71974 28.61 1.43115 27.392C1.27912 27.4559 1.10437 27.4565 0.955566 27.3939C0.765902 27.314 0.620746 27.1332 0.620605 26.8783V26.8685C0.96714 18.3142 0.889621 9.74803 0.388184 1.20154C0.285588 1.09424 0.226115 0.952943 0.226074 0.804077C0.226074 0.650831 0.2877 0.504177 0.395996 0.395874C0.504318 0.287552 0.650973 0.225952 0.804199 0.225952H26.3726ZM13.8843 19.807L13.8833 19.806C13.7359 19.9169 13.5667 19.9452 13.4106 19.89C13.2926 19.8483 13.2018 19.7651 13.1382 19.6703C13.1022 19.6488 13.0669 19.6247 13.0347 19.5951V19.5941L9.81592 16.7699C6.87775 18.7248 4.25973 21.1236 2.05811 23.8832C2.05085 23.898 2.04514 23.914 2.03467 23.9271C1.98762 23.9859 1.93252 24.0317 1.87256 24.0658C1.85064 24.8058 1.82659 25.5457 1.79834 26.2855C9.69014 27.4225 17.6974 27.5003 25.6089 26.5179C25.5664 21.3633 25.5886 16.2103 25.6733 11.059L13.8843 19.807ZM1.55322 1.38123C1.95519 8.32689 2.07549 15.2852 1.91846 22.2396C3.96321 19.8528 6.31844 17.7493 8.92041 15.9838L9.47998 15.6127C9.51561 15.5879 9.55308 15.5677 9.59229 15.5521C9.78497 15.4425 10.0526 15.4258 10.272 15.6176L10.2729 15.6185L13.6147 18.5775L25.52 9.74451C25.5762 9.70069 25.6364 9.66985 25.6978 9.65076C25.7493 6.89376 25.8197 4.13726 25.9077 1.38123H1.55322ZM11.5776 5.54138C12.1962 5.54138 12.7986 5.72933 13.3042 6.07849L13.5142 6.23865L13.522 6.24451V6.24548C13.9819 6.66305 14.3034 7.21122 14.4419 7.81677C14.5804 8.42233 14.5291 9.05625 14.2964 9.6322C14.2941 9.63786 14.2913 9.64335 14.2886 9.6488C13.9674 10.2855 13.4729 10.8182 12.8618 11.1859C12.2508 11.5536 11.5485 11.7413 10.8354 11.7269H10.8345C10.1495 11.7106 9.48994 11.4631 8.96338 11.0248C8.43689 10.5864 8.07433 9.98249 7.93408 9.31189L7.93213 9.3031C7.81953 8.63348 7.90073 7.94553 8.1665 7.32068C8.4325 6.69558 8.87222 6.15905 9.43311 5.77576C9.50098 5.72938 9.58831 5.7245 9.66162 5.76111C9.75872 5.74466 9.85634 5.75823 9.9458 5.79919C10.0093 5.82827 10.063 5.87094 10.1099 5.91931C10.5566 5.67265 11.0612 5.54144 11.5776 5.54138ZM11.4771 6.6908C11.0911 6.71548 10.7214 6.85691 10.4175 7.09607C10.2564 7.22765 10.0659 7.25301 9.8999 7.20837C9.82997 7.18957 9.76551 7.15614 9.70654 7.1156C9.4674 7.35586 9.28307 7.64728 9.16846 7.97009C9.00585 8.42815 8.99205 8.92583 9.12939 9.39197C9.28633 9.8127 9.5897 10.1629 9.98389 10.3783C10.3803 10.5949 10.8417 10.6603 11.2827 10.5629C11.29 10.5613 11.2978 10.5598 11.3052 10.559C11.7581 10.5058 12.1877 10.326 12.5425 10.0394C12.8956 9.75419 13.1604 9.37479 13.3081 8.94568C13.4083 8.57895 13.3918 8.1902 13.2603 7.83337C13.1285 7.47609 12.8886 7.16847 12.5737 6.95447C12.2431 6.75834 11.8608 6.66626 11.4771 6.6908Z" fill="#604635" stroke="#604635" stroke-width="0.452541" stroke-linejoin="round"/>
</svg>
