<svg width="33" height="27" viewBox="0 0 33 27" fill="none" xmlns="http://www.w3.org/2000/svg">
<mask id="path-1-outside-1_14_527" maskUnits="userSpaceOnUse" x="-0.547852" y="-0.547485" width="34" height="28" fill="black">
<rect fill="white" x="-0.547852" y="-0.547485" width="34" height="28"/>
<path fill-rule="evenodd" clip-rule="evenodd" d="M13.2518 9.11508C12.307 9.61687 11.5234 10.3787 10.9952 11.3126C10.4297 12.3125 10.184 13.4615 10.2912 14.6052C10.3983 15.7489 10.8532 16.8323 11.5946 17.7096C12.3361 18.587 13.3284 19.2162 14.4382 19.5126C15.6393 19.8211 16.9045 19.7697 18.0766 19.3648C19.2486 18.9599 20.2759 18.2195 21.0305 17.2355C21.7651 16.3163 22.1927 15.1899 22.2533 14.0148C22.3138 12.8397 22.0041 11.6752 21.3679 10.6854C20.6233 9.61184 19.4972 8.86279 18.2193 8.59103C16.6585 8.20591 15.0231 8.24473 13.4824 8.70348C13.2844 8.76948 13.2196 8.95324 13.2518 9.11508ZM14.0272 9.28234C15.1023 9.01168 16.2226 8.96248 17.3197 9.13922C18.4593 9.24415 19.5273 9.74089 20.3418 10.5448C21.0403 11.2876 21.4805 12.2359 21.597 13.2489C21.7135 14.2618 21.5001 15.2853 20.9884 16.1673C20.4567 17.1096 19.6687 17.8819 18.7158 18.3944C17.7629 18.9069 16.6842 19.1387 15.6049 19.0628C14.5242 18.9693 13.5042 18.5231 12.7019 17.7931C11.8996 17.063 11.3594 16.0896 11.1645 15.0225C10.9696 13.9554 11.1308 12.8538 11.6233 11.8873C12.1157 10.9208 12.9122 10.1429 13.89 9.67335C14.058 9.58337 14.0826 9.42172 14.0272 9.28234Z"/>
<path fill-rule="evenodd" clip-rule="evenodd" d="M5.63888 7.91642C5.34268 7.91607 5.05772 8.02976 4.84311 8.2339C4.6285 8.43804 4.50072 8.71696 4.48627 9.0128C4.47027 9.31932 4.55504 9.62264 4.72763 9.87646C4.90022 10.1303 5.15116 10.3206 5.44209 10.4184C6.46819 10.812 7.91596 10.0811 7.71918 8.87224C7.67829 8.58542 7.53457 8.32323 7.31479 8.13447C7.095 7.94571 6.81411 7.84324 6.52441 7.84614C6.43121 7.84614 6.34182 7.88316 6.27592 7.94906C6.23619 7.9888 6.20696 8.03706 6.19001 8.08956C6.18487 8.07848 6.17921 8.06761 6.173 8.05698C6.12081 7.96751 6.03522 7.90244 5.93505 7.87608C5.83488 7.84972 5.72835 7.86423 5.63888 7.91642ZM6.21335 8.35316L6.21514 8.34608C6.23285 8.37999 6.25572 8.41129 6.28319 8.43876C6.34773 8.5033 6.43337 8.54242 6.52441 8.54895H6.73525L6.81959 8.63328C6.82226 8.66603 6.82226 8.69893 6.81959 8.73168C6.81295 8.75463 6.81295 8.779 6.81959 8.80196V8.92846L6.9742 9.32203V9.42043C6.94894 9.45998 6.91536 9.49355 6.87581 9.51882H6.77742L6.55252 9.60316C6.4039 9.6313 6.25133 9.6313 6.10272 9.60316C6.0104 9.59482 5.92013 9.57106 5.83566 9.53288C5.70982 9.43958 5.62037 9.3054 5.58265 9.15336C5.58129 9.12995 5.58129 9.10649 5.58265 9.08308V8.94252H5.68104C5.77424 8.94252 5.86362 8.9055 5.92952 8.8396C5.99542 8.77369 6.03245 8.68431 6.03245 8.59112C6.12192 8.53892 6.18699 8.45333 6.21335 8.35316Z"/>
<path d="M28.1848 8.98463H24.6145C24.5213 8.98463 24.432 8.94761 24.3661 8.88171C24.3002 8.81581 24.2631 8.72643 24.2631 8.63323C24.2631 8.54003 24.3002 8.45065 24.3661 8.38475C24.432 8.31885 24.5213 8.28183 24.6145 8.28183H28.1848C28.6346 8.29588 28.6346 8.98463 28.1848 8.98463Z"/>
<path d="M19.5122 5.28771C16.701 5.10029 13.8898 5.03938 11.0785 5.10498C10.9853 5.10498 10.896 5.06795 10.8301 5.00205C10.7642 4.93615 10.7271 4.84677 10.7271 4.75357C10.7271 4.66037 10.7642 4.57099 10.8301 4.50509C10.896 4.43919 10.9853 4.40217 11.0785 4.40217C13.8898 4.3272 16.701 4.38811 19.5122 4.5849C19.962 4.61301 19.962 5.28771 19.5122 5.28771Z"/>
<path fill-rule="evenodd" clip-rule="evenodd" d="M7.73309 0.452515L21.0302 0.593076C21.2424 0.599706 21.3544 0.756455 21.3664 0.920226L26.1043 4.62691V4.61286C26.1687 4.67854 26.2048 4.76686 26.2048 4.85884C26.2048 4.87949 26.203 4.89996 26.1994 4.92003C27.8851 4.90953 29.5698 4.82594 31.2489 4.66941C31.6762 4.62935 31.6975 5.29984 31.3128 5.36684C31.1545 11.725 31.5471 18.0851 32.4863 24.3759V24.3478C32.5485 24.7331 31.9731 24.9316 31.8391 24.6612C31.802 24.6766 31.7599 24.6853 31.713 24.6853C21.4546 25.9216 11.1156 26.3587 0.789495 25.9925C0.403853 25.9805 0.34885 25.4725 0.624483 25.3278C0.604307 25.2781 0.592702 25.2229 0.592702 25.1632C1.6167 18.4003 1.57876 11.519 0.480251 4.76777C0.450659 4.5843 0.565602 4.4432 0.708612 4.37488C0.721174 4.3562 0.73559 4.33864 0.751741 4.32249C0.817641 4.25659 0.907017 4.21957 1.00022 4.21957H5.11184C5.11407 4.21484 5.11639 4.21016 5.11882 4.20552C5.72542 2.95386 6.45027 1.76305 7.28346 0.649316C7.3328 0.572205 7.40929 0.51642 7.49778 0.492995C7.52971 0.484544 7.56236 0.480526 7.59486 0.480843C7.63813 0.462328 7.68511 0.452515 7.73309 0.452515ZM6.45399 4.21957H5.89576C6.43433 3.14753 7.06223 2.12263 7.77286 1.15574L20.7667 1.2931C20.784 1.32542 20.8064 1.35477 20.8333 1.37994L25.3609 4.91923C24.9293 4.91572 24.4977 4.90741 24.0662 4.89431C23.6164 4.89431 23.6164 5.569 24.0662 5.59712C26.2487 5.66337 28.4329 5.607 30.6087 5.42833C30.4791 10.9271 30.759 16.4267 31.4457 21.8818C31.394 21.8485 31.3285 21.8293 31.2489 21.8317C21.5782 22.394 11.8983 22.6751 2.20891 22.6751C2.11571 22.6751 2.02632 22.7121 1.96042 22.778C1.89452 22.8439 1.8575 22.9333 1.8575 23.0265C1.8575 23.1197 1.89452 23.2091 1.96042 23.275C2.02632 23.3409 2.11571 23.3779 2.20891 23.3779C11.8889 23.3779 21.5689 23.0968 31.2489 22.5346C31.3679 22.5346 31.4563 22.4844 31.5136 22.4108C31.5821 22.9347 31.6544 23.4582 31.7304 23.9812C31.7247 23.9815 31.7189 23.9819 31.713 23.9825C21.6148 25.1995 11.4386 25.642 1.27341 25.3063C2.29526 18.5478 2.27336 11.6731 1.20902 4.92237H6.45399C6.54719 4.92237 6.63657 4.88535 6.70247 4.81945C6.76838 4.75355 6.80539 4.66417 6.80539 4.57097C6.80539 4.47777 6.76838 4.38839 6.70247 4.32249C6.63657 4.25659 6.54719 4.21957 6.45399 4.21957Z"/>
</mask>
<path fill-rule="evenodd" clip-rule="evenodd" d="M13.2518 9.11508C12.307 9.61687 11.5234 10.3787 10.9952 11.3126C10.4297 12.3125 10.184 13.4615 10.2912 14.6052C10.3983 15.7489 10.8532 16.8323 11.5946 17.7096C12.3361 18.587 13.3284 19.2162 14.4382 19.5126C15.6393 19.8211 16.9045 19.7697 18.0766 19.3648C19.2486 18.9599 20.2759 18.2195 21.0305 17.2355C21.7651 16.3163 22.1927 15.1899 22.2533 14.0148C22.3138 12.8397 22.0041 11.6752 21.3679 10.6854C20.6233 9.61184 19.4972 8.86279 18.2193 8.59103C16.6585 8.20591 15.0231 8.24473 13.4824 8.70348C13.2844 8.76948 13.2196 8.95324 13.2518 9.11508ZM14.0272 9.28234C15.1023 9.01168 16.2226 8.96248 17.3197 9.13922C18.4593 9.24415 19.5273 9.74089 20.3418 10.5448C21.0403 11.2876 21.4805 12.2359 21.597 13.2489C21.7135 14.2618 21.5001 15.2853 20.9884 16.1673C20.4567 17.1096 19.6687 17.8819 18.7158 18.3944C17.7629 18.9069 16.6842 19.1387 15.6049 19.0628C14.5242 18.9693 13.5042 18.5231 12.7019 17.7931C11.8996 17.063 11.3594 16.0896 11.1645 15.0225C10.9696 13.9554 11.1308 12.8538 11.6233 11.8873C12.1157 10.9208 12.9122 10.1429 13.89 9.67335C14.058 9.58337 14.0826 9.42172 14.0272 9.28234Z" fill="#604635"/>
<path fill-rule="evenodd" clip-rule="evenodd" d="M5.63888 7.91642C5.34268 7.91607 5.05772 8.02976 4.84311 8.2339C4.6285 8.43804 4.50072 8.71696 4.48627 9.0128C4.47027 9.31932 4.55504 9.62264 4.72763 9.87646C4.90022 10.1303 5.15116 10.3206 5.44209 10.4184C6.46819 10.812 7.91596 10.0811 7.71918 8.87224C7.67829 8.58542 7.53457 8.32323 7.31479 8.13447C7.095 7.94571 6.81411 7.84324 6.52441 7.84614C6.43121 7.84614 6.34182 7.88316 6.27592 7.94906C6.23619 7.9888 6.20696 8.03706 6.19001 8.08956C6.18487 8.07848 6.17921 8.06761 6.173 8.05698C6.12081 7.96751 6.03522 7.90244 5.93505 7.87608C5.83488 7.84972 5.72835 7.86423 5.63888 7.91642ZM6.21335 8.35316L6.21514 8.34608C6.23285 8.37999 6.25572 8.41129 6.28319 8.43876C6.34773 8.5033 6.43337 8.54242 6.52441 8.54895H6.73525L6.81959 8.63328C6.82226 8.66603 6.82226 8.69893 6.81959 8.73168C6.81295 8.75463 6.81295 8.779 6.81959 8.80196V8.92846L6.9742 9.32203V9.42043C6.94894 9.45998 6.91536 9.49355 6.87581 9.51882H6.77742L6.55252 9.60316C6.4039 9.6313 6.25133 9.6313 6.10272 9.60316C6.0104 9.59482 5.92013 9.57106 5.83566 9.53288C5.70982 9.43958 5.62037 9.3054 5.58265 9.15336C5.58129 9.12995 5.58129 9.10649 5.58265 9.08308V8.94252H5.68104C5.77424 8.94252 5.86362 8.9055 5.92952 8.8396C5.99542 8.77369 6.03245 8.68431 6.03245 8.59112C6.12192 8.53892 6.18699 8.45333 6.21335 8.35316Z" fill="#604635"/>
<path d="M28.1848 8.98463H24.6145C24.5213 8.98463 24.432 8.94761 24.3661 8.88171C24.3002 8.81581 24.2631 8.72643 24.2631 8.63323C24.2631 8.54003 24.3002 8.45065 24.3661 8.38475C24.432 8.31885 24.5213 8.28183 24.6145 8.28183H28.1848C28.6346 8.29588 28.6346 8.98463 28.1848 8.98463Z" fill="#604635"/>
<path d="M19.5122 5.28771C16.701 5.10029 13.8898 5.03938 11.0785 5.10498C10.9853 5.10498 10.896 5.06795 10.8301 5.00205C10.7642 4.93615 10.7271 4.84677 10.7271 4.75357C10.7271 4.66037 10.7642 4.57099 10.8301 4.50509C10.896 4.43919 10.9853 4.40217 11.0785 4.40217C13.8898 4.3272 16.701 4.38811 19.5122 4.5849C19.962 4.61301 19.962 5.28771 19.5122 5.28771Z" fill="#604635"/>
<path fill-rule="evenodd" clip-rule="evenodd" d="M7.73309 0.452515L21.0302 0.593076C21.2424 0.599706 21.3544 0.756455 21.3664 0.920226L26.1043 4.62691V4.61286C26.1687 4.67854 26.2048 4.76686 26.2048 4.85884C26.2048 4.87949 26.203 4.89996 26.1994 4.92003C27.8851 4.90953 29.5698 4.82594 31.2489 4.66941C31.6762 4.62935 31.6975 5.29984 31.3128 5.36684C31.1545 11.725 31.5471 18.0851 32.4863 24.3759V24.3478C32.5485 24.7331 31.9731 24.9316 31.8391 24.6612C31.802 24.6766 31.7599 24.6853 31.713 24.6853C21.4546 25.9216 11.1156 26.3587 0.789495 25.9925C0.403853 25.9805 0.34885 25.4725 0.624483 25.3278C0.604307 25.2781 0.592702 25.2229 0.592702 25.1632C1.6167 18.4003 1.57876 11.519 0.480251 4.76777C0.450659 4.5843 0.565602 4.4432 0.708612 4.37488C0.721174 4.3562 0.73559 4.33864 0.751741 4.32249C0.817641 4.25659 0.907017 4.21957 1.00022 4.21957H5.11184C5.11407 4.21484 5.11639 4.21016 5.11882 4.20552C5.72542 2.95386 6.45027 1.76305 7.28346 0.649316C7.3328 0.572205 7.40929 0.51642 7.49778 0.492995C7.52971 0.484544 7.56236 0.480526 7.59486 0.480843C7.63813 0.462328 7.68511 0.452515 7.73309 0.452515ZM6.45399 4.21957H5.89576C6.43433 3.14753 7.06223 2.12263 7.77286 1.15574L20.7667 1.2931C20.784 1.32542 20.8064 1.35477 20.8333 1.37994L25.3609 4.91923C24.9293 4.91572 24.4977 4.90741 24.0662 4.89431C23.6164 4.89431 23.6164 5.569 24.0662 5.59712C26.2487 5.66337 28.4329 5.607 30.6087 5.42833C30.4791 10.9271 30.759 16.4267 31.4457 21.8818C31.394 21.8485 31.3285 21.8293 31.2489 21.8317C21.5782 22.394 11.8983 22.6751 2.20891 22.6751C2.11571 22.6751 2.02632 22.7121 1.96042 22.778C1.89452 22.8439 1.8575 22.9333 1.8575 23.0265C1.8575 23.1197 1.89452 23.2091 1.96042 23.275C2.02632 23.3409 2.11571 23.3779 2.20891 23.3779C11.8889 23.3779 21.5689 23.0968 31.2489 22.5346C31.3679 22.5346 31.4563 22.4844 31.5136 22.4108C31.5821 22.9347 31.6544 23.4582 31.7304 23.9812C31.7247 23.9815 31.7189 23.9819 31.713 23.9825C21.6148 25.1995 11.4386 25.642 1.27341 25.3063C2.29526 18.5478 2.27336 11.6731 1.20902 4.92237H6.45399C6.54719 4.92237 6.63657 4.88535 6.70247 4.81945C6.76838 4.75355 6.80539 4.66417 6.80539 4.57097C6.80539 4.47777 6.76838 4.38839 6.70247 4.32249C6.63657 4.25659 6.54719 4.21957 6.45399 4.21957Z" fill="#604635"/>
<path fill-rule="evenodd" clip-rule="evenodd" d="M13.2518 9.11508C12.307 9.61687 11.5234 10.3787 10.9952 11.3126C10.4297 12.3125 10.184 13.4615 10.2912 14.6052C10.3983 15.7489 10.8532 16.8323 11.5946 17.7096C12.3361 18.587 13.3284 19.2162 14.4382 19.5126C15.6393 19.8211 16.9045 19.7697 18.0766 19.3648C19.2486 18.9599 20.2759 18.2195 21.0305 17.2355C21.7651 16.3163 22.1927 15.1899 22.2533 14.0148C22.3138 12.8397 22.0041 11.6752 21.3679 10.6854C20.6233 9.61184 19.4972 8.86279 18.2193 8.59103C16.6585 8.20591 15.0231 8.24473 13.4824 8.70348C13.2844 8.76948 13.2196 8.95324 13.2518 9.11508ZM14.0272 9.28234C15.1023 9.01168 16.2226 8.96248 17.3197 9.13922C18.4593 9.24415 19.5273 9.74089 20.3418 10.5448C21.0403 11.2876 21.4805 12.2359 21.597 13.2489C21.7135 14.2618 21.5001 15.2853 20.9884 16.1673C20.4567 17.1096 19.6687 17.8819 18.7158 18.3944C17.7629 18.9069 16.6842 19.1387 15.6049 19.0628C14.5242 18.9693 13.5042 18.5231 12.7019 17.7931C11.8996 17.063 11.3594 16.0896 11.1645 15.0225C10.9696 13.9554 11.1308 12.8538 11.6233 11.8873C12.1157 10.9208 12.9122 10.1429 13.89 9.67335C14.058 9.58337 14.0826 9.42172 14.0272 9.28234Z" stroke="#604635" stroke-width="0.905082" stroke-linejoin="round" mask="url(#path-1-outside-1_14_527)"/>
<path fill-rule="evenodd" clip-rule="evenodd" d="M5.63888 7.91642C5.34268 7.91607 5.05772 8.02976 4.84311 8.2339C4.6285 8.43804 4.50072 8.71696 4.48627 9.0128C4.47027 9.31932 4.55504 9.62264 4.72763 9.87646C4.90022 10.1303 5.15116 10.3206 5.44209 10.4184C6.46819 10.812 7.91596 10.0811 7.71918 8.87224C7.67829 8.58542 7.53457 8.32323 7.31479 8.13447C7.095 7.94571 6.81411 7.84324 6.52441 7.84614C6.43121 7.84614 6.34182 7.88316 6.27592 7.94906C6.23619 7.9888 6.20696 8.03706 6.19001 8.08956C6.18487 8.07848 6.17921 8.06761 6.173 8.05698C6.12081 7.96751 6.03522 7.90244 5.93505 7.87608C5.83488 7.84972 5.72835 7.86423 5.63888 7.91642ZM6.21335 8.35316L6.21514 8.34608C6.23285 8.37999 6.25572 8.41129 6.28319 8.43876C6.34773 8.5033 6.43337 8.54242 6.52441 8.54895H6.73525L6.81959 8.63328C6.82226 8.66603 6.82226 8.69893 6.81959 8.73168C6.81295 8.75463 6.81295 8.779 6.81959 8.80196V8.92846L6.9742 9.32203V9.42043C6.94894 9.45998 6.91536 9.49355 6.87581 9.51882H6.77742L6.55252 9.60316C6.4039 9.6313 6.25133 9.6313 6.10272 9.60316C6.0104 9.59482 5.92013 9.57106 5.83566 9.53288C5.70982 9.43958 5.62037 9.3054 5.58265 9.15336C5.58129 9.12995 5.58129 9.10649 5.58265 9.08308V8.94252H5.68104C5.77424 8.94252 5.86362 8.9055 5.92952 8.8396C5.99542 8.77369 6.03245 8.68431 6.03245 8.59112C6.12192 8.53892 6.18699 8.45333 6.21335 8.35316Z" stroke="#604635" stroke-width="0.905082" stroke-linejoin="round" mask="url(#path-1-outside-1_14_527)"/>
<path d="M28.1848 8.98463H24.6145C24.5213 8.98463 24.432 8.94761 24.3661 8.88171C24.3002 8.81581 24.2631 8.72643 24.2631 8.63323C24.2631 8.54003 24.3002 8.45065 24.3661 8.38475C24.432 8.31885 24.5213 8.28183 24.6145 8.28183H28.1848C28.6346 8.29588 28.6346 8.98463 28.1848 8.98463Z" stroke="#604635" stroke-width="0.905082" stroke-linejoin="round" mask="url(#path-1-outside-1_14_527)"/>
<path d="M19.5122 5.28771C16.701 5.10029 13.8898 5.03938 11.0785 5.10498C10.9853 5.10498 10.896 5.06795 10.8301 5.00205C10.7642 4.93615 10.7271 4.84677 10.7271 4.75357C10.7271 4.66037 10.7642 4.57099 10.8301 4.50509C10.896 4.43919 10.9853 4.40217 11.0785 4.40217C13.8898 4.3272 16.701 4.38811 19.5122 4.5849C19.962 4.61301 19.962 5.28771 19.5122 5.28771Z" stroke="#604635" stroke-width="0.905082" stroke-linejoin="round" mask="url(#path-1-outside-1_14_527)"/>
<path fill-rule="evenodd" clip-rule="evenodd" d="M7.73309 0.452515L21.0302 0.593076C21.2424 0.599706 21.3544 0.756455 21.3664 0.920226L26.1043 4.62691V4.61286C26.1687 4.67854 26.2048 4.76686 26.2048 4.85884C26.2048 4.87949 26.203 4.89996 26.1994 4.92003C27.8851 4.90953 29.5698 4.82594 31.2489 4.66941C31.6762 4.62935 31.6975 5.29984 31.3128 5.36684C31.1545 11.725 31.5471 18.0851 32.4863 24.3759V24.3478C32.5485 24.7331 31.9731 24.9316 31.8391 24.6612C31.802 24.6766 31.7599 24.6853 31.713 24.6853C21.4546 25.9216 11.1156 26.3587 0.789495 25.9925C0.403853 25.9805 0.34885 25.4725 0.624483 25.3278C0.604307 25.2781 0.592702 25.2229 0.592702 25.1632C1.6167 18.4003 1.57876 11.519 0.480251 4.76777C0.450659 4.5843 0.565602 4.4432 0.708612 4.37488C0.721174 4.3562 0.73559 4.33864 0.751741 4.32249C0.817641 4.25659 0.907017 4.21957 1.00022 4.21957H5.11184C5.11407 4.21484 5.11639 4.21016 5.11882 4.20552C5.72542 2.95386 6.45027 1.76305 7.28346 0.649316C7.3328 0.572205 7.40929 0.51642 7.49778 0.492995C7.52971 0.484544 7.56236 0.480526 7.59486 0.480843C7.63813 0.462328 7.68511 0.452515 7.73309 0.452515ZM6.45399 4.21957H5.89576C6.43433 3.14753 7.06223 2.12263 7.77286 1.15574L20.7667 1.2931C20.784 1.32542 20.8064 1.35477 20.8333 1.37994L25.3609 4.91923C24.9293 4.91572 24.4977 4.90741 24.0662 4.89431C23.6164 4.89431 23.6164 5.569 24.0662 5.59712C26.2487 5.66337 28.4329 5.607 30.6087 5.42833C30.4791 10.9271 30.759 16.4267 31.4457 21.8818C31.394 21.8485 31.3285 21.8293 31.2489 21.8317C21.5782 22.394 11.8983 22.6751 2.20891 22.6751C2.11571 22.6751 2.02632 22.7121 1.96042 22.778C1.89452 22.8439 1.8575 22.9333 1.8575 23.0265C1.8575 23.1197 1.89452 23.2091 1.96042 23.275C2.02632 23.3409 2.11571 23.3779 2.20891 23.3779C11.8889 23.3779 21.5689 23.0968 31.2489 22.5346C31.3679 22.5346 31.4563 22.4844 31.5136 22.4108C31.5821 22.9347 31.6544 23.4582 31.7304 23.9812C31.7247 23.9815 31.7189 23.9819 31.713 23.9825C21.6148 25.1995 11.4386 25.642 1.27341 25.3063C2.29526 18.5478 2.27336 11.6731 1.20902 4.92237H6.45399C6.54719 4.92237 6.63657 4.88535 6.70247 4.81945C6.76838 4.75355 6.80539 4.66417 6.80539 4.57097C6.80539 4.47777 6.76838 4.38839 6.70247 4.32249C6.63657 4.25659 6.54719 4.21957 6.45399 4.21957Z" stroke="#604635" stroke-width="0.905082" stroke-linejoin="round" mask="url(#path-1-outside-1_14_527)"/>
</svg>
