<svg width="33" height="32" viewBox="0 0 33 32" fill="none" xmlns="http://www.w3.org/2000/svg">
<path d="M19.6548 0.314819C19.7841 0.22875 19.946 0.201355 20.1157 0.250366C22.9983 1.08108 25.6684 2.51723 27.9487 4.45935L28.3999 4.85486L28.4077 4.86169H28.4067C30.7864 7.21239 32.1784 10.3832 32.2974 13.726L32.3159 14.2689C32.3682 16.981 31.7912 19.671 30.6265 22.1263C29.384 24.7455 27.5117 27.016 25.1772 28.7347L25.1733 28.7377C22.7356 30.4528 19.8462 31.4113 16.8667 31.4926C13.8907 31.5737 10.9567 30.7756 8.43115 29.1996L7.92334 28.9047C5.40848 27.3944 3.26676 25.332 1.66162 22.8705C1.65627 22.8623 1.65122 22.8539 1.64697 22.8451C0.297302 20.0204 -0.1046 16.8351 0.501465 13.764C1.26706 7.9512 4.76554 2.0701 10.9458 0.920288C11.0118 0.908005 11.0796 0.92624 11.1313 0.969116C11.1323 0.969949 11.1333 0.971198 11.1343 0.972046C11.3933 1.00392 11.5708 1.20711 11.6284 1.4115C11.6644 1.53951 11.6624 1.69029 11.5933 1.82458C11.5386 1.93069 11.4495 2.01212 11.3345 2.05994L11.2114 2.09607C4.65197 3.31739 1.61216 10.0997 1.4585 16.2728V16.2865H1.45752C1.33012 17.7524 1.50909 19.2293 1.98291 20.6224C2.45649 22.0148 3.21453 23.2935 4.2085 24.3773C6.11337 26.4084 8.38632 28.0599 10.9067 29.2435L11.3872 29.4359C13.8061 30.3526 16.4343 30.5865 18.9829 30.1068C21.7014 29.5951 24.2091 28.2936 26.1929 26.3656L26.5513 26.0082C28.3107 24.196 29.6281 21.999 30.397 19.5883C31.2164 17.0189 31.3868 14.2865 30.894 11.6351L30.772 11.1254C29.3985 5.93732 24.7586 2.95691 19.8022 1.37244H19.8013C19.4432 1.25692 19.347 0.912813 19.4165 0.653687C19.4513 0.523824 19.5306 0.397469 19.6548 0.314819ZM11.5288 8.58923C11.5953 8.58927 11.6597 8.60349 11.7212 8.62537C11.7802 8.639 11.8383 8.66185 11.8911 8.69373C13.3287 9.56115 14.704 10.5283 16.0073 11.5863C17.4188 10.8267 18.7672 9.95549 20.0386 8.97888C20.0458 8.97062 20.0533 8.96235 20.061 8.95447L20.0659 8.94958C20.176 8.84399 20.3225 8.78459 20.4751 8.78455C20.6237 8.78455 20.7664 8.84131 20.8755 8.94177H20.8765L23.5054 11.2191L23.5122 11.225H23.5112C23.5672 11.2775 23.6124 11.3409 23.6431 11.4115C23.6736 11.4821 23.6899 11.559 23.6899 11.6361C23.6899 11.7131 23.6736 11.7892 23.6431 11.8597C23.6246 11.9025 23.599 11.9412 23.5708 11.9779C23.5437 12.0636 23.4981 12.143 23.4341 12.2084C23.4292 12.2134 23.4238 12.2185 23.4185 12.223C22.187 13.2618 21.0102 14.3642 19.8931 15.5248C20.9671 16.7234 21.9952 18.0562 22.9604 19.3099L23.0435 19.4183L23.0708 19.4633C23.1296 19.5936 23.1378 19.7413 23.0942 19.8773C23.0761 19.9338 23.0488 19.9859 23.0151 20.0336C22.9987 20.1565 22.9457 20.2721 22.8579 20.3617C22.8541 20.3656 22.8503 20.3698 22.8462 20.3734L20.231 22.6781L20.23 22.6771C20.123 22.7777 19.9826 22.8353 19.8354 22.8353C19.6895 22.8353 19.5496 22.7792 19.4429 22.6801V22.681C19.4409 22.6793 19.439 22.6769 19.437 22.6752C19.4352 22.6734 19.433 22.6721 19.4312 22.6703V22.6693C19.3763 22.6196 19.3313 22.5598 19.3003 22.4926C19.2894 22.4689 19.2813 22.4442 19.2739 22.4193C18.4962 21.2472 17.5837 20.1711 16.5581 19.2094C15.234 20.0543 13.9802 21.0049 12.811 22.0541C12.7821 22.1237 12.7424 22.1881 12.689 22.2416C12.6305 22.3 12.5603 22.3454 12.4829 22.3744C12.4054 22.4033 12.3223 22.4154 12.2397 22.4095C12.1573 22.4037 12.077 22.3807 12.0044 22.3412C11.934 22.3028 11.8726 22.2493 11.8237 22.1859V22.1869L9.54639 19.3754V19.3744C9.45329 19.2671 9.40099 19.1302 9.40088 18.9877C9.40088 18.9338 9.41012 18.8806 9.42432 18.8295C9.41969 18.6853 9.47112 18.5408 9.59229 18.4242L13.0181 15.0892C12.0918 13.8474 10.8967 12.8281 9.51904 12.1107V12.1097C9.34065 12.019 9.24987 11.8682 9.22998 11.7103C9.14878 11.6362 9.08966 11.5399 9.06104 11.432C9.0221 11.2849 9.04291 11.1284 9.11865 10.9965L9.12354 10.9867H9.12451C9.60243 10.2402 10.1835 9.56601 10.8501 8.98376L11.1411 8.73962C11.2471 8.64353 11.3851 8.58923 11.5288 8.58923ZM11.5884 9.86658C11.3507 10.0721 11.126 10.2923 10.9175 10.5277L10.9087 10.5385L10.9077 10.5375C10.8345 10.6108 10.7683 10.691 10.7085 10.7758C10.7034 10.7829 10.6978 10.7897 10.6919 10.7963L10.5767 10.9222L10.5112 11.015L10.5063 11.0219C10.4503 11.0947 10.3943 11.1701 10.3394 11.2465C11.9131 12.1271 13.2616 13.3622 14.2769 14.8558C14.3799 14.999 14.4033 15.1616 14.356 15.3099C14.3161 15.4348 14.2303 15.5322 14.1333 15.601C14.1209 15.615 14.11 15.6307 14.0962 15.6439L14.0952 15.6429L10.6919 18.9564L12.3032 20.9594C13.5444 19.868 14.8722 18.8786 16.2749 18.0033C16.4184 17.9095 16.5745 17.8947 16.7153 17.9369C16.8265 17.95 16.9341 17.9966 17.0269 18.0804H17.0278C18.1308 19.0648 19.1132 20.1748 19.9595 21.3851L21.8374 19.7201C20.8957 18.4572 19.91 17.2385 18.8687 16.0648C18.8217 16.055 18.7777 16.0322 18.7446 15.9945C18.609 15.8395 18.5755 15.6551 18.6108 15.4906C18.5874 15.3311 18.6315 15.1606 18.7622 15.0179L18.7651 15.015C19.8772 13.8404 21.0522 12.7273 22.2847 11.6801L20.4546 10.1029C19.1159 11.1127 17.6963 12.011 16.2085 12.7855L16.2075 12.7845C15.9982 12.9034 15.7832 12.8548 15.6313 12.7484C15.5802 12.7268 15.5307 12.6992 15.4849 12.6625L15.481 12.6595C14.2542 11.6335 12.9524 10.7009 11.5884 9.86658ZM16.104 0.466187C16.2572 0.466236 16.4039 0.527838 16.5122 0.636108C16.6204 0.744394 16.6811 0.891106 16.6812 1.04431C16.6812 1.1975 16.6204 1.34422 16.5122 1.45251C16.4039 1.5608 16.2572 1.62239 16.104 1.62244C15.9508 1.62244 15.8041 1.5608 15.6958 1.45251C15.5875 1.34421 15.5259 1.19756 15.5259 1.04431C15.5259 0.891063 15.5875 0.744403 15.6958 0.636108C15.8041 0.527853 15.9508 0.466187 16.104 0.466187Z" fill="#604635" stroke="#604635" stroke-width="0.452541" stroke-linejoin="round"/>
</svg>
