<svg width="28" height="31" viewBox="0 0 28 31" fill="none" xmlns="http://www.w3.org/2000/svg">
<path d="M13.8853 0.37085C14.1867 0.117683 14.5405 0.238822 14.7251 0.446045C19.309 3.3924 23.3041 7.16545 26.5073 11.573C26.554 11.587 26.5961 11.6157 26.6255 11.656C26.7389 11.8114 26.7635 11.9886 26.7036 12.1482C26.6665 12.2472 26.5994 12.3257 26.522 12.3865C26.1602 17.9498 26.4768 23.5369 27.4663 29.0242H27.4653C27.5143 29.2833 27.3938 29.4932 27.2241 29.6101C27.0876 29.7041 26.904 29.748 26.7319 29.7058C26.6841 29.7173 26.6343 29.7263 26.5825 29.7263H26.5728V29.7253C18.1612 29.3617 9.7362 29.4596 1.33545 30.0173C1.24039 30.2535 1.01072 30.3755 0.79541 30.3777C0.661317 30.379 0.519131 30.3365 0.407715 30.2371C0.292202 30.1339 0.226109 29.9844 0.226074 29.8093V29.7976H0.227051C0.526588 23.891 0.577921 17.9844 0.381348 12.0779C0.375753 11.8988 0.445447 11.7473 0.563965 11.6453C0.65145 11.5701 0.757405 11.5285 0.862793 11.5134L13.8833 0.371826L13.8853 0.37085ZM1.55811 12.8533C1.70801 18.1946 1.66384 23.5281 1.42529 28.8542C4.152 28.6747 6.88132 28.5454 9.61182 28.4626C9.58072 28.396 9.56239 28.321 9.56006 28.239C9.39003 26.1749 9.47483 24.0977 9.81299 22.0544C9.8952 20.4314 10.6137 18.9057 11.812 17.8074L11.8345 17.7888C12.4396 17.3633 13.1792 17.1736 13.9146 17.2546C14.6499 17.3357 15.3307 17.682 15.8286 18.2292C15.8322 18.2331 15.8351 18.2378 15.8384 18.2419C16.8777 19.558 17.4826 21.1633 17.5718 22.8376C17.8848 24.6625 18.0537 26.5089 18.0776 28.3601C20.7914 28.3773 23.505 28.4426 26.2173 28.5554C25.3112 23.274 25.0218 17.9051 25.355 12.5564L1.55811 12.8533ZM13.6265 18.4246C12.7049 18.3813 12.1063 18.9358 11.6909 19.7449C11.2735 20.558 11.0697 21.5787 10.936 22.3523L10.937 22.3533C10.6247 24.2726 10.5477 26.2231 10.7065 28.1609C10.7106 28.1756 10.7134 28.1909 10.7144 28.2068C10.7147 28.2116 10.7142 28.2166 10.7144 28.2214H10.7153V28.2771C10.7153 28.2817 10.7136 28.2863 10.7134 28.2908C10.7132 28.2925 10.7135 28.2949 10.7134 28.2966C10.7122 28.3109 10.7083 28.3243 10.7046 28.3376C10.6992 28.371 10.692 28.4023 10.6812 28.4324C12.7608 28.379 14.8411 28.3524 16.9214 28.3552C16.8915 26.3336 16.6879 24.3182 16.3101 22.3318V22.3308C16.1545 21.5387 15.9588 20.5738 15.5532 19.7947C15.1522 19.0246 14.5654 18.4687 13.6265 18.4246ZM2.45264 11.6873L24.9917 11.405C22.018 7.53504 18.4032 4.20053 14.3003 1.54956L2.45264 11.6873Z" fill="#604635" stroke="#604635" stroke-width="0.452541" stroke-linejoin="round"/>
</svg>
