<svg width="33" height="32" viewBox="0 0 33 32" fill="none" xmlns="http://www.w3.org/2000/svg">
<mask id="path-1-outside-1_14_529" maskUnits="userSpaceOnUse" x="-0.547363" y="-0.547363" width="34" height="32" fill="black">
<rect fill="white" x="-0.547363" y="-0.547363" width="34" height="32"/>
<path fill-rule="evenodd" clip-rule="evenodd" d="M15.2831 11.8727C14.7236 12.1206 14.2072 12.4585 13.7551 12.8741C13.1868 13.3965 12.7321 14.0302 12.4194 14.7359C12.1993 15.4559 12.2171 16.2276 12.4703 16.9366C12.7235 17.6456 13.1986 18.2541 13.825 18.6716C14.4681 19.0654 15.2155 19.2547 15.9684 19.2145C16.7213 19.1743 17.4443 18.9066 18.0419 18.4467C18.6306 17.9799 19.0751 17.3559 19.3238 16.6469C19.5726 15.938 19.6154 15.1731 19.4475 14.4408C19.0539 12.7821 17.3531 10.9548 15.4977 11.4609C15.4167 11.4922 15.3501 11.5524 15.3109 11.6299C15.2728 11.705 15.263 11.7912 15.2831 11.8727ZM16.1862 12.0767C17.3723 12.1068 18.3553 13.3042 18.6885 14.3283C18.8818 14.9262 18.8998 15.5669 18.7404 16.1748C18.581 16.7826 18.2508 17.332 17.7889 17.758C17.3338 18.1685 16.7642 18.4302 16.1562 18.5081C15.5483 18.586 14.9311 18.4763 14.3873 18.1937C13.8505 17.9029 13.423 17.4451 13.1694 16.8898C12.9158 16.3344 12.8499 15.7116 12.9817 15.1155C13.319 13.7098 14.7949 12.9227 16.0178 12.3042C16.1256 12.2485 16.1764 12.1651 16.1862 12.0767Z"/>
<path fill-rule="evenodd" clip-rule="evenodd" d="M17.934 0.497476H13.6705C13.5773 0.497476 13.4879 0.534493 13.422 0.600394C13.3561 0.666295 13.3191 0.755681 13.3191 0.848879C13.3191 0.881949 13.3238 0.914538 13.3327 0.945767C13.3249 0.973402 13.3204 1.00206 13.3193 1.03119L13.0109 4.53866C12.1541 4.5228 11.3106 4.74982 10.5779 5.19286C9.58545 4.23445 8.4813 3.39884 7.28919 2.70408C7.20991 2.66825 7.12017 2.66309 7.03732 2.68962C6.95723 2.71526 6.88909 2.76875 6.84514 2.84023C5.58889 3.79212 4.51119 4.95957 3.66243 6.28852C3.55295 6.45274 3.60664 6.61433 3.72215 6.71292C3.72892 6.73126 3.73725 6.74912 3.74712 6.76629C4.44281 7.78838 5.38117 8.61811 6.47462 9.18328C6.0289 9.65171 5.69021 10.2125 5.4832 10.8269C5.29006 11.4002 5.21644 12.0056 5.26542 12.6061L1.93875 13.2855C1.89375 13.2199 1.82761 13.1713 1.7509 13.148C1.66143 13.1219 1.56525 13.1324 1.48353 13.1772C1.40181 13.2221 1.34124 13.2975 1.31514 13.387C1.30698 13.4327 1.29871 13.4783 1.29033 13.524C1.26281 13.5766 1.25273 13.6374 1.25776 13.6987C1.05381 14.7748 0.791446 15.8391 0.471786 16.8869C0.39096 17.1375 0.579695 17.3044 0.781434 17.3182C0.817163 17.3302 0.854914 17.3364 0.893311 17.3364C2.3694 17.4736 3.80643 17.8842 5.13125 18.5467C5.18589 19.5591 5.47094 20.5461 5.96505 21.4322L4.26705 24.2805C4.22528 24.3468 4.20929 24.4123 4.2126 24.4732C4.1918 24.4863 4.17229 24.5017 4.15444 24.5192C4.12043 24.552 4.09339 24.5913 4.07491 24.6348C4.05644 24.6782 4.0469 24.725 4.0469 24.7722C4.0469 24.8195 4.05644 24.8662 4.07491 24.9097C4.09339 24.9531 4.12043 24.9924 4.15444 25.0252L7.06407 27.6116C7.09428 27.6518 7.13279 27.6851 7.17699 27.7092C7.2212 27.7333 7.27005 27.7477 7.32027 27.7512C7.37049 27.7548 7.4209 27.7475 7.46806 27.7299C7.51523 27.7123 7.55806 27.6848 7.59366 27.6492C7.60989 27.633 7.62444 27.6152 7.63714 27.5963C8.56889 26.9904 9.54198 26.4508 10.5492 25.9812C11.4273 26.6873 12.4393 27.208 13.5241 27.5119C13.6014 28.3696 13.8776 29.1979 14.3315 29.9307C14.3457 29.9549 14.3626 29.977 14.3817 29.9968C14.3968 30.0639 14.4306 30.1259 14.4799 30.1752C14.5451 30.2404 14.6324 30.2785 14.7245 30.282L18.4072 30.5913C18.4783 30.5913 18.5471 30.5697 18.6051 30.5303C18.6095 30.532 18.614 30.5336 18.6186 30.5351C18.6638 30.5478 18.7112 30.5513 18.7578 30.5453C18.8044 30.5394 18.8493 30.5242 18.8899 30.5006C18.9305 30.477 18.966 30.4455 18.9943 30.408C19.0225 30.3705 19.0429 30.3277 19.0543 30.2821C19.185 29.3145 19.3773 28.3563 19.6297 27.4133C21.2825 27.0343 22.7843 26.1725 23.9449 24.9386L26.0119 26.7121C26.0726 26.7577 26.1462 26.7822 26.2217 26.7824C26.2464 26.8051 26.2745 26.8239 26.3051 26.838C26.3476 26.8576 26.3938 26.8678 26.4405 26.8678C26.4873 26.8678 26.5335 26.8576 26.576 26.838C26.6185 26.8185 26.6562 26.7899 26.6866 26.7543C27.4741 25.8907 28.1712 24.9487 28.7668 23.9431C28.8027 23.8638 28.8078 23.774 28.7813 23.6912C28.7766 23.6767 28.7711 23.6626 28.7647 23.6489C28.7649 23.6439 28.765 23.6388 28.765 23.6338C28.765 23.5404 28.7306 23.4503 28.6683 23.3807C27.9299 22.6011 27.1461 21.8659 26.321 21.179C26.9414 20.3765 27.5108 19.5356 28.0256 18.6614C28.0431 18.6529 28.0607 18.6425 28.0782 18.6299C29.2152 17.8798 30.5084 17.3991 31.8593 17.2242C32.042 17.2242 32.2388 17.0696 32.2107 16.8728L31.789 12.8668C31.789 12.7263 31.6906 12.5435 31.536 12.5295L27.9636 11.9923C27.3729 11.2388 26.9255 10.3842 26.643 9.47101C26.6645 9.45292 26.6838 9.4322 26.7005 9.40918L28.3873 5.47347C28.4312 5.39407 28.4441 5.30116 28.4233 5.21283C28.4091 5.15238 28.3798 5.09703 28.3388 5.05162C28.3217 4.97056 28.271 4.89464 28.1764 4.84062C27.189 4.28615 26.2487 3.65149 25.3652 2.94305C25.2979 2.88181 25.2102 2.84787 25.1192 2.84787C25.0282 2.84787 24.9405 2.88181 24.8732 2.94305L24.8674 2.94876L24.8613 2.95513C24.8511 2.96003 24.841 2.96544 24.8313 2.97135C23.6726 3.64285 22.6018 4.45482 21.6429 5.38862C20.7765 4.85796 19.8438 4.44433 18.8689 4.15848C18.8343 2.99648 18.6844 1.84071 18.4216 0.70813C18.3648 0.448176 18.1154 0.404187 17.934 0.497476ZM7.13446 9.52132C7.15869 9.49814 7.17834 9.47394 7.19382 9.44912C7.20153 9.44762 7.20922 9.44587 7.21686 9.44384C7.30634 9.42016 7.38288 9.36212 7.42982 9.28234C7.47242 9.20131 7.48305 9.10724 7.45963 9.01875C7.4362 8.93025 7.38043 8.85377 7.30332 8.80443C6.13013 8.31084 5.1189 7.49883 4.38372 6.46075C5.14699 5.31248 6.09618 4.29909 7.19246 3.46228C8.25008 4.11347 9.23453 4.87716 10.1285 5.74019C10.1618 5.7725 10.201 5.79794 10.2441 5.81507C10.2538 5.81892 10.2636 5.82234 10.2735 5.82531C10.3209 5.8903 10.3893 5.9374 10.4677 5.95815C10.5572 5.98184 10.6524 5.96927 10.7327 5.92316C11.455 5.43143 12.3204 5.19406 13.1925 5.24846C13.2407 5.24846 13.2878 5.23857 13.3312 5.21992L13.3333 5.21993C13.4265 5.21993 13.5159 5.1829 13.5818 5.117C13.6477 5.0511 13.6847 4.96172 13.6847 4.86852L14.0072 1.20028H17.815C18.0258 2.20377 18.1443 3.22471 18.1686 4.25027C18.1686 4.33771 18.1957 4.40816 18.2393 4.4616C18.2419 4.50986 18.2545 4.55747 18.2767 4.6013C18.3159 4.6788 18.3825 4.73902 18.4636 4.77033V4.70004C19.5277 5.01242 20.5374 5.48649 21.4575 6.10565C21.5231 6.1494 21.5883 6.16709 21.6493 6.1652C21.6711 6.16905 21.6934 6.17088 21.7158 6.17056C21.8094 6.16924 21.8986 6.1308 21.9638 6.0637C22.8905 5.12619 23.9357 4.31402 25.0727 3.64769C25.9 4.2809 26.7701 4.85627 27.6768 5.36967L26.1471 8.93896C26.1395 8.94064 26.1319 8.94257 26.1244 8.94477C26.0349 8.97086 25.9595 9.03143 25.9147 9.11314C25.8698 9.19486 25.8594 9.29103 25.8854 9.3805L25.9417 9.42267C26.2148 10.4836 26.692 11.4812 27.3467 12.3596C27.336 12.4946 27.4107 12.6182 27.6003 12.6419L31.118 13.1689L31.4766 16.5757C30.1687 16.7878 28.9168 17.265 27.7983 17.9793C27.7793 17.9802 27.7603 17.9825 27.7415 17.9865C27.6564 18.0045 27.5809 18.0533 27.5298 18.1237V18.1799C26.9495 19.1611 26.3014 20.1004 25.5901 20.9911C25.5288 21.0584 25.4949 21.1461 25.4949 21.2371C25.4949 21.3281 25.5288 21.4158 25.5901 21.4831C25.5969 21.4904 25.604 21.4973 25.6115 21.504L25.576 21.5394C26.4458 22.2266 27.2699 22.9696 28.0432 23.7636C27.5461 24.5851 26.9794 25.3623 26.3494 26.0868L24.2408 24.2664C24.1727 24.2011 24.0821 24.1646 23.9878 24.1646C23.9442 24.1646 23.9014 24.1724 23.8612 24.1872C23.7676 24.1716 23.6666 24.2 23.58 24.2944C22.4719 25.5421 20.9947 26.4038 19.3632 26.7543L19.3544 26.7563C19.2881 26.7541 19.2219 26.7705 19.1636 26.8043C19.0819 26.8518 19.0224 26.9297 18.9981 27.0211C18.7344 27.962 18.5368 28.9201 18.4069 29.8884L14.9458 29.5978C14.9427 29.5916 14.9394 29.5854 14.9359 29.5793C14.5354 28.9217 14.2902 28.1814 14.219 27.4147C14.219 27.3378 14.1938 27.2636 14.1481 27.2029C14.1454 27.1549 14.1328 27.1075 14.1107 27.0639C14.0714 26.9864 14.0049 26.9262 13.9238 26.8949C12.8109 26.615 11.774 26.0917 10.8877 25.3627C10.8735 25.3521 10.8586 25.3426 10.8431 25.3343C10.8282 25.3186 10.8118 25.3042 10.7942 25.2915C10.7543 25.2627 10.7088 25.2425 10.6607 25.2324C10.6126 25.2223 10.5629 25.2223 10.5148 25.2326C10.4668 25.2429 10.4214 25.2631 10.3816 25.292C9.33554 25.7689 8.32556 26.321 7.3596 26.944L4.83174 24.6848C4.84584 24.6691 4.85914 24.6514 4.87146 24.6319H4.80119L6.61442 21.7082C6.65025 21.6289 6.65541 21.5392 6.62888 21.4563C6.6253 21.4452 6.62119 21.4342 6.61656 21.4235C6.62103 21.4139 6.62508 21.404 6.62871 21.3938C6.65749 21.3136 6.65732 21.2259 6.62824 21.1457V21.1879C6.13686 20.3498 5.86222 19.4027 5.82871 18.4323C5.88445 18.2885 5.85258 18.1184 5.67239 18.0252V18.0392C4.29391 17.3288 2.8019 16.8672 1.26503 16.6748C1.52236 15.7951 1.73765 14.9036 1.91017 14.0034L5.68668 13.2321C5.79714 13.2114 5.86861 13.1551 5.90712 13.0832C5.92202 13.0659 5.9353 13.0471 5.94671 13.0269C5.9912 12.9484 6.00379 12.8558 5.98187 12.7683C5.89953 12.1743 5.96126 11.5692 6.16186 11.0041C6.36246 10.439 6.69604 9.93044 7.13446 9.52132Z"/>
</mask>
<path fill-rule="evenodd" clip-rule="evenodd" d="M15.2831 11.8727C14.7236 12.1206 14.2072 12.4585 13.7551 12.8741C13.1868 13.3965 12.7321 14.0302 12.4194 14.7359C12.1993 15.4559 12.2171 16.2276 12.4703 16.9366C12.7235 17.6456 13.1986 18.2541 13.825 18.6716C14.4681 19.0654 15.2155 19.2547 15.9684 19.2145C16.7213 19.1743 17.4443 18.9066 18.0419 18.4467C18.6306 17.9799 19.0751 17.3559 19.3238 16.6469C19.5726 15.938 19.6154 15.1731 19.4475 14.4408C19.0539 12.7821 17.3531 10.9548 15.4977 11.4609C15.4167 11.4922 15.3501 11.5524 15.3109 11.6299C15.2728 11.705 15.263 11.7912 15.2831 11.8727ZM16.1862 12.0767C17.3723 12.1068 18.3553 13.3042 18.6885 14.3283C18.8818 14.9262 18.8998 15.5669 18.7404 16.1748C18.581 16.7826 18.2508 17.332 17.7889 17.758C17.3338 18.1685 16.7642 18.4302 16.1562 18.5081C15.5483 18.586 14.9311 18.4763 14.3873 18.1937C13.8505 17.9029 13.423 17.4451 13.1694 16.8898C12.9158 16.3344 12.8499 15.7116 12.9817 15.1155C13.319 13.7098 14.7949 12.9227 16.0178 12.3042C16.1256 12.2485 16.1764 12.1651 16.1862 12.0767Z" fill="#604635"/>
<path fill-rule="evenodd" clip-rule="evenodd" d="M17.934 0.497476H13.6705C13.5773 0.497476 13.4879 0.534493 13.422 0.600394C13.3561 0.666295 13.3191 0.755681 13.3191 0.848879C13.3191 0.881949 13.3238 0.914538 13.3327 0.945767C13.3249 0.973402 13.3204 1.00206 13.3193 1.03119L13.0109 4.53866C12.1541 4.5228 11.3106 4.74982 10.5779 5.19286C9.58545 4.23445 8.4813 3.39884 7.28919 2.70408C7.20991 2.66825 7.12017 2.66309 7.03732 2.68962C6.95723 2.71526 6.88909 2.76875 6.84514 2.84023C5.58889 3.79212 4.51119 4.95957 3.66243 6.28852C3.55295 6.45274 3.60664 6.61433 3.72215 6.71292C3.72892 6.73126 3.73725 6.74912 3.74712 6.76629C4.44281 7.78838 5.38117 8.61811 6.47462 9.18328C6.0289 9.65171 5.69021 10.2125 5.4832 10.8269C5.29006 11.4002 5.21644 12.0056 5.26542 12.6061L1.93875 13.2855C1.89375 13.2199 1.82761 13.1713 1.7509 13.148C1.66143 13.1219 1.56525 13.1324 1.48353 13.1772C1.40181 13.2221 1.34124 13.2975 1.31514 13.387C1.30698 13.4327 1.29871 13.4783 1.29033 13.524C1.26281 13.5766 1.25273 13.6374 1.25776 13.6987C1.05381 14.7748 0.791446 15.8391 0.471786 16.8869C0.39096 17.1375 0.579695 17.3044 0.781434 17.3182C0.817163 17.3302 0.854914 17.3364 0.893311 17.3364C2.3694 17.4736 3.80643 17.8842 5.13125 18.5467C5.18589 19.5591 5.47094 20.5461 5.96505 21.4322L4.26705 24.2805C4.22528 24.3468 4.20929 24.4123 4.2126 24.4732C4.1918 24.4863 4.17229 24.5017 4.15444 24.5192C4.12043 24.552 4.09339 24.5913 4.07491 24.6348C4.05644 24.6782 4.0469 24.725 4.0469 24.7722C4.0469 24.8195 4.05644 24.8662 4.07491 24.9097C4.09339 24.9531 4.12043 24.9924 4.15444 25.0252L7.06407 27.6116C7.09428 27.6518 7.13279 27.6851 7.17699 27.7092C7.2212 27.7333 7.27005 27.7477 7.32027 27.7512C7.37049 27.7548 7.4209 27.7475 7.46806 27.7299C7.51523 27.7123 7.55806 27.6848 7.59366 27.6492C7.60989 27.633 7.62444 27.6152 7.63714 27.5963C8.56889 26.9904 9.54198 26.4508 10.5492 25.9812C11.4273 26.6873 12.4393 27.208 13.5241 27.5119C13.6014 28.3696 13.8776 29.1979 14.3315 29.9307C14.3457 29.9549 14.3626 29.977 14.3817 29.9968C14.3968 30.0639 14.4306 30.1259 14.4799 30.1752C14.5451 30.2404 14.6324 30.2785 14.7245 30.282L18.4072 30.5913C18.4783 30.5913 18.5471 30.5697 18.6051 30.5303C18.6095 30.532 18.614 30.5336 18.6186 30.5351C18.6638 30.5478 18.7112 30.5513 18.7578 30.5453C18.8044 30.5394 18.8493 30.5242 18.8899 30.5006C18.9305 30.477 18.966 30.4455 18.9943 30.408C19.0225 30.3705 19.0429 30.3277 19.0543 30.2821C19.185 29.3145 19.3773 28.3563 19.6297 27.4133C21.2825 27.0343 22.7843 26.1725 23.9449 24.9386L26.0119 26.7121C26.0726 26.7577 26.1462 26.7822 26.2217 26.7824C26.2464 26.8051 26.2745 26.8239 26.3051 26.838C26.3476 26.8576 26.3938 26.8678 26.4405 26.8678C26.4873 26.8678 26.5335 26.8576 26.576 26.838C26.6185 26.8185 26.6562 26.7899 26.6866 26.7543C27.4741 25.8907 28.1712 24.9487 28.7668 23.9431C28.8027 23.8638 28.8078 23.774 28.7813 23.6912C28.7766 23.6767 28.7711 23.6626 28.7647 23.6489C28.7649 23.6439 28.765 23.6388 28.765 23.6338C28.765 23.5404 28.7306 23.4503 28.6683 23.3807C27.9299 22.6011 27.1461 21.8659 26.321 21.179C26.9414 20.3765 27.5108 19.5356 28.0256 18.6614C28.0431 18.6529 28.0607 18.6425 28.0782 18.6299C29.2152 17.8798 30.5084 17.3991 31.8593 17.2242C32.042 17.2242 32.2388 17.0696 32.2107 16.8728L31.789 12.8668C31.789 12.7263 31.6906 12.5435 31.536 12.5295L27.9636 11.9923C27.3729 11.2388 26.9255 10.3842 26.643 9.47101C26.6645 9.45292 26.6838 9.4322 26.7005 9.40918L28.3873 5.47347C28.4312 5.39407 28.4441 5.30116 28.4233 5.21283C28.4091 5.15238 28.3798 5.09703 28.3388 5.05162C28.3217 4.97056 28.271 4.89464 28.1764 4.84062C27.189 4.28615 26.2487 3.65149 25.3652 2.94305C25.2979 2.88181 25.2102 2.84787 25.1192 2.84787C25.0282 2.84787 24.9405 2.88181 24.8732 2.94305L24.8674 2.94876L24.8613 2.95513C24.8511 2.96003 24.841 2.96544 24.8313 2.97135C23.6726 3.64285 22.6018 4.45482 21.6429 5.38862C20.7765 4.85796 19.8438 4.44433 18.8689 4.15848C18.8343 2.99648 18.6844 1.84071 18.4216 0.70813C18.3648 0.448176 18.1154 0.404187 17.934 0.497476ZM7.13446 9.52132C7.15869 9.49814 7.17834 9.47394 7.19382 9.44912C7.20153 9.44762 7.20922 9.44587 7.21686 9.44384C7.30634 9.42016 7.38288 9.36212 7.42982 9.28234C7.47242 9.20131 7.48305 9.10724 7.45963 9.01875C7.4362 8.93025 7.38043 8.85377 7.30332 8.80443C6.13013 8.31084 5.1189 7.49883 4.38372 6.46075C5.14699 5.31248 6.09618 4.29909 7.19246 3.46228C8.25008 4.11347 9.23453 4.87716 10.1285 5.74019C10.1618 5.7725 10.201 5.79794 10.2441 5.81507C10.2538 5.81892 10.2636 5.82234 10.2735 5.82531C10.3209 5.8903 10.3893 5.9374 10.4677 5.95815C10.5572 5.98184 10.6524 5.96927 10.7327 5.92316C11.455 5.43143 12.3204 5.19406 13.1925 5.24846C13.2407 5.24846 13.2878 5.23857 13.3312 5.21992L13.3333 5.21993C13.4265 5.21993 13.5159 5.1829 13.5818 5.117C13.6477 5.0511 13.6847 4.96172 13.6847 4.86852L14.0072 1.20028H17.815C18.0258 2.20377 18.1443 3.22471 18.1686 4.25027C18.1686 4.33771 18.1957 4.40816 18.2393 4.4616C18.2419 4.50986 18.2545 4.55747 18.2767 4.6013C18.3159 4.6788 18.3825 4.73902 18.4636 4.77033V4.70004C19.5277 5.01242 20.5374 5.48649 21.4575 6.10565C21.5231 6.1494 21.5883 6.16709 21.6493 6.1652C21.6711 6.16905 21.6934 6.17088 21.7158 6.17056C21.8094 6.16924 21.8986 6.1308 21.9638 6.0637C22.8905 5.12619 23.9357 4.31402 25.0727 3.64769C25.9 4.2809 26.7701 4.85627 27.6768 5.36967L26.1471 8.93896C26.1395 8.94064 26.1319 8.94257 26.1244 8.94477C26.0349 8.97086 25.9595 9.03143 25.9147 9.11314C25.8698 9.19486 25.8594 9.29103 25.8854 9.3805L25.9417 9.42267C26.2148 10.4836 26.692 11.4812 27.3467 12.3596C27.336 12.4946 27.4107 12.6182 27.6003 12.6419L31.118 13.1689L31.4766 16.5757C30.1687 16.7878 28.9168 17.265 27.7983 17.9793C27.7793 17.9802 27.7603 17.9825 27.7415 17.9865C27.6564 18.0045 27.5809 18.0533 27.5298 18.1237V18.1799C26.9495 19.1611 26.3014 20.1004 25.5901 20.9911C25.5288 21.0584 25.4949 21.1461 25.4949 21.2371C25.4949 21.3281 25.5288 21.4158 25.5901 21.4831C25.5969 21.4904 25.604 21.4973 25.6115 21.504L25.576 21.5394C26.4458 22.2266 27.2699 22.9696 28.0432 23.7636C27.5461 24.5851 26.9794 25.3623 26.3494 26.0868L24.2408 24.2664C24.1727 24.2011 24.0821 24.1646 23.9878 24.1646C23.9442 24.1646 23.9014 24.1724 23.8612 24.1872C23.7676 24.1716 23.6666 24.2 23.58 24.2944C22.4719 25.5421 20.9947 26.4038 19.3632 26.7543L19.3544 26.7563C19.2881 26.7541 19.2219 26.7705 19.1636 26.8043C19.0819 26.8518 19.0224 26.9297 18.9981 27.0211C18.7344 27.962 18.5368 28.9201 18.4069 29.8884L14.9458 29.5978C14.9427 29.5916 14.9394 29.5854 14.9359 29.5793C14.5354 28.9217 14.2902 28.1814 14.219 27.4147C14.219 27.3378 14.1938 27.2636 14.1481 27.2029C14.1454 27.1549 14.1328 27.1075 14.1107 27.0639C14.0714 26.9864 14.0049 26.9262 13.9238 26.8949C12.8109 26.615 11.774 26.0917 10.8877 25.3627C10.8735 25.3521 10.8586 25.3426 10.8431 25.3343C10.8282 25.3186 10.8118 25.3042 10.7942 25.2915C10.7543 25.2627 10.7088 25.2425 10.6607 25.2324C10.6126 25.2223 10.5629 25.2223 10.5148 25.2326C10.4668 25.2429 10.4214 25.2631 10.3816 25.292C9.33554 25.7689 8.32556 26.321 7.3596 26.944L4.83174 24.6848C4.84584 24.6691 4.85914 24.6514 4.87146 24.6319H4.80119L6.61442 21.7082C6.65025 21.6289 6.65541 21.5392 6.62888 21.4563C6.6253 21.4452 6.62119 21.4342 6.61656 21.4235C6.62103 21.4139 6.62508 21.404 6.62871 21.3938C6.65749 21.3136 6.65732 21.2259 6.62824 21.1457V21.1879C6.13686 20.3498 5.86222 19.4027 5.82871 18.4323C5.88445 18.2885 5.85258 18.1184 5.67239 18.0252V18.0392C4.29391 17.3288 2.8019 16.8672 1.26503 16.6748C1.52236 15.7951 1.73765 14.9036 1.91017 14.0034L5.68668 13.2321C5.79714 13.2114 5.86861 13.1551 5.90712 13.0832C5.92202 13.0659 5.9353 13.0471 5.94671 13.0269C5.9912 12.9484 6.00379 12.8558 5.98187 12.7683C5.89953 12.1743 5.96126 11.5692 6.16186 11.0041C6.36246 10.439 6.69604 9.93044 7.13446 9.52132Z" fill="#604635"/>
<path fill-rule="evenodd" clip-rule="evenodd" d="M15.2831 11.8727C14.7236 12.1206 14.2072 12.4585 13.7551 12.8741C13.1868 13.3965 12.7321 14.0302 12.4194 14.7359C12.1993 15.4559 12.2171 16.2276 12.4703 16.9366C12.7235 17.6456 13.1986 18.2541 13.825 18.6716C14.4681 19.0654 15.2155 19.2547 15.9684 19.2145C16.7213 19.1743 17.4443 18.9066 18.0419 18.4467C18.6306 17.9799 19.0751 17.3559 19.3238 16.6469C19.5726 15.938 19.6154 15.1731 19.4475 14.4408C19.0539 12.7821 17.3531 10.9548 15.4977 11.4609C15.4167 11.4922 15.3501 11.5524 15.3109 11.6299C15.2728 11.705 15.263 11.7912 15.2831 11.8727ZM16.1862 12.0767C17.3723 12.1068 18.3553 13.3042 18.6885 14.3283C18.8818 14.9262 18.8998 15.5669 18.7404 16.1748C18.581 16.7826 18.2508 17.332 17.7889 17.758C17.3338 18.1685 16.7642 18.4302 16.1562 18.5081C15.5483 18.586 14.9311 18.4763 14.3873 18.1937C13.8505 17.9029 13.423 17.4451 13.1694 16.8898C12.9158 16.3344 12.8499 15.7116 12.9817 15.1155C13.319 13.7098 14.7949 12.9227 16.0178 12.3042C16.1256 12.2485 16.1764 12.1651 16.1862 12.0767Z" stroke="#604635" stroke-width="0.905082" stroke-linejoin="round" mask="url(#path-1-outside-1_14_529)"/>
<path fill-rule="evenodd" clip-rule="evenodd" d="M17.934 0.497476H13.6705C13.5773 0.497476 13.4879 0.534493 13.422 0.600394C13.3561 0.666295 13.3191 0.755681 13.3191 0.848879C13.3191 0.881949 13.3238 0.914538 13.3327 0.945767C13.3249 0.973402 13.3204 1.00206 13.3193 1.03119L13.0109 4.53866C12.1541 4.5228 11.3106 4.74982 10.5779 5.19286C9.58545 4.23445 8.4813 3.39884 7.28919 2.70408C7.20991 2.66825 7.12017 2.66309 7.03732 2.68962C6.95723 2.71526 6.88909 2.76875 6.84514 2.84023C5.58889 3.79212 4.51119 4.95957 3.66243 6.28852C3.55295 6.45274 3.60664 6.61433 3.72215 6.71292C3.72892 6.73126 3.73725 6.74912 3.74712 6.76629C4.44281 7.78838 5.38117 8.61811 6.47462 9.18328C6.0289 9.65171 5.69021 10.2125 5.4832 10.8269C5.29006 11.4002 5.21644 12.0056 5.26542 12.6061L1.93875 13.2855C1.89375 13.2199 1.82761 13.1713 1.7509 13.148C1.66143 13.1219 1.56525 13.1324 1.48353 13.1772C1.40181 13.2221 1.34124 13.2975 1.31514 13.387C1.30698 13.4327 1.29871 13.4783 1.29033 13.524C1.26281 13.5766 1.25273 13.6374 1.25776 13.6987C1.05381 14.7748 0.791446 15.8391 0.471786 16.8869C0.39096 17.1375 0.579695 17.3044 0.781434 17.3182C0.817163 17.3302 0.854914 17.3364 0.893311 17.3364C2.3694 17.4736 3.80643 17.8842 5.13125 18.5467C5.18589 19.5591 5.47094 20.5461 5.96505 21.4322L4.26705 24.2805C4.22528 24.3468 4.20929 24.4123 4.2126 24.4732C4.1918 24.4863 4.17229 24.5017 4.15444 24.5192C4.12043 24.552 4.09339 24.5913 4.07491 24.6348C4.05644 24.6782 4.0469 24.725 4.0469 24.7722C4.0469 24.8195 4.05644 24.8662 4.07491 24.9097C4.09339 24.9531 4.12043 24.9924 4.15444 25.0252L7.06407 27.6116C7.09428 27.6518 7.13279 27.6851 7.17699 27.7092C7.2212 27.7333 7.27005 27.7477 7.32027 27.7512C7.37049 27.7548 7.4209 27.7475 7.46806 27.7299C7.51523 27.7123 7.55806 27.6848 7.59366 27.6492C7.60989 27.633 7.62444 27.6152 7.63714 27.5963C8.56889 26.9904 9.54198 26.4508 10.5492 25.9812C11.4273 26.6873 12.4393 27.208 13.5241 27.5119C13.6014 28.3696 13.8776 29.1979 14.3315 29.9307C14.3457 29.9549 14.3626 29.977 14.3817 29.9968C14.3968 30.0639 14.4306 30.1259 14.4799 30.1752C14.5451 30.2404 14.6324 30.2785 14.7245 30.282L18.4072 30.5913C18.4783 30.5913 18.5471 30.5697 18.6051 30.5303C18.6095 30.532 18.614 30.5336 18.6186 30.5351C18.6638 30.5478 18.7112 30.5513 18.7578 30.5453C18.8044 30.5394 18.8493 30.5242 18.8899 30.5006C18.9305 30.477 18.966 30.4455 18.9943 30.408C19.0225 30.3705 19.0429 30.3277 19.0543 30.2821C19.185 29.3145 19.3773 28.3563 19.6297 27.4133C21.2825 27.0343 22.7843 26.1725 23.9449 24.9386L26.0119 26.7121C26.0726 26.7577 26.1462 26.7822 26.2217 26.7824C26.2464 26.8051 26.2745 26.8239 26.3051 26.838C26.3476 26.8576 26.3938 26.8678 26.4405 26.8678C26.4873 26.8678 26.5335 26.8576 26.576 26.838C26.6185 26.8185 26.6562 26.7899 26.6866 26.7543C27.4741 25.8907 28.1712 24.9487 28.7668 23.9431C28.8027 23.8638 28.8078 23.774 28.7813 23.6912C28.7766 23.6767 28.7711 23.6626 28.7647 23.6489C28.7649 23.6439 28.765 23.6388 28.765 23.6338C28.765 23.5404 28.7306 23.4503 28.6683 23.3807C27.9299 22.6011 27.1461 21.8659 26.321 21.179C26.9414 20.3765 27.5108 19.5356 28.0256 18.6614C28.0431 18.6529 28.0607 18.6425 28.0782 18.6299C29.2152 17.8798 30.5084 17.3991 31.8593 17.2242C32.042 17.2242 32.2388 17.0696 32.2107 16.8728L31.789 12.8668C31.789 12.7263 31.6906 12.5435 31.536 12.5295L27.9636 11.9923C27.3729 11.2388 26.9255 10.3842 26.643 9.47101C26.6645 9.45292 26.6838 9.4322 26.7005 9.40918L28.3873 5.47347C28.4312 5.39407 28.4441 5.30116 28.4233 5.21283C28.4091 5.15238 28.3798 5.09703 28.3388 5.05162C28.3217 4.97056 28.271 4.89464 28.1764 4.84062C27.189 4.28615 26.2487 3.65149 25.3652 2.94305C25.2979 2.88181 25.2102 2.84787 25.1192 2.84787C25.0282 2.84787 24.9405 2.88181 24.8732 2.94305L24.8674 2.94876L24.8613 2.95513C24.8511 2.96003 24.841 2.96544 24.8313 2.97135C23.6726 3.64285 22.6018 4.45482 21.6429 5.38862C20.7765 4.85796 19.8438 4.44433 18.8689 4.15848C18.8343 2.99648 18.6844 1.84071 18.4216 0.70813C18.3648 0.448176 18.1154 0.404187 17.934 0.497476ZM7.13446 9.52132C7.15869 9.49814 7.17834 9.47394 7.19382 9.44912C7.20153 9.44762 7.20922 9.44587 7.21686 9.44384C7.30634 9.42016 7.38288 9.36212 7.42982 9.28234C7.47242 9.20131 7.48305 9.10724 7.45963 9.01875C7.4362 8.93025 7.38043 8.85377 7.30332 8.80443C6.13013 8.31084 5.1189 7.49883 4.38372 6.46075C5.14699 5.31248 6.09618 4.29909 7.19246 3.46228C8.25008 4.11347 9.23453 4.87716 10.1285 5.74019C10.1618 5.7725 10.201 5.79794 10.2441 5.81507C10.2538 5.81892 10.2636 5.82234 10.2735 5.82531C10.3209 5.8903 10.3893 5.9374 10.4677 5.95815C10.5572 5.98184 10.6524 5.96927 10.7327 5.92316C11.455 5.43143 12.3204 5.19406 13.1925 5.24846C13.2407 5.24846 13.2878 5.23857 13.3312 5.21992L13.3333 5.21993C13.4265 5.21993 13.5159 5.1829 13.5818 5.117C13.6477 5.0511 13.6847 4.96172 13.6847 4.86852L14.0072 1.20028H17.815C18.0258 2.20377 18.1443 3.22471 18.1686 4.25027C18.1686 4.33771 18.1957 4.40816 18.2393 4.4616C18.2419 4.50986 18.2545 4.55747 18.2767 4.6013C18.3159 4.6788 18.3825 4.73902 18.4636 4.77033V4.70004C19.5277 5.01242 20.5374 5.48649 21.4575 6.10565C21.5231 6.1494 21.5883 6.16709 21.6493 6.1652C21.6711 6.16905 21.6934 6.17088 21.7158 6.17056C21.8094 6.16924 21.8986 6.1308 21.9638 6.0637C22.8905 5.12619 23.9357 4.31402 25.0727 3.64769C25.9 4.2809 26.7701 4.85627 27.6768 5.36967L26.1471 8.93896C26.1395 8.94064 26.1319 8.94257 26.1244 8.94477C26.0349 8.97086 25.9595 9.03143 25.9147 9.11314C25.8698 9.19486 25.8594 9.29103 25.8854 9.3805L25.9417 9.42267C26.2148 10.4836 26.692 11.4812 27.3467 12.3596C27.336 12.4946 27.4107 12.6182 27.6003 12.6419L31.118 13.1689L31.4766 16.5757C30.1687 16.7878 28.9168 17.265 27.7983 17.9793C27.7793 17.9802 27.7603 17.9825 27.7415 17.9865C27.6564 18.0045 27.5809 18.0533 27.5298 18.1237V18.1799C26.9495 19.1611 26.3014 20.1004 25.5901 20.9911C25.5288 21.0584 25.4949 21.1461 25.4949 21.2371C25.4949 21.3281 25.5288 21.4158 25.5901 21.4831C25.5969 21.4904 25.604 21.4973 25.6115 21.504L25.576 21.5394C26.4458 22.2266 27.2699 22.9696 28.0432 23.7636C27.5461 24.5851 26.9794 25.3623 26.3494 26.0868L24.2408 24.2664C24.1727 24.2011 24.0821 24.1646 23.9878 24.1646C23.9442 24.1646 23.9014 24.1724 23.8612 24.1872C23.7676 24.1716 23.6666 24.2 23.58 24.2944C22.4719 25.5421 20.9947 26.4038 19.3632 26.7543L19.3544 26.7563C19.2881 26.7541 19.2219 26.7705 19.1636 26.8043C19.0819 26.8518 19.0224 26.9297 18.9981 27.0211C18.7344 27.962 18.5368 28.9201 18.4069 29.8884L14.9458 29.5978C14.9427 29.5916 14.9394 29.5854 14.9359 29.5793C14.5354 28.9217 14.2902 28.1814 14.219 27.4147C14.219 27.3378 14.1938 27.2636 14.1481 27.2029C14.1454 27.1549 14.1328 27.1075 14.1107 27.0639C14.0714 26.9864 14.0049 26.9262 13.9238 26.8949C12.8109 26.615 11.774 26.0917 10.8877 25.3627C10.8735 25.3521 10.8586 25.3426 10.8431 25.3343C10.8282 25.3186 10.8118 25.3042 10.7942 25.2915C10.7543 25.2627 10.7088 25.2425 10.6607 25.2324C10.6126 25.2223 10.5629 25.2223 10.5148 25.2326C10.4668 25.2429 10.4214 25.2631 10.3816 25.292C9.33554 25.7689 8.32556 26.321 7.3596 26.944L4.83174 24.6848C4.84584 24.6691 4.85914 24.6514 4.87146 24.6319H4.80119L6.61442 21.7082C6.65025 21.6289 6.65541 21.5392 6.62888 21.4563C6.6253 21.4452 6.62119 21.4342 6.61656 21.4235C6.62103 21.4139 6.62508 21.404 6.62871 21.3938C6.65749 21.3136 6.65732 21.2259 6.62824 21.1457V21.1879C6.13686 20.3498 5.86222 19.4027 5.82871 18.4323C5.88445 18.2885 5.85258 18.1184 5.67239 18.0252V18.0392C4.29391 17.3288 2.8019 16.8672 1.26503 16.6748C1.52236 15.7951 1.73765 14.9036 1.91017 14.0034L5.68668 13.2321C5.79714 13.2114 5.86861 13.1551 5.90712 13.0832C5.92202 13.0659 5.9353 13.0471 5.94671 13.0269C5.9912 12.9484 6.00379 12.8558 5.98187 12.7683C5.89953 12.1743 5.96126 11.5692 6.16186 11.0041C6.36246 10.439 6.69604 9.93044 7.13446 9.52132Z" stroke="#604635" stroke-width="0.905082" stroke-linejoin="round" mask="url(#path-1-outside-1_14_529)"/>
</svg>
