<svg width="28" height="23" viewBox="0 0 28 23" fill="none" xmlns="http://www.w3.org/2000/svg">
<path d="M21.2529 0.227905C21.3856 0.238568 21.5033 0.298109 21.5947 0.378296C21.6504 0.408671 21.7027 0.446258 21.748 0.495483C23.0567 1.91253 24.4886 3.21054 26.0254 4.37439L26.6904 4.86462L26.6914 4.86658C26.95 5.05556 26.9818 5.35386 26.8955 5.57556C26.827 5.75149 26.6577 5.92813 26.4268 5.94275C20.9411 11.2893 15.6247 16.7965 10.4766 22.4623C10.4588 22.4818 10.4369 22.4961 10.4141 22.5082C10.2574 22.6505 10.0618 22.6789 9.88965 22.6195C9.79293 22.5861 9.70623 22.5259 9.6377 22.4496C9.46946 22.4947 9.27514 22.4729 9.10645 22.3256V22.3246C5.93525 19.6458 3.03538 16.6618 0.448242 13.4154C0.263405 13.2639 0.144149 12.9893 0.298828 12.7006C1.03311 11.2657 2.06787 10.0083 3.33105 9.01404L3.64648 8.58435C3.66757 8.55514 3.68874 8.5252 3.71094 8.49353C3.85947 8.28166 4.07167 7.96187 4.45605 7.8783L4.48242 7.87341C4.66574 7.85554 4.85062 7.88135 5.02246 7.94763C5.18543 8.01053 5.33181 8.10941 5.45215 8.23572L9.25977 11.473L20.8213 0.387085C20.9473 0.266506 21.1018 0.215878 21.2529 0.227905ZM10.2119 12.1508C10.2127 12.1634 10.2158 12.1761 10.2158 12.1888C10.2158 12.3415 10.1565 12.4888 10.0508 12.599L10.0498 12.598L8.39453 14.3812L8.38574 14.391L8.38477 14.39C8.2746 14.4957 8.12824 14.5551 7.97559 14.5551C7.82294 14.555 7.67655 14.4957 7.56641 14.39L7.56152 14.3861V14.3851C7.45572 14.2772 7.39648 14.132 7.39648 13.9808C7.39658 13.8319 7.4537 13.6888 7.55664 13.5814L8.61621 12.431L6.11328 10.266L4.75781 9.10095C4.73524 9.09608 4.71554 9.0896 4.69824 9.08337C4.6795 9.10344 4.661 9.12374 4.64355 9.1449C4.64591 9.20337 4.64116 9.2622 4.62598 9.3197C4.58904 9.45925 4.50169 9.57952 4.38184 9.65955L4.38281 9.66052C4.31475 9.70951 4.24737 9.75933 4.18066 9.80994L3.94336 10.1429L3.94141 10.1439C3.8205 10.3093 3.6516 10.3822 3.48633 10.389C2.69421 11.1118 2.02311 11.9587 1.49902 12.8978C4.00115 16.0041 6.79334 18.8652 9.83789 21.4427C14.8599 15.9157 20.0425 10.5449 25.3848 5.32947C23.8906 4.20764 22.4927 2.96325 21.2061 1.60779L10.2119 12.1508Z" fill="#604635" stroke="#604635" stroke-width="0.452541" stroke-linejoin="round"/>
</svg>
