<svg width="30" height="33" viewBox="0 0 30 33" fill="none" xmlns="http://www.w3.org/2000/svg">
<path d="M15.6558 0.243347C15.8327 0.200724 16.0376 0.238772 16.186 0.375183C16.306 0.456253 16.4069 0.579083 16.4429 0.729675C16.4769 0.87241 16.4484 1.02233 16.353 1.15057L15.2134 31.7326V31.7375C15.2027 31.9091 15.1257 32.0469 15.0142 32.1428C14.9319 32.262 14.8077 32.3619 14.6558 32.3947C14.4731 32.4341 14.285 32.3711 14.1499 32.2023V32.2014C11.5645 29.0252 8.8248 25.9783 5.94385 23.0685C5.93054 23.0851 5.91896 23.1032 5.90381 23.1183C5.79832 23.2238 5.65645 23.2856 5.50732 23.2912C5.49624 23.2916 5.48515 23.2914 5.47412 23.2902L0.807129 22.7697V22.7687C0.66524 22.7564 0.532021 22.6958 0.431152 22.5949C0.384064 22.5478 0.34592 22.4935 0.316895 22.4348C0.258981 22.3456 0.226074 22.2401 0.226074 22.1232V22.1144L0.647949 11.7131L0.648926 11.7082C0.659797 11.5343 0.7375 11.3954 0.850098 11.3C0.875812 11.254 0.905946 11.21 0.943848 11.1721C1.05205 11.0639 1.19903 11.0032 1.35205 11.0031H4.29053C4.38467 11.0012 4.4701 11.0205 4.54443 11.0558C4.62957 11.0016 4.72624 10.9718 4.82178 10.9641C8.04581 7.26064 11.5323 3.7943 15.2534 0.591003C15.3277 0.401311 15.4863 0.284286 15.6558 0.243347ZM15.2026 2.16815C11.8031 5.15441 8.60873 8.36724 5.64209 11.7853L5.64111 11.7863C5.57743 11.8591 5.50314 11.9096 5.42432 11.9406C5.2806 14.974 5.26969 17.9588 5.39111 20.9562C5.43724 20.9748 5.48157 20.9982 5.52197 21.0285C5.53002 21.0345 5.53823 21.041 5.54541 21.048C8.55456 24.0063 11.4118 27.1147 14.1108 30.3576L15.2026 2.16815ZM21.896 7.1203L22.02 7.15155L22.0298 7.15448L22.4292 7.32538C24.4094 8.21523 26.0949 9.65782 27.2808 11.4836C28.5456 13.431 29.1808 15.7205 29.1001 18.0412V18.0432C29.0095 20.1699 28.2737 22.2185 26.9907 23.9172C25.7077 25.6159 23.9384 26.8841 21.9175 27.5529L21.9155 27.5539C21.7453 27.6088 21.5806 27.5853 21.4487 27.4992C21.323 27.417 21.2442 27.2889 21.2095 27.1594C21.1747 27.0296 21.1792 26.8805 21.2417 26.7463C21.3057 26.6089 21.4255 26.5002 21.5923 26.4494V26.4484C23.3819 25.8521 24.9495 24.7285 26.0884 23.2248C27.2274 21.7209 27.8842 19.9071 27.9731 18.0226C28.0486 15.9473 27.4876 13.8986 26.3647 12.1516C25.2466 10.412 23.6249 9.05469 21.7163 8.25995C21.7007 8.25772 21.6843 8.25662 21.6694 8.25116C21.3228 8.12374 21.2356 7.77903 21.3071 7.5246C21.3434 7.39577 21.4234 7.2685 21.5522 7.18964C21.6537 7.1276 21.7724 7.10334 21.896 7.1203ZM1.39893 21.6769L4.28271 21.9982C4.14278 18.6852 4.13802 15.4313 4.26416 12.1584H1.78564L1.39893 21.6769ZM20.8237 14.0139C20.9783 13.9707 21.1406 14.0068 21.2808 14.1144C21.7866 14.502 22.188 15.0096 22.4487 15.591C22.7095 16.1725 22.822 16.8099 22.7749 17.4455L22.7739 17.4523C22.7078 18.071 22.4946 18.6655 22.1519 19.1848C21.8092 19.704 21.347 20.1337 20.8042 20.4377L20.8032 20.4357C20.6528 20.5236 20.4915 20.5278 20.353 20.4758C20.2189 20.4253 20.1104 20.3257 20.0405 20.2131C19.9708 20.1005 19.9287 19.9561 19.9526 19.8068C19.978 19.649 20.0738 19.5108 20.2329 19.423H20.2339C20.6139 19.2168 20.9387 18.9214 21.1802 18.5627C21.4206 18.2054 21.572 17.7952 21.6206 17.3674C21.654 16.9246 21.5784 16.48 21.3999 16.0734C21.2212 15.6663 20.9444 15.3097 20.5952 15.0344C20.5682 15.013 20.5481 14.9862 20.5337 14.9572C20.3664 14.741 20.3895 14.4613 20.5005 14.2726C20.5676 14.1586 20.6774 14.0547 20.8237 14.0139Z" fill="#604635" stroke="#604635" stroke-width="0.452541" stroke-linejoin="round"/>
</svg>
