<svg width="29" height="30" viewBox="0 0 29 30" fill="none" xmlns="http://www.w3.org/2000/svg">
<mask id="path-1-outside-1_16_547" maskUnits="userSpaceOnUse" x="-0.547363" y="-0.547485" width="30" height="30" fill="black">
<rect fill="white" x="-0.547363" y="-0.547485" width="30" height="30"/>
<path d="M4.75374 0.713071C5.08559 1.62398 5.32575 2.56571 5.47062 3.5243V3.51025C5.4833 3.55548 5.48675 3.6028 5.48083 3.6494C5.47491 3.696 5.45972 3.74094 5.43613 3.78157C5.41254 3.82219 5.38101 3.85767 5.34348 3.88591C5.30594 3.91415 5.26319 3.93458 5.21762 3.94599C5.13009 3.96791 5.03746 3.95534 4.95896 3.91085C4.88046 3.86637 4.82204 3.79338 4.79587 3.70703C4.64498 2.74968 4.40506 1.80851 4.07908 0.895808C4.05298 0.806338 4.06343 0.710176 4.10825 0.628459C4.15306 0.546742 4.22854 0.486167 4.31801 0.460071C4.40901 0.441636 4.50357 0.457199 4.58387 0.503825C4.66418 0.550451 4.72464 0.624895 4.75374 0.713071Z"/>
<path d="M0.677378 5.85777C1.46777 6.12052 2.23819 6.43997 2.9826 6.81359C3.02237 6.84251 3.06775 6.86275 3.11584 6.87303C3.16392 6.8833 3.21366 6.88338 3.26177 6.87324C3.30988 6.8631 3.35533 6.84298 3.39518 6.81417C3.43502 6.78537 3.46835 6.74852 3.49307 6.70601C3.51778 6.6635 3.5333 6.61627 3.53862 6.56739C3.54394 6.51851 3.53894 6.46906 3.52395 6.42223C3.50896 6.37541 3.48435 6.33224 3.45163 6.29554C3.41891 6.25884 3.37881 6.22942 3.33401 6.20917C2.53713 5.80374 1.71001 5.46068 0.860114 5.18308C0.774354 5.16921 0.68655 5.18758 0.613549 5.23468C0.540548 5.28178 0.487582 5.35426 0.464871 5.43812C0.442161 5.52197 0.451267 5.61126 0.490523 5.68876C0.529779 5.76626 0.596338 5.82646 0.677378 5.85777Z"/>
<path d="M22.2676 24.3133L21.7897 24.6928V24.6788C21.7437 24.7196 21.6916 24.7528 21.6351 24.7772H21.5367C21.4918 24.7823 21.4463 24.776 21.4045 24.7588C21.3627 24.7416 21.326 24.714 21.2978 24.6788C21.2868 24.6421 21.2868 24.603 21.2978 24.5663C21.2837 24.5205 21.2837 24.4716 21.2978 24.4258C21.2857 24.3845 21.2857 24.3405 21.2978 24.2992C21.2868 24.2626 21.2868 24.2235 21.2978 24.1868L21.7756 23.8073C21.814 23.7573 21.8687 23.7224 21.9302 23.7089H22.0146C22.0622 23.7095 22.1092 23.7198 22.1527 23.7391C22.1962 23.7585 22.2353 23.7864 22.2676 23.8213C22.2818 23.8575 22.2818 23.8976 22.2676 23.9338C22.2775 23.9534 22.2827 23.9751 22.2827 23.997C22.2827 24.019 22.2775 24.0407 22.2676 24.0603C22.2778 24.0823 22.2829 24.1063 22.2829 24.1306C22.2829 24.1548 22.2778 24.1788 22.2676 24.2009C22.2786 24.2375 22.2786 24.2766 22.2676 24.3133Z"/>
<path fill-rule="evenodd" clip-rule="evenodd" d="M13.3771 25.2513C13.2922 25.2859 13.1912 25.2776 13.089 25.1991C11.9596 24.131 11.0103 22.8874 10.2778 21.5164C9.85317 20.8813 9.33145 20.3168 8.73166 19.8437C8.14516 19.5066 7.58166 19.1309 7.04491 18.7192C6.86104 18.4818 6.73652 18.204 6.68184 17.9088C6.62715 17.6136 6.64383 17.3096 6.73048 17.0221C6.81713 16.7346 6.9713 16.4721 7.18003 16.2563C7.38876 16.0404 7.64604 15.8777 7.93045 15.7815C8.65917 15.4763 9.36131 15.4774 10.0179 15.685C9.18628 14.58 8.36825 13.4512 7.60742 12.3796C7.15763 11.7471 6.72191 11.0302 6.31428 10.3415C5.92633 9.74135 5.60579 9.10026 5.35848 8.42983C5.27419 8.16283 5.25238 7.88003 5.29473 7.60327C5.33709 7.3265 5.44252 7.06317 5.60281 6.83361C5.7631 6.60404 5.974 6.41438 6.21923 6.27926C6.46445 6.14415 6.7374 6.06719 7.01709 6.05434C7.70077 6.03899 8.3796 6.17319 9.006 6.44754C9.63241 6.7219 10.1913 7.12979 10.6436 7.64269C11.6768 8.54138 12.5743 9.58435 13.3086 10.739C14.183 10.6194 15.0169 10.323 15.8507 10.0266C16.93 9.64295 18.0092 9.25939 19.1754 9.25939C20.0031 9.31897 20.8025 9.58579 21.5001 10.0353C22.1977 10.4848 22.771 11.1025 23.1673 11.8317L25.1914 14.6429C25.8518 15.3807 26.3797 16.2272 26.7517 17.1449C26.9062 18.0192 26.7626 18.9201 26.344 19.7031L26.3336 19.7281C26.3692 19.765 26.3967 19.8091 26.4142 19.8573C26.937 20.6598 27.5712 21.3839 28.2977 22.0079C28.3301 22.0412 28.3555 22.0804 28.3726 22.1235C28.3819 22.1467 28.3886 22.1707 28.3927 22.1952C28.4957 22.3198 28.5158 22.497 28.3539 22.6265C25.7428 24.7933 23.0116 26.8112 20.1732 28.6706C20.0917 28.727 20.0101 28.7401 19.9367 28.7237C19.8683 28.7154 19.7993 28.6816 19.7376 28.6143L17.2268 25.8851C17.1919 25.8863 17.1571 25.8824 17.1233 25.8734L13.3771 25.2513ZM11.4729 16.3997L11.1711 16.0061C10.2579 14.8155 9.34123 13.6203 8.49297 12.3796C8.0338 11.7143 7.59807 11.0396 7.18576 10.3555C6.6955 9.67955 6.31594 8.92989 6.06128 8.13464C5.85044 7.19288 6.77818 6.72903 7.59344 6.72903C8.4061 6.83555 9.16652 7.18879 9.77212 7.74107C10.9982 8.74842 12.0398 9.96125 12.8504 11.3254C12.9425 11.4809 13.1007 11.5089 13.2389 11.4638L13.2859 11.5224C14.2343 11.4039 15.1204 11.0854 16.0068 10.7668C16.6969 10.5187 17.3872 10.2706 18.1071 10.1168C19.0506 9.87468 20.05 9.98462 20.9184 10.4261C21.5998 10.9106 22.1819 11.5213 22.6332 12.2252L24.334 14.5726C24.9134 15.2807 25.4441 16.0275 25.9223 16.8075C26.7798 18.424 25.2898 20.6027 24.334 21.8959C24.0669 22.2613 24.6854 22.5987 24.9384 22.2473C25.3316 21.691 25.6808 21.1054 25.9831 20.4958C26.4567 21.1649 27.0009 21.7813 27.6063 22.3342C25.1878 24.3262 22.6643 26.1874 20.0467 27.9096L18.1476 25.8453H19.0069C19.099 25.8418 19.1863 25.8037 19.2515 25.7385C19.3167 25.6734 19.3548 25.586 19.3583 25.4939C19.3583 25.4007 19.3213 25.3113 19.2554 25.2454C19.1895 25.1795 19.1001 25.1425 19.0069 25.1425H17.3483C17.3014 25.1425 17.2555 25.1519 17.2131 25.1696L13.4124 24.5521C13.4063 24.5509 13.4001 24.5498 13.3939 24.5489C12.3552 23.523 11.4796 22.3438 10.7979 21.0525C10.3716 20.4274 9.86072 19.8645 9.27978 19.3798C8.97695 19.1529 8.66263 18.9418 8.33805 18.7473C8.02298 18.6041 7.7371 18.404 7.49471 18.157C6.97464 17.4963 7.59306 16.667 8.23964 16.414C8.59581 16.2921 8.9745 16.2503 9.34867 16.2916C9.72285 16.3329 10.0833 16.4563 10.4043 16.653C11.8013 17.5712 12.8695 18.9102 13.4545 20.4762C13.6232 20.8979 14.2978 20.7152 14.1292 20.2935C13.64 19.0935 12.6936 17.511 11.4731 16.5091C11.4679 16.4559 11.446 16.3998 11.4026 16.3434L11.4729 16.3997Z"/>
<path d="M2.25161 9.93378H1.39421C1.34752 9.9358 1.30093 9.92811 1.25737 9.91117C1.21382 9.89423 1.17427 9.86843 1.14121 9.83539C1.10745 9.80288 1.08116 9.76341 1.06417 9.71973C1.04718 9.67604 1.03988 9.62916 1.04281 9.58237C1.041 9.5378 1.0489 9.49339 1.06588 9.45214C1.08287 9.4109 1.10855 9.3738 1.14121 9.34342C1.21049 9.27853 1.29962 9.23891 1.39421 9.23097H2.25161C2.29829 9.22898 2.34492 9.23673 2.38845 9.25368C2.43199 9.27064 2.47149 9.29645 2.50453 9.32948C2.53756 9.36252 2.56341 9.40207 2.58037 9.4456C2.59732 9.48913 2.60501 9.5357 2.60302 9.58237C2.60041 9.67135 2.5655 9.75634 2.5047 9.82135C2.43542 9.88624 2.3462 9.92584 2.25161 9.93378Z"/>
<path d="M9.81398 3.35545L10.1935 1.94983C10.2063 1.90646 10.2102 1.86096 10.205 1.81604C10.1998 1.77113 10.1857 1.72772 10.1634 1.68838C10.1411 1.64905 10.1111 1.61459 10.0752 1.58706C10.0394 1.55954 9.99836 1.5395 9.9546 1.52815C9.86522 1.5057 9.77064 1.51785 9.68984 1.56216C9.60904 1.60647 9.54798 1.67967 9.51886 1.7671L9.13932 3.17271C9.12657 3.21609 9.12264 3.26159 9.12782 3.3065C9.133 3.35142 9.14714 3.39485 9.16943 3.43418C9.19172 3.47352 9.22175 3.50796 9.25762 3.53548C9.29349 3.56301 9.33448 3.58305 9.37825 3.5944C9.46762 3.61684 9.5622 3.60469 9.643 3.56038C9.7238 3.51607 9.78486 3.44288 9.81398 3.35545Z"/>
</mask>
<path d="M4.75374 0.713071C5.08559 1.62398 5.32575 2.56571 5.47062 3.5243V3.51025C5.4833 3.55548 5.48675 3.6028 5.48083 3.6494C5.47491 3.696 5.45972 3.74094 5.43613 3.78157C5.41254 3.82219 5.38101 3.85767 5.34348 3.88591C5.30594 3.91415 5.26319 3.93458 5.21762 3.94599C5.13009 3.96791 5.03746 3.95534 4.95896 3.91085C4.88046 3.86637 4.82204 3.79338 4.79587 3.70703C4.64498 2.74968 4.40506 1.80851 4.07908 0.895808C4.05298 0.806338 4.06343 0.710176 4.10825 0.628459C4.15306 0.546742 4.22854 0.486167 4.31801 0.460071C4.40901 0.441636 4.50357 0.457199 4.58387 0.503825C4.66418 0.550451 4.72464 0.624895 4.75374 0.713071Z" fill="#604635"/>
<path d="M0.677378 5.85777C1.46777 6.12052 2.23819 6.43997 2.9826 6.81359C3.02237 6.84251 3.06775 6.86275 3.11584 6.87303C3.16392 6.8833 3.21366 6.88338 3.26177 6.87324C3.30988 6.8631 3.35533 6.84298 3.39518 6.81417C3.43502 6.78537 3.46835 6.74852 3.49307 6.70601C3.51778 6.6635 3.5333 6.61627 3.53862 6.56739C3.54394 6.51851 3.53894 6.46906 3.52395 6.42223C3.50896 6.37541 3.48435 6.33224 3.45163 6.29554C3.41891 6.25884 3.37881 6.22942 3.33401 6.20917C2.53713 5.80374 1.71001 5.46068 0.860114 5.18308C0.774354 5.16921 0.68655 5.18758 0.613549 5.23468C0.540548 5.28178 0.487582 5.35426 0.464871 5.43812C0.442161 5.52197 0.451267 5.61126 0.490523 5.68876C0.529779 5.76626 0.596338 5.82646 0.677378 5.85777Z" fill="#604635"/>
<path d="M22.2676 24.3133L21.7897 24.6928V24.6788C21.7437 24.7196 21.6916 24.7528 21.6351 24.7772H21.5367C21.4918 24.7823 21.4463 24.776 21.4045 24.7588C21.3627 24.7416 21.326 24.714 21.2978 24.6788C21.2868 24.6421 21.2868 24.603 21.2978 24.5663C21.2837 24.5205 21.2837 24.4716 21.2978 24.4258C21.2857 24.3845 21.2857 24.3405 21.2978 24.2992C21.2868 24.2626 21.2868 24.2235 21.2978 24.1868L21.7756 23.8073C21.814 23.7573 21.8687 23.7224 21.9302 23.7089H22.0146C22.0622 23.7095 22.1092 23.7198 22.1527 23.7391C22.1962 23.7585 22.2353 23.7864 22.2676 23.8213C22.2818 23.8575 22.2818 23.8976 22.2676 23.9338C22.2775 23.9534 22.2827 23.9751 22.2827 23.997C22.2827 24.019 22.2775 24.0407 22.2676 24.0603C22.2778 24.0823 22.2829 24.1063 22.2829 24.1306C22.2829 24.1548 22.2778 24.1788 22.2676 24.2009C22.2786 24.2375 22.2786 24.2766 22.2676 24.3133Z" fill="#604635"/>
<path fill-rule="evenodd" clip-rule="evenodd" d="M13.3771 25.2513C13.2922 25.2859 13.1912 25.2776 13.089 25.1991C11.9596 24.131 11.0103 22.8874 10.2778 21.5164C9.85317 20.8813 9.33145 20.3168 8.73166 19.8437C8.14516 19.5066 7.58166 19.1309 7.04491 18.7192C6.86104 18.4818 6.73652 18.204 6.68184 17.9088C6.62715 17.6136 6.64383 17.3096 6.73048 17.0221C6.81713 16.7346 6.9713 16.4721 7.18003 16.2563C7.38876 16.0404 7.64604 15.8777 7.93045 15.7815C8.65917 15.4763 9.36131 15.4774 10.0179 15.685C9.18628 14.58 8.36825 13.4512 7.60742 12.3796C7.15763 11.7471 6.72191 11.0302 6.31428 10.3415C5.92633 9.74135 5.60579 9.10026 5.35848 8.42983C5.27419 8.16283 5.25238 7.88003 5.29473 7.60327C5.33709 7.3265 5.44252 7.06317 5.60281 6.83361C5.7631 6.60404 5.974 6.41438 6.21923 6.27926C6.46445 6.14415 6.7374 6.06719 7.01709 6.05434C7.70077 6.03899 8.3796 6.17319 9.006 6.44754C9.63241 6.7219 10.1913 7.12979 10.6436 7.64269C11.6768 8.54138 12.5743 9.58435 13.3086 10.739C14.183 10.6194 15.0169 10.323 15.8507 10.0266C16.93 9.64295 18.0092 9.25939 19.1754 9.25939C20.0031 9.31897 20.8025 9.58579 21.5001 10.0353C22.1977 10.4848 22.771 11.1025 23.1673 11.8317L25.1914 14.6429C25.8518 15.3807 26.3797 16.2272 26.7517 17.1449C26.9062 18.0192 26.7626 18.9201 26.344 19.7031L26.3336 19.7281C26.3692 19.765 26.3967 19.8091 26.4142 19.8573C26.937 20.6598 27.5712 21.3839 28.2977 22.0079C28.3301 22.0412 28.3555 22.0804 28.3726 22.1235C28.3819 22.1467 28.3886 22.1707 28.3927 22.1952C28.4957 22.3198 28.5158 22.497 28.3539 22.6265C25.7428 24.7933 23.0116 26.8112 20.1732 28.6706C20.0917 28.727 20.0101 28.7401 19.9367 28.7237C19.8683 28.7154 19.7993 28.6816 19.7376 28.6143L17.2268 25.8851C17.1919 25.8863 17.1571 25.8824 17.1233 25.8734L13.3771 25.2513ZM11.4729 16.3997L11.1711 16.0061C10.2579 14.8155 9.34123 13.6203 8.49297 12.3796C8.0338 11.7143 7.59807 11.0396 7.18576 10.3555C6.6955 9.67955 6.31594 8.92989 6.06128 8.13464C5.85044 7.19288 6.77818 6.72903 7.59344 6.72903C8.4061 6.83555 9.16652 7.18879 9.77212 7.74107C10.9982 8.74842 12.0398 9.96125 12.8504 11.3254C12.9425 11.4809 13.1007 11.5089 13.2389 11.4638L13.2859 11.5224C14.2343 11.4039 15.1204 11.0854 16.0068 10.7668C16.6969 10.5187 17.3872 10.2706 18.1071 10.1168C19.0506 9.87468 20.05 9.98462 20.9184 10.4261C21.5998 10.9106 22.1819 11.5213 22.6332 12.2252L24.334 14.5726C24.9134 15.2807 25.4441 16.0275 25.9223 16.8075C26.7798 18.424 25.2898 20.6027 24.334 21.8959C24.0669 22.2613 24.6854 22.5987 24.9384 22.2473C25.3316 21.691 25.6808 21.1054 25.9831 20.4958C26.4567 21.1649 27.0009 21.7813 27.6063 22.3342C25.1878 24.3262 22.6643 26.1874 20.0467 27.9096L18.1476 25.8453H19.0069C19.099 25.8418 19.1863 25.8037 19.2515 25.7385C19.3167 25.6734 19.3548 25.586 19.3583 25.4939C19.3583 25.4007 19.3213 25.3113 19.2554 25.2454C19.1895 25.1795 19.1001 25.1425 19.0069 25.1425H17.3483C17.3014 25.1425 17.2555 25.1519 17.2131 25.1696L13.4124 24.5521C13.4063 24.5509 13.4001 24.5498 13.3939 24.5489C12.3552 23.523 11.4796 22.3438 10.7979 21.0525C10.3716 20.4274 9.86072 19.8645 9.27978 19.3798C8.97695 19.1529 8.66263 18.9418 8.33805 18.7473C8.02298 18.6041 7.7371 18.404 7.49471 18.157C6.97464 17.4963 7.59306 16.667 8.23964 16.414C8.59581 16.2921 8.9745 16.2503 9.34867 16.2916C9.72285 16.3329 10.0833 16.4563 10.4043 16.653C11.8013 17.5712 12.8695 18.9102 13.4545 20.4762C13.6232 20.8979 14.2978 20.7152 14.1292 20.2935C13.64 19.0935 12.6936 17.511 11.4731 16.5091C11.4679 16.4559 11.446 16.3998 11.4026 16.3434L11.4729 16.3997Z" fill="#604635"/>
<path d="M2.25161 9.93378H1.39421C1.34752 9.9358 1.30093 9.92811 1.25737 9.91117C1.21382 9.89423 1.17427 9.86843 1.14121 9.83539C1.10745 9.80288 1.08116 9.76341 1.06417 9.71973C1.04718 9.67604 1.03988 9.62916 1.04281 9.58237C1.041 9.5378 1.0489 9.49339 1.06588 9.45214C1.08287 9.4109 1.10855 9.3738 1.14121 9.34342C1.21049 9.27853 1.29962 9.23891 1.39421 9.23097H2.25161C2.29829 9.22898 2.34492 9.23673 2.38845 9.25368C2.43199 9.27064 2.47149 9.29645 2.50453 9.32948C2.53756 9.36252 2.56341 9.40207 2.58037 9.4456C2.59732 9.48913 2.60501 9.5357 2.60302 9.58237C2.60041 9.67135 2.5655 9.75634 2.5047 9.82135C2.43542 9.88624 2.3462 9.92584 2.25161 9.93378Z" fill="#604635"/>
<path d="M9.81398 3.35545L10.1935 1.94983C10.2063 1.90646 10.2102 1.86096 10.205 1.81604C10.1998 1.77113 10.1857 1.72772 10.1634 1.68838C10.1411 1.64905 10.1111 1.61459 10.0752 1.58706C10.0394 1.55954 9.99836 1.5395 9.9546 1.52815C9.86522 1.5057 9.77064 1.51785 9.68984 1.56216C9.60904 1.60647 9.54798 1.67967 9.51886 1.7671L9.13932 3.17271C9.12657 3.21609 9.12264 3.26159 9.12782 3.3065C9.133 3.35142 9.14714 3.39485 9.16943 3.43418C9.19172 3.47352 9.22175 3.50796 9.25762 3.53548C9.29349 3.56301 9.33448 3.58305 9.37825 3.5944C9.46762 3.61684 9.5622 3.60469 9.643 3.56038C9.7238 3.51607 9.78486 3.44288 9.81398 3.35545Z" fill="#604635"/>
<path d="M4.75374 0.713071C5.08559 1.62398 5.32575 2.56571 5.47062 3.5243V3.51025C5.4833 3.55548 5.48675 3.6028 5.48083 3.6494C5.47491 3.696 5.45972 3.74094 5.43613 3.78157C5.41254 3.82219 5.38101 3.85767 5.34348 3.88591C5.30594 3.91415 5.26319 3.93458 5.21762 3.94599C5.13009 3.96791 5.03746 3.95534 4.95896 3.91085C4.88046 3.86637 4.82204 3.79338 4.79587 3.70703C4.64498 2.74968 4.40506 1.80851 4.07908 0.895808C4.05298 0.806338 4.06343 0.710176 4.10825 0.628459C4.15306 0.546742 4.22854 0.486167 4.31801 0.460071C4.40901 0.441636 4.50357 0.457199 4.58387 0.503825C4.66418 0.550451 4.72464 0.624895 4.75374 0.713071Z" stroke="#604635" stroke-width="0.905082" stroke-linejoin="round" mask="url(#path-1-outside-1_16_547)"/>
<path d="M0.677378 5.85777C1.46777 6.12052 2.23819 6.43997 2.9826 6.81359C3.02237 6.84251 3.06775 6.86275 3.11584 6.87303C3.16392 6.8833 3.21366 6.88338 3.26177 6.87324C3.30988 6.8631 3.35533 6.84298 3.39518 6.81417C3.43502 6.78537 3.46835 6.74852 3.49307 6.70601C3.51778 6.6635 3.5333 6.61627 3.53862 6.56739C3.54394 6.51851 3.53894 6.46906 3.52395 6.42223C3.50896 6.37541 3.48435 6.33224 3.45163 6.29554C3.41891 6.25884 3.37881 6.22942 3.33401 6.20917C2.53713 5.80374 1.71001 5.46068 0.860114 5.18308C0.774354 5.16921 0.68655 5.18758 0.613549 5.23468C0.540548 5.28178 0.487582 5.35426 0.464871 5.43812C0.442161 5.52197 0.451267 5.61126 0.490523 5.68876C0.529779 5.76626 0.596338 5.82646 0.677378 5.85777Z" stroke="#604635" stroke-width="0.905082" stroke-linejoin="round" mask="url(#path-1-outside-1_16_547)"/>
<path d="M22.2676 24.3133L21.7897 24.6928V24.6788C21.7437 24.7196 21.6916 24.7528 21.6351 24.7772H21.5367C21.4918 24.7823 21.4463 24.776 21.4045 24.7588C21.3627 24.7416 21.326 24.714 21.2978 24.6788C21.2868 24.6421 21.2868 24.603 21.2978 24.5663C21.2837 24.5205 21.2837 24.4716 21.2978 24.4258C21.2857 24.3845 21.2857 24.3405 21.2978 24.2992C21.2868 24.2626 21.2868 24.2235 21.2978 24.1868L21.7756 23.8073C21.814 23.7573 21.8687 23.7224 21.9302 23.7089H22.0146C22.0622 23.7095 22.1092 23.7198 22.1527 23.7391C22.1962 23.7585 22.2353 23.7864 22.2676 23.8213C22.2818 23.8575 22.2818 23.8976 22.2676 23.9338C22.2775 23.9534 22.2827 23.9751 22.2827 23.997C22.2827 24.019 22.2775 24.0407 22.2676 24.0603C22.2778 24.0823 22.2829 24.1063 22.2829 24.1306C22.2829 24.1548 22.2778 24.1788 22.2676 24.2009C22.2786 24.2375 22.2786 24.2766 22.2676 24.3133Z" stroke="#604635" stroke-width="0.905082" stroke-linejoin="round" mask="url(#path-1-outside-1_16_547)"/>
<path fill-rule="evenodd" clip-rule="evenodd" d="M13.3771 25.2513C13.2922 25.2859 13.1912 25.2776 13.089 25.1991C11.9596 24.131 11.0103 22.8874 10.2778 21.5164C9.85317 20.8813 9.33145 20.3168 8.73166 19.8437C8.14516 19.5066 7.58166 19.1309 7.04491 18.7192C6.86104 18.4818 6.73652 18.204 6.68184 17.9088C6.62715 17.6136 6.64383 17.3096 6.73048 17.0221C6.81713 16.7346 6.9713 16.4721 7.18003 16.2563C7.38876 16.0404 7.64604 15.8777 7.93045 15.7815C8.65917 15.4763 9.36131 15.4774 10.0179 15.685C9.18628 14.58 8.36825 13.4512 7.60742 12.3796C7.15763 11.7471 6.72191 11.0302 6.31428 10.3415C5.92633 9.74135 5.60579 9.10026 5.35848 8.42983C5.27419 8.16283 5.25238 7.88003 5.29473 7.60327C5.33709 7.3265 5.44252 7.06317 5.60281 6.83361C5.7631 6.60404 5.974 6.41438 6.21923 6.27926C6.46445 6.14415 6.7374 6.06719 7.01709 6.05434C7.70077 6.03899 8.3796 6.17319 9.006 6.44754C9.63241 6.7219 10.1913 7.12979 10.6436 7.64269C11.6768 8.54138 12.5743 9.58435 13.3086 10.739C14.183 10.6194 15.0169 10.323 15.8507 10.0266C16.93 9.64295 18.0092 9.25939 19.1754 9.25939C20.0031 9.31897 20.8025 9.58579 21.5001 10.0353C22.1977 10.4848 22.771 11.1025 23.1673 11.8317L25.1914 14.6429C25.8518 15.3807 26.3797 16.2272 26.7517 17.1449C26.9062 18.0192 26.7626 18.9201 26.344 19.7031L26.3336 19.7281C26.3692 19.765 26.3967 19.8091 26.4142 19.8573C26.937 20.6598 27.5712 21.3839 28.2977 22.0079C28.3301 22.0412 28.3555 22.0804 28.3726 22.1235C28.3819 22.1467 28.3886 22.1707 28.3927 22.1952C28.4957 22.3198 28.5158 22.497 28.3539 22.6265C25.7428 24.7933 23.0116 26.8112 20.1732 28.6706C20.0917 28.727 20.0101 28.7401 19.9367 28.7237C19.8683 28.7154 19.7993 28.6816 19.7376 28.6143L17.2268 25.8851C17.1919 25.8863 17.1571 25.8824 17.1233 25.8734L13.3771 25.2513ZM11.4729 16.3997L11.1711 16.0061C10.2579 14.8155 9.34123 13.6203 8.49297 12.3796C8.0338 11.7143 7.59807 11.0396 7.18576 10.3555C6.6955 9.67955 6.31594 8.92989 6.06128 8.13464C5.85044 7.19288 6.77818 6.72903 7.59344 6.72903C8.4061 6.83555 9.16652 7.18879 9.77212 7.74107C10.9982 8.74842 12.0398 9.96125 12.8504 11.3254C12.9425 11.4809 13.1007 11.5089 13.2389 11.4638L13.2859 11.5224C14.2343 11.4039 15.1204 11.0854 16.0068 10.7668C16.6969 10.5187 17.3872 10.2706 18.1071 10.1168C19.0506 9.87468 20.05 9.98462 20.9184 10.4261C21.5998 10.9106 22.1819 11.5213 22.6332 12.2252L24.334 14.5726C24.9134 15.2807 25.4441 16.0275 25.9223 16.8075C26.7798 18.424 25.2898 20.6027 24.334 21.8959C24.0669 22.2613 24.6854 22.5987 24.9384 22.2473C25.3316 21.691 25.6808 21.1054 25.9831 20.4958C26.4567 21.1649 27.0009 21.7813 27.6063 22.3342C25.1878 24.3262 22.6643 26.1874 20.0467 27.9096L18.1476 25.8453H19.0069C19.099 25.8418 19.1863 25.8037 19.2515 25.7385C19.3167 25.6734 19.3548 25.586 19.3583 25.4939C19.3583 25.4007 19.3213 25.3113 19.2554 25.2454C19.1895 25.1795 19.1001 25.1425 19.0069 25.1425H17.3483C17.3014 25.1425 17.2555 25.1519 17.2131 25.1696L13.4124 24.5521C13.4063 24.5509 13.4001 24.5498 13.3939 24.5489C12.3552 23.523 11.4796 22.3438 10.7979 21.0525C10.3716 20.4274 9.86072 19.8645 9.27978 19.3798C8.97695 19.1529 8.66263 18.9418 8.33805 18.7473C8.02298 18.6041 7.7371 18.404 7.49471 18.157C6.97464 17.4963 7.59306 16.667 8.23964 16.414C8.59581 16.2921 8.9745 16.2503 9.34867 16.2916C9.72285 16.3329 10.0833 16.4563 10.4043 16.653C11.8013 17.5712 12.8695 18.9102 13.4545 20.4762C13.6232 20.8979 14.2978 20.7152 14.1292 20.2935C13.64 19.0935 12.6936 17.511 11.4731 16.5091C11.4679 16.4559 11.446 16.3998 11.4026 16.3434L11.4729 16.3997Z" stroke="#604635" stroke-width="0.905082" stroke-linejoin="round" mask="url(#path-1-outside-1_16_547)"/>
<path d="M2.25161 9.93378H1.39421C1.34752 9.9358 1.30093 9.92811 1.25737 9.91117C1.21382 9.89423 1.17427 9.86843 1.14121 9.83539C1.10745 9.80288 1.08116 9.76341 1.06417 9.71973C1.04718 9.67604 1.03988 9.62916 1.04281 9.58237C1.041 9.5378 1.0489 9.49339 1.06588 9.45214C1.08287 9.4109 1.10855 9.3738 1.14121 9.34342C1.21049 9.27853 1.29962 9.23891 1.39421 9.23097H2.25161C2.29829 9.22898 2.34492 9.23673 2.38845 9.25368C2.43199 9.27064 2.47149 9.29645 2.50453 9.32948C2.53756 9.36252 2.56341 9.40207 2.58037 9.4456C2.59732 9.48913 2.60501 9.5357 2.60302 9.58237C2.60041 9.67135 2.5655 9.75634 2.5047 9.82135C2.43542 9.88624 2.3462 9.92584 2.25161 9.93378Z" stroke="#604635" stroke-width="0.905082" stroke-linejoin="round" mask="url(#path-1-outside-1_16_547)"/>
<path d="M9.81398 3.35545L10.1935 1.94983C10.2063 1.90646 10.2102 1.86096 10.205 1.81604C10.1998 1.77113 10.1857 1.72772 10.1634 1.68838C10.1411 1.64905 10.1111 1.61459 10.0752 1.58706C10.0394 1.55954 9.99836 1.5395 9.9546 1.52815C9.86522 1.5057 9.77064 1.51785 9.68984 1.56216C9.60904 1.60647 9.54798 1.67967 9.51886 1.7671L9.13932 3.17271C9.12657 3.21609 9.12264 3.26159 9.12782 3.3065C9.133 3.35142 9.14714 3.39485 9.16943 3.43418C9.19172 3.47352 9.22175 3.50796 9.25762 3.53548C9.29349 3.56301 9.33448 3.58305 9.37825 3.5944C9.46762 3.61684 9.5622 3.60469 9.643 3.56038C9.7238 3.51607 9.78486 3.44288 9.81398 3.35545Z" stroke="#604635" stroke-width="0.905082" stroke-linejoin="round" mask="url(#path-1-outside-1_16_547)"/>
</svg>
