<?xml version="1.0" encoding="UTF-8"?>
<svg id="Layer_1" data-name="Layer 1" xmlns="http://www.w3.org/2000/svg" xmlns:xlink="http://www.w3.org/1999/xlink" viewBox="0 0 24.1 23.58">
  <defs>
    <style>
      .cls-1 {
        mask: url(#mask);
      }

      .cls-2 {
        mask: url(#mask-1);
      }

      .cls-3, .cls-4 {
        fill-rule: evenodd;
      }

      .cls-5 {
        fill: none;
        stroke: #604635;
        stroke-linejoin: round;
        stroke-width: .91px;
      }

      .cls-6 {
        fill: #fff;
      }

      .cls-7, .cls-4 {
        fill: #604635;
      }
    </style>
    <mask id="mask" x="-5.37" y="-6.15" width="30" height="30" maskUnits="userSpaceOnUse">
      <g id="path-1-outside-1_16_547" data-name="path-1-outside-1 16 547">
        <rect class="cls-6" x="-5.37" y="-6.15" width="30" height="30"/>
        <path d="M17.45,18.71l-.48.38h0s-.1.06-.15.08h-.1s-.09,0-.13-.02c-.04-.02-.08-.04-.11-.08-.01-.04-.01-.08,0-.11-.01-.05-.01-.09,0-.14-.01-.04-.01-.09,0-.13-.01-.04-.01-.08,0-.11l.48-.38c.04-.05.09-.08.15-.1h.08s.09.01.14.03c.04.02.08.05.11.08.01.04.01.08,0,.11,0,.02.02.04.02.06s0,.04-.02.06c.01.02.02.05.02.07s0,.05-.02.07c.01.04.01.08,0,.11Z"/>
        <path class="cls-3" d="M8.56,19.65c-.08.03-.19.03-.29-.05-1.13-1.07-2.08-2.31-2.81-3.68-.42-.64-.95-1.2-1.55-1.67-.59-.34-1.15-.71-1.69-1.12-.18-.24-.31-.52-.36-.81-.05-.3-.04-.6.05-.89.09-.29.24-.55.45-.77.21-.22.47-.38.75-.47.73-.31,1.43-.3,2.09-.1-.83-1.11-1.65-2.23-2.41-3.31-.45-.63-.89-1.35-1.29-2.04-.39-.6-.71-1.24-.96-1.91-.08-.27-.11-.55-.06-.83.04-.28.15-.54.31-.77.16-.23.37-.42.62-.55.25-.14.52-.21.8-.22.68-.02,1.36.12,1.99.39.63.27,1.19.68,1.64,1.2,1.03.9,1.93,1.94,2.66,3.1.87-.12,1.71-.42,2.54-.71,1.08-.38,2.16-.77,3.32-.77.83.06,1.63.33,2.32.78.7.45,1.27,1.07,1.67,1.8l2.02,2.81c.66.74,1.19,1.58,1.56,2.5.15.87.01,1.78-.41,2.56v.02s.05.08.07.13c.52.8,1.16,1.53,1.88,2.15.03.03.06.07.07.12,0,.02.02.05.02.07.1.12.12.3-.04.43-2.61,2.17-5.34,4.18-8.18,6.04-.08.06-.16.07-.24.05-.07,0-.14-.04-.2-.11l-2.51-2.73s-.07,0-.1-.01l-3.75-.62ZM6.65,10.8l-.3-.39c-.91-1.19-1.83-2.39-2.68-3.63-.46-.67-.89-1.34-1.31-2.02-.49-.68-.87-1.43-1.12-2.22-.21-.94.72-1.41,1.53-1.41.81.11,1.57.46,2.18,1.01,1.23,1.01,2.27,2.22,3.08,3.58.09.16.25.18.39.14l.05.06c.95-.12,1.83-.44,2.72-.76.69-.25,1.38-.5,2.1-.65.94-.24,1.94-.13,2.81.31.68.48,1.26,1.1,1.71,1.8l1.7,2.35c.58.71,1.11,1.45,1.59,2.23.86,1.62-.63,3.8-1.59,5.09-.27.37.35.7.6.35.39-.56.74-1.14,1.04-1.75.47.67,1.02,1.29,1.62,1.84-2.42,1.99-4.94,3.85-7.56,5.58l-1.9-2.06h.86c.09,0,.18-.04.24-.11.07-.07.1-.15.11-.24,0-.09-.04-.18-.1-.25s-.16-.1-.25-.1h-1.66s-.09,0-.14.03l-3.8-.62s-.01,0-.02,0c-1.04-1.03-1.91-2.21-2.6-3.5-.43-.63-.94-1.19-1.52-1.67-.3-.23-.62-.44-.94-.63-.32-.14-.6-.34-.84-.59-.52-.66.1-1.49.74-1.74.36-.12.73-.16,1.11-.12.37.04.73.16,1.06.36,1.4.92,2.47,2.26,3.05,3.82.17.42.84.24.67-.18-.49-1.2-1.44-2.78-2.66-3.78,0-.05-.03-.11-.07-.17l.07.06Z"/>
      </g>
    </mask>
    <mask id="mask-1" x="-5.37" y="-6.15" width="30" height="30" maskUnits="userSpaceOnUse">
      <g id="path-1-outside-1_16_547-2" data-name="path-1-outside-1 16 547">
        <rect class="cls-6" x="-5.37" y="-6.15" width="30" height="30"/>
        <path d="M17.45,18.71l-.48.38h0s-.1.06-.15.08h-.1s-.09,0-.13-.02c-.04-.02-.08-.04-.11-.08-.01-.04-.01-.08,0-.11-.01-.05-.01-.09,0-.14-.01-.04-.01-.09,0-.13-.01-.04-.01-.08,0-.11l.48-.38c.04-.05.09-.08.15-.1h.08s.09.01.14.03c.04.02.08.05.11.08.01.04.01.08,0,.11,0,.02.02.04.02.06s0,.04-.02.06c.01.02.02.05.02.07s0,.05-.02.07c.01.04.01.08,0,.11Z"/>
        <path class="cls-3" d="M8.56,19.65c-.08.03-.19.03-.29-.05-1.13-1.07-2.08-2.31-2.81-3.68-.42-.64-.95-1.2-1.55-1.67-.59-.34-1.15-.71-1.69-1.12-.18-.24-.31-.52-.36-.81-.05-.3-.04-.6.05-.89.09-.29.24-.55.45-.77.21-.22.47-.38.75-.47.73-.31,1.43-.3,2.09-.1-.83-1.11-1.65-2.23-2.41-3.31-.45-.63-.89-1.35-1.29-2.04-.39-.6-.71-1.24-.96-1.91-.08-.27-.11-.55-.06-.83.04-.28.15-.54.31-.77.16-.23.37-.42.62-.55.25-.14.52-.21.8-.22.68-.02,1.36.12,1.99.39.63.27,1.19.68,1.64,1.2,1.03.9,1.93,1.94,2.66,3.1.87-.12,1.71-.42,2.54-.71,1.08-.38,2.16-.77,3.32-.77.83.06,1.63.33,2.32.78.7.45,1.27,1.07,1.67,1.8l2.02,2.81c.66.74,1.19,1.58,1.56,2.5.15.87.01,1.78-.41,2.56v.02s.05.08.07.13c.52.8,1.16,1.53,1.88,2.15.03.03.06.07.07.12,0,.02.02.05.02.07.1.12.12.3-.04.43-2.61,2.17-5.34,4.18-8.18,6.04-.08.06-.16.07-.24.05-.07,0-.14-.04-.2-.11l-2.51-2.73s-.07,0-.1-.01l-3.75-.62ZM6.65,10.8l-.3-.39c-.91-1.19-1.83-2.39-2.68-3.63-.46-.67-.89-1.34-1.31-2.02-.49-.68-.87-1.43-1.12-2.22-.21-.94.72-1.41,1.53-1.41.81.11,1.57.46,2.18,1.01,1.23,1.01,2.27,2.22,3.08,3.58.09.16.25.18.39.14l.05.06c.95-.12,1.83-.44,2.72-.76.69-.25,1.38-.5,2.1-.65.94-.24,1.94-.13,2.81.31.68.48,1.26,1.1,1.71,1.8l1.7,2.35c.58.71,1.11,1.45,1.59,2.23.86,1.62-.63,3.8-1.59,5.09-.27.37.35.7.6.35.39-.56.74-1.14,1.04-1.75.47.67,1.02,1.29,1.62,1.84-2.42,1.99-4.94,3.85-7.56,5.58l-1.9-2.06h.86c.09,0,.18-.04.24-.11.07-.07.1-.15.11-.24,0-.09-.04-.18-.1-.25s-.16-.1-.25-.1h-1.66s-.09,0-.14.03l-3.8-.62s-.01,0-.02,0c-1.04-1.03-1.91-2.21-2.6-3.5-.43-.63-.94-1.19-1.52-1.67-.3-.23-.62-.44-.94-.63-.32-.14-.6-.34-.84-.59-.52-.66.1-1.49.74-1.74.36-.12.73-.16,1.11-.12.37.04.73.16,1.06.36,1.4.92,2.47,2.26,3.05,3.82.17.42.84.24.67-.18-.49-1.2-1.44-2.78-2.66-3.78,0-.05-.03-.11-.07-.17l.07.06Z"/>
      </g>
    </mask>
  </defs>
  <path class="cls-7" d="M17.45,18.71l-.48.38h0s-.1.06-.15.08h-.1s-.09,0-.13-.02c-.04-.02-.08-.04-.11-.08-.01-.04-.01-.08,0-.11-.01-.05-.01-.09,0-.14-.01-.04-.01-.09,0-.13-.01-.04-.01-.08,0-.11l.48-.38c.04-.05.09-.08.15-.1h.08s.09.01.14.03c.04.02.08.05.11.08.01.04.01.08,0,.11,0,.02.02.04.02.06s0,.04-.02.06c.01.02.02.05.02.07s0,.05-.02.07c.01.04.01.08,0,.11Z"/>
  <path class="cls-4" d="M8.56,19.65c-.08.03-.19.03-.29-.05-1.13-1.07-2.08-2.31-2.81-3.68-.42-.64-.95-1.2-1.55-1.67-.59-.34-1.15-.71-1.69-1.12-.18-.24-.31-.52-.36-.81-.05-.3-.04-.6.05-.89.09-.29.24-.55.45-.77.21-.22.47-.38.75-.47.73-.31,1.43-.3,2.09-.1-.83-1.11-1.65-2.23-2.41-3.31-.45-.63-.89-1.35-1.29-2.04-.39-.6-.71-1.24-.96-1.91-.08-.27-.11-.55-.06-.83.04-.28.15-.54.31-.77.16-.23.37-.42.62-.55.25-.14.52-.21.8-.22.68-.02,1.36.12,1.99.39.63.27,1.19.68,1.64,1.2,1.03.9,1.93,1.94,2.66,3.1.87-.12,1.71-.42,2.54-.71,1.08-.38,2.16-.77,3.32-.77.83.06,1.63.33,2.32.78.7.45,1.27,1.07,1.67,1.8l2.02,2.81c.66.74,1.19,1.58,1.56,2.5.15.87.01,1.78-.41,2.56v.02s.05.08.07.13c.52.8,1.16,1.53,1.88,2.15.03.03.06.07.07.12,0,.02.02.05.02.07.1.12.12.3-.04.43-2.61,2.17-5.34,4.18-8.18,6.04-.08.06-.16.07-.24.05-.07,0-.14-.04-.2-.11l-2.51-2.73s-.07,0-.1-.01l-3.75-.62ZM6.65,10.8l-.3-.39c-.91-1.19-1.83-2.39-2.68-3.63-.46-.67-.89-1.34-1.31-2.02-.49-.68-.87-1.43-1.12-2.22-.21-.94.72-1.41,1.53-1.41.81.11,1.57.46,2.18,1.01,1.23,1.01,2.27,2.22,3.08,3.58.09.16.25.18.39.14l.05.06c.95-.12,1.83-.44,2.72-.76.69-.25,1.38-.5,2.1-.65.94-.24,1.94-.13,2.81.31.68.48,1.26,1.1,1.71,1.8l1.7,2.35c.58.71,1.11,1.45,1.59,2.23.86,1.62-.63,3.8-1.59,5.09-.27.37.35.7.6.35.39-.56.74-1.14,1.04-1.75.47.67,1.02,1.29,1.62,1.84-2.42,1.99-4.94,3.85-7.56,5.58l-1.9-2.06h.86c.09,0,.18-.04.24-.11.07-.07.1-.15.11-.24,0-.09-.04-.18-.1-.25s-.16-.1-.25-.1h-1.66s-.09,0-.14.03l-3.8-.62s-.01,0-.02,0c-1.04-1.03-1.91-2.21-2.6-3.5-.43-.63-.94-1.19-1.52-1.67-.3-.23-.62-.44-.94-.63-.32-.14-.6-.34-.84-.59-.52-.66.1-1.49.74-1.74.36-.12.73-.16,1.11-.12.37.04.73.16,1.06.36,1.4.92,2.47,2.26,3.05,3.82.17.42.84.24.67-.18-.49-1.2-1.44-2.78-2.66-3.78,0-.05-.03-.11-.07-.17l.07.06Z"/>
  <g class="cls-1">
    <path class="cls-5" d="M17.45,18.71l-.48.38h0s-.1.06-.15.08h-.1s-.09,0-.13-.02c-.04-.02-.08-.04-.11-.08-.01-.04-.01-.08,0-.11-.01-.05-.01-.09,0-.14-.01-.04-.01-.09,0-.13-.01-.04-.01-.08,0-.11l.48-.38c.04-.05.09-.08.15-.1h.08s.09.01.14.03c.04.02.08.05.11.08.01.04.01.08,0,.11,0,.02.02.04.02.06s0,.04-.02.06c.01.02.02.05.02.07s0,.05-.02.07c.01.04.01.08,0,.11Z"/>
  </g>
  <g class="cls-2">
    <path class="cls-5" d="M8.56,19.65c-.08.03-.19.03-.29-.05-1.13-1.07-2.08-2.31-2.81-3.68-.42-.64-.95-1.2-1.55-1.67-.59-.34-1.15-.71-1.69-1.12-.18-.24-.31-.52-.36-.81-.05-.3-.04-.6.05-.89.09-.29.24-.55.45-.77.21-.22.47-.38.75-.47.73-.31,1.43-.3,2.09-.1-.83-1.11-1.65-2.23-2.41-3.31-.45-.63-.89-1.35-1.29-2.04-.39-.6-.71-1.24-.96-1.91-.08-.27-.11-.55-.06-.83.04-.28.15-.54.31-.77.16-.23.37-.42.62-.55.25-.14.52-.21.8-.22.68-.02,1.36.12,1.99.39.63.27,1.19.68,1.64,1.2,1.03.9,1.93,1.94,2.66,3.1.87-.12,1.71-.42,2.54-.71,1.08-.38,2.16-.77,3.32-.77.83.06,1.63.33,2.32.78.7.45,1.27,1.07,1.67,1.8l2.02,2.81c.66.74,1.19,1.58,1.56,2.5.15.87.01,1.78-.41,2.56v.02s.05.08.07.13c.52.8,1.16,1.53,1.88,2.15.03.03.06.07.07.12,0,.02.02.05.02.07.1.12.12.3-.04.43-2.61,2.17-5.34,4.18-8.18,6.04-.08.06-.16.07-.24.05-.07,0-.14-.04-.2-.11l-2.51-2.73s-.07,0-.1-.01l-3.75-.62ZM6.65,10.8l-.3-.39c-.91-1.19-1.83-2.39-2.68-3.63-.46-.67-.89-1.34-1.31-2.02-.49-.68-.87-1.43-1.12-2.22-.21-.94.72-1.41,1.53-1.41.81.11,1.57.46,2.18,1.01,1.23,1.01,2.27,2.22,3.08,3.58.09.16.25.18.39.14l.05.06c.95-.12,1.83-.44,2.72-.76.69-.25,1.38-.5,2.1-.65.94-.24,1.94-.13,2.81.31.68.48,1.26,1.1,1.71,1.8l1.7,2.35c.58.71,1.11,1.45,1.59,2.23.86,1.62-.63,3.8-1.59,5.09-.27.37.35.7.6.35.39-.56.74-1.14,1.04-1.75.47.67,1.02,1.29,1.62,1.84-2.42,1.99-4.94,3.85-7.56,5.58l-1.9-2.06h.86c.09,0,.18-.04.24-.11.07-.07.1-.15.11-.24,0-.09-.04-.18-.1-.25s-.16-.1-.25-.1h-1.66s-.09,0-.14.03l-3.8-.62s-.01,0-.02,0c-1.04-1.03-1.91-2.21-2.6-3.5-.43-.63-.94-1.19-1.52-1.67-.3-.23-.62-.44-.94-.63-.32-.14-.6-.34-.84-.59-.52-.66.1-1.49.74-1.74.36-.12.73-.16,1.11-.12.37.04.73.16,1.06.36,1.4.92,2.47,2.26,3.05,3.82.17.42.84.24.67-.18-.49-1.2-1.44-2.78-2.66-3.78,0-.05-.03-.11-.07-.17l.07.06Z"/>
  </g>
</svg>