<svg width="458" height="623" viewBox="0 0 458 623" fill="none" xmlns="http://www.w3.org/2000/svg">
  <path d="M188.52 620.36C203.513 619.289 218.506 617.76 233.291 616.23C288.89 610.113 361.981 611.337 409.459 586.103C430.282 575.092 434.03 557.047 438.612 539.919C460.06 461.772 457.769 379.19 457.978 299.819C458.186 252.258 456.936 204.85 454.438 157.442C452.147 116.151 455.895 69.8131 440.486 29.8985C424.868 -10.4749 360.732 1.1478 317.835 2.83002C244.744 5.58275 171.653 9.10011 98.5626 13.2292C68.7849 14.9114 7.97992 22.405 7.7717 52.2262C7.147 124.868 -0.557656 199.192 4.23177 271.374C7.77178 324.441 11.9365 377.507 12.1447 430.727C12.3529 460.395 -25.546 608.278 31.5106 616.995C83.1531 624.489 136.253 624.183 188.52 620.36Z" fill="#F4EBD9"/>
</svg>
