<svg width="280" height="120" viewBox="0 0 280 120" fill="none" xmlns="http://www.w3.org/2000/svg">
  <path d="M278.813 70.606C278.332 66.6777 277.645 62.7494 276.958 58.8757C274.208 44.3083 274.758 25.1578 263.417 12.7182C258.469 7.26229 250.358 6.28021 242.66 5.0799C207.538 -0.539737 170.422 0.0604255 134.75 0.00586586C113.374 -0.0486938 92.0674 0.278654 70.7604 0.933369C52.2026 1.53352 31.3767 0.551459 13.4375 4.58887C-4.70781 8.68084 0.515867 25.4852 1.27192 36.7245C2.50911 55.8749 4.08994 75.0253 5.94572 94.1757C6.70177 101.978 10.0697 117.909 23.4725 117.964C56.1204 118.127 89.5243 120.146 121.966 118.891C145.816 117.964 169.666 116.873 193.585 116.818C206.919 116.763 273.383 126.693 277.301 111.744C280.669 98.2132 280.532 84.3005 278.813 70.606Z" fill="#C5D86D" fill-opacity="0.7"/>
</svg>
