<svg width="133" height="126" viewBox="0 0 133 126" fill="none" xmlns="http://www.w3.org/2000/svg">
  <path d="M132.436 74.1363C132.208 70.0116 131.881 65.8869 131.555 61.8195C130.249 46.5237 130.51 26.4157 125.123 13.3542C122.773 7.6254 118.92 6.59423 115.264 5.3339C98.5805 -0.566723 80.9506 0.0634467 64.0063 0.00615915C53.8528 -0.0511284 43.732 0.292587 33.6112 0.980038C24.7962 1.6102 14.9039 0.579032 6.38283 4.81831C-2.23621 9.11488 0.245037 26.7595 0.604164 38.5607C1.19183 58.6686 1.94272 78.7766 2.82422 98.8845C3.18334 107.077 4.78309 123.805 11.1494 123.862C26.6572 124.034 42.524 126.153 57.9338 124.836C69.2627 123.862 80.5915 122.716 91.9529 122.659C98.2866 122.602 129.857 133.028 131.718 117.331C133.318 103.124 133.253 88.5155 132.436 74.1363Z" fill="#C5D86D" fill-opacity="0.7"/>
</svg>
