<svg width="175" height="75" viewBox="0 0 175 75" fill="none" xmlns="http://www.w3.org/2000/svg">
  <path d="M174.258 44.1287C173.958 41.6736 173.528 39.2184 173.098 36.7973C171.38 27.6927 171.724 15.7237 164.636 7.94891C161.543 4.53893 156.474 3.92513 151.663 3.17494C129.711 -0.337335 106.514 0.0377659 84.2189 0.00366616C70.859 -0.0304336 57.5421 0.174159 44.2252 0.583356C32.6266 0.958453 19.6104 0.344662 8.39846 2.86804C-2.94238 5.42553 0.322417 15.9282 0.794952 22.9528C1.56819 34.9218 2.55621 46.8908 3.71607 58.8598C4.18861 63.7361 6.29354 73.6932 14.6703 73.7273C35.0752 73.8296 55.9527 75.0913 76.2287 74.307C91.1351 73.7273 106.041 73.0453 120.991 73.0112C129.325 72.9771 170.865 79.1833 173.313 69.84C175.418 61.3832 175.332 52.6878 174.258 44.1287Z" fill="#C5D86D" fill-opacity="0.7"/>
</svg>
